G04 Layer_Color=2752767*
%FSLAX44Y44*%
%MOMM*%
G71*
G01*
G75*
%ADD10C,0.1000*%
%ADD19C,0.2032*%
%ADD50C,0.1270*%
%ADD93C,0.1693*%
D10*
X3521904Y2473932D02*
Y2509932D01*
X3536904Y2473932D02*
Y2509932D01*
X3521904D02*
X3536904D01*
X3521904Y2473932D02*
X3536904D01*
X1429198Y2243740D02*
X1444198Y2243740D01*
X1429198Y2207740D02*
X1444198Y2207740D01*
X1429198Y2207740D02*
Y2243740D01*
X1444198Y2207740D02*
Y2243740D01*
X1265622Y2789400D02*
X1280622Y2789400D01*
X1265622Y2825400D02*
X1280622Y2825400D01*
Y2789400D02*
Y2825400D01*
X1265622Y2789400D02*
Y2825400D01*
X1455360Y2809974D02*
Y2845974D01*
X1470360Y2809974D02*
Y2845974D01*
X1455360Y2845974D02*
X1470360Y2845974D01*
X1455360Y2809974D02*
X1470360Y2809974D01*
X1648400Y2810482D02*
X1663400Y2810482D01*
X1648400Y2846482D02*
X1663400Y2846482D01*
Y2810482D02*
Y2846482D01*
X1648400Y2810482D02*
Y2846482D01*
X1833312Y2812260D02*
X1848312D01*
X1833312Y2848260D02*
X1848312D01*
Y2812260D02*
Y2848260D01*
X1833312Y2812260D02*
Y2848260D01*
X2024574Y2824706D02*
X2039574D01*
X2024574Y2860706D02*
X2039574D01*
Y2824706D02*
Y2860706D01*
X2024574Y2824706D02*
Y2860706D01*
X2217106Y2819626D02*
X2232106D01*
X2217106Y2855626D02*
X2232106D01*
Y2819626D02*
Y2855626D01*
X2217106Y2819626D02*
Y2855626D01*
X2351360Y2800214D02*
Y2815214D01*
X2387360Y2800214D02*
Y2815214D01*
X2351360Y2800214D02*
X2387360D01*
X2351360Y2815214D02*
X2387360D01*
X2543360Y2803964D02*
Y2818964D01*
X2579360Y2803964D02*
Y2818964D01*
X2543360Y2803964D02*
X2579360D01*
X2543360Y2818964D02*
X2579360D01*
X2733360Y2804214D02*
Y2819214D01*
X2769360Y2804214D02*
Y2819214D01*
X2733360Y2804214D02*
X2769360D01*
X2733360Y2819214D02*
X2769360D01*
X2922361Y2803464D02*
Y2818464D01*
X2958360Y2803464D02*
Y2818464D01*
X2922361Y2803464D02*
X2958360D01*
X2922361Y2818464D02*
X2958360D01*
X3117860Y2801214D02*
Y2816214D01*
X3153860Y2801214D02*
Y2816214D01*
X3117860Y2801214D02*
X3153860D01*
X3117860Y2816214D02*
X3153860D01*
X3302110Y2800214D02*
Y2815214D01*
X3338110Y2800214D02*
Y2815214D01*
X3302110Y2800214D02*
X3338110D01*
X3302110Y2815214D02*
X3338110D01*
X3491610Y2803964D02*
Y2818964D01*
X3527610Y2803964D02*
Y2818964D01*
X3491610Y2803964D02*
X3527610D01*
X3491610Y2818964D02*
X3527610D01*
X3775860Y2800214D02*
Y2815214D01*
X3811860Y2800214D02*
Y2815214D01*
X3775860Y2800214D02*
X3811860D01*
X3775860Y2815214D02*
X3811860D01*
X1324296Y2620998D02*
X1339296Y2620998D01*
X1324296Y2656998D02*
X1339296Y2656998D01*
Y2620998D02*
Y2656998D01*
X1324296Y2620998D02*
Y2656998D01*
X1497860Y2615464D02*
Y2630464D01*
X1533860Y2615464D02*
Y2630464D01*
X1497860Y2615464D02*
X1533860D01*
X1497860Y2630464D02*
X1533860D01*
X1688610Y2615714D02*
Y2630714D01*
X1724610Y2615714D02*
Y2630714D01*
X1688610Y2615714D02*
X1724610D01*
X1688610Y2630714D02*
X1724610D01*
X1882610Y2628714D02*
X1918610D01*
X1882610Y2613714D02*
X1918610D01*
Y2628714D01*
X1882610Y2613714D02*
Y2628714D01*
X2066360Y2616714D02*
Y2631714D01*
X2102360Y2616714D02*
Y2631714D01*
X2066360Y2616714D02*
X2102360D01*
X2066360Y2631714D02*
X2102360D01*
X2256860Y2613964D02*
Y2628964D01*
X2292860Y2613964D02*
Y2628964D01*
X2256860Y2613964D02*
X2292860D01*
X2256860Y2628964D02*
X2292860D01*
X2447360Y2614964D02*
Y2629964D01*
X2483360Y2614964D02*
Y2629964D01*
X2447360Y2614964D02*
X2483360D01*
X2447360Y2629964D02*
X2483360D01*
X2637110Y2614214D02*
Y2629214D01*
X2673110Y2614214D02*
Y2629214D01*
X2637110Y2614214D02*
X2673110D01*
X2637110Y2629214D02*
X2673110D01*
X2827610Y2615714D02*
Y2630714D01*
X2863611Y2615714D02*
Y2630714D01*
X2827610Y2615714D02*
X2863611D01*
X2827610Y2630714D02*
X2863611D01*
X3017110Y2613214D02*
Y2628214D01*
X3053110Y2613214D02*
Y2628214D01*
X3017110Y2613214D02*
X3053110D01*
X3017110Y2628214D02*
X3053110D01*
X3206360Y2613464D02*
Y2628464D01*
X3242361Y2613464D02*
Y2628464D01*
X3206360Y2613464D02*
X3242361D01*
X3206360Y2628464D02*
X3242361D01*
X3399360Y2613714D02*
Y2628714D01*
X3435360Y2613714D02*
Y2628714D01*
X3399360Y2613714D02*
X3435360D01*
X3399360Y2628714D02*
X3435360D01*
X3629854Y2614902D02*
Y2650902D01*
X3644854Y2614902D02*
Y2650902D01*
X3629854D02*
X3644854D01*
X3629854Y2614902D02*
X3644854D01*
X3703514Y2637254D02*
X3718514Y2637254D01*
X3703514Y2673254D02*
X3718514Y2673254D01*
Y2637254D02*
Y2673254D01*
X3703514Y2637254D02*
Y2673254D01*
X3710610Y2247964D02*
X3746610D01*
X3710610Y2232964D02*
X3746610D01*
Y2247964D01*
X3710610Y2232964D02*
Y2247964D01*
X1284360Y2425964D02*
Y2440964D01*
X1320360Y2425964D02*
Y2440964D01*
X1284360Y2425964D02*
X1320360D01*
X1284360Y2440964D02*
X1320360D01*
X1605220Y2488410D02*
X1620220Y2488410D01*
X1605220Y2524410D02*
X1620220Y2524410D01*
Y2488410D02*
Y2524410D01*
X1605220Y2488410D02*
Y2524410D01*
X1712389Y2427493D02*
Y2442493D01*
X1748389Y2427493D02*
Y2442493D01*
X1712389Y2427493D02*
X1748389D01*
X1712389Y2442493D02*
X1748389D01*
X1976610Y2461964D02*
X1991610D01*
X1976610Y2497964D02*
X1991610D01*
Y2461964D02*
Y2497964D01*
X1976610Y2461964D02*
Y2497964D01*
X2112360Y2424714D02*
Y2439714D01*
X2148360Y2424714D02*
Y2439714D01*
X2112360Y2424714D02*
X2148360D01*
X2112360Y2439714D02*
X2148360D01*
X2194110Y2447714D02*
X2209110D01*
X2194110Y2483714D02*
X2209110D01*
Y2447714D02*
Y2483714D01*
X2194110Y2447714D02*
Y2483714D01*
X2377110Y2448214D02*
X2392110D01*
X2377110Y2484214D02*
X2392110D01*
Y2448214D02*
Y2484214D01*
X2377110Y2448214D02*
Y2484214D01*
X2685110Y2424714D02*
Y2439714D01*
X2721111Y2424714D02*
Y2439714D01*
X2685110Y2424714D02*
X2721111D01*
X2685110Y2439714D02*
X2721111D01*
X2874610Y2423964D02*
Y2438964D01*
X2910610Y2423964D02*
Y2438964D01*
X2874610Y2423964D02*
X2910610D01*
X2874610Y2438964D02*
X2910610D01*
X3063860Y2424464D02*
Y2439464D01*
X3099861Y2424464D02*
Y2439464D01*
X3063860Y2424464D02*
X3099861D01*
X3063860Y2439464D02*
X3099861D01*
X3255110Y2422214D02*
Y2437214D01*
X3291111Y2422214D02*
Y2437214D01*
X3255110Y2422214D02*
X3291111D01*
X3255110Y2437214D02*
X3291111D01*
X3445110Y2422214D02*
Y2437214D01*
X3481111Y2422214D02*
Y2437214D01*
X3445110Y2422214D02*
X3481111D01*
X3445110Y2437214D02*
X3481111D01*
X3755360Y2423464D02*
Y2438464D01*
X3791360Y2423464D02*
Y2438464D01*
X3755360Y2423464D02*
X3791360D01*
X3755360Y2438464D02*
X3791360D01*
X1315152Y2219610D02*
X1330152D01*
X1315152Y2183610D02*
X1330152D01*
X1315152D02*
Y2219610D01*
X1330152Y2183610D02*
Y2219610D01*
X1643110Y2234714D02*
Y2249714D01*
X1679110Y2234714D02*
Y2249714D01*
X1643110Y2234714D02*
X1679110D01*
X1643110Y2249714D02*
X1679110D01*
X1806067Y2232118D02*
Y2247118D01*
X1842067Y2232118D02*
Y2247118D01*
X1806067Y2232118D02*
X1842067D01*
X1806067Y2247118D02*
X1842067D01*
X1998091Y2232372D02*
Y2247372D01*
X2034091Y2232372D02*
Y2247372D01*
X1998091Y2232372D02*
X2034091D01*
X1998091Y2247372D02*
X2034091D01*
X2198610Y2229464D02*
Y2244464D01*
X2234610Y2229464D02*
Y2244464D01*
X2198610Y2229464D02*
X2234610D01*
X2198610Y2244464D02*
X2234610D01*
X2378329Y2231864D02*
Y2246864D01*
X2414329Y2231864D02*
Y2246864D01*
X2378329Y2231864D02*
X2414329D01*
X2378329Y2246864D02*
X2414329D01*
X2635610Y2285214D02*
Y2321214D01*
X2650610Y2285214D02*
Y2321214D01*
X2635610D02*
X2650610D01*
X2635610Y2285214D02*
X2650610D01*
X2772361Y2238214D02*
Y2253214D01*
X2808360Y2238214D02*
Y2253214D01*
X2772361Y2238214D02*
X2808360D01*
X2772361Y2253214D02*
X2808360D01*
X2968110Y2230214D02*
Y2245214D01*
X3004110Y2230214D02*
Y2245214D01*
X2968110Y2230214D02*
X3004110D01*
X2968110Y2245214D02*
X3004110D01*
X3164110Y2232964D02*
Y2247964D01*
X3200110Y2232964D02*
Y2247964D01*
X3164110Y2232964D02*
X3200110D01*
X3164110Y2247964D02*
X3200110D01*
X3352361Y2232964D02*
Y2247964D01*
X3388360Y2232964D02*
Y2247964D01*
X3352361Y2232964D02*
X3388360D01*
X3352361Y2247964D02*
X3388360D01*
X1278360Y2067714D02*
X1293360D01*
X1278360Y2103714D02*
X1293360D01*
Y2067714D02*
Y2103714D01*
X1278360Y2067714D02*
Y2103714D01*
X1522110Y2067964D02*
X1537110D01*
X1522110Y2103964D02*
X1537110D01*
Y2067964D02*
Y2103964D01*
X1522110Y2067964D02*
Y2103964D01*
X1579860Y2067964D02*
X1594860D01*
X1579860Y2103964D02*
X1594860D01*
Y2067964D02*
Y2103964D01*
X1579860Y2067964D02*
Y2103964D01*
X2466610Y2093464D02*
Y2129464D01*
X2481610Y2093464D02*
Y2129464D01*
X2466610D02*
X2481610D01*
X2466610Y2093464D02*
X2481610D01*
X3195880Y2067334D02*
X3210880D01*
X3195880Y2103334D02*
X3210880D01*
Y2067334D02*
Y2103334D01*
X3195880Y2067334D02*
Y2103334D01*
X3420610Y2067214D02*
X3435610D01*
X3420610Y2103214D02*
X3435610D01*
Y2067214D02*
Y2103214D01*
X3420610Y2067214D02*
Y2103214D01*
X3667361Y2067964D02*
X3682361D01*
X3667361Y2103964D02*
X3682361D01*
Y2067964D02*
Y2103964D01*
X3667361Y2067964D02*
Y2103964D01*
X3876860Y2124714D02*
X3891860D01*
X3876860Y2160714D02*
X3891860D01*
Y2124714D02*
Y2160714D01*
X3876860Y2124714D02*
Y2160714D01*
D19*
X3523896Y2520488D02*
X3533896D01*
X3528896Y2515598D02*
Y2525598D01*
X3524738Y2465008D02*
X3534738D01*
X1431364Y2252664D02*
X1441364Y2252664D01*
X1437207Y2192074D02*
Y2202074D01*
X1432207Y2197184D02*
X1442206D01*
X1268456Y2780476D02*
X1278456D01*
X1272614Y2831066D02*
X1272614Y2841066D01*
X1267614Y2835956D02*
X1277614Y2835956D01*
X1457352Y2856530D02*
X1467352Y2856530D01*
X1462352Y2851640D02*
X1462352Y2861640D01*
X1458194Y2801050D02*
X1468194D01*
X1651234Y2801558D02*
X1661234D01*
X1655392Y2852148D02*
X1655392Y2862148D01*
X1650392Y2857038D02*
X1660392Y2857038D01*
X1836146Y2803336D02*
X1846146D01*
X1840304Y2853926D02*
X1840304Y2863926D01*
X1835304Y2858816D02*
X1845304D01*
X2027408Y2815782D02*
X2037408D01*
X2031566Y2866372D02*
X2031566Y2876372D01*
X2026566Y2871262D02*
X2036566D01*
X2219940Y2810702D02*
X2229940D01*
X2224098Y2861292D02*
X2224098Y2871292D01*
X2219098Y2866182D02*
X2229098D01*
X2342436Y2802380D02*
Y2812380D01*
X2393026Y2808222D02*
X2403026D01*
X2397916Y2803222D02*
Y2813222D01*
X2534436Y2806130D02*
Y2816130D01*
X2585027Y2811972D02*
X2595027D01*
X2589916Y2806972D02*
Y2816972D01*
X2724436Y2806380D02*
Y2816380D01*
X2775027Y2812222D02*
X2785027D01*
X2779916Y2807222D02*
Y2817222D01*
X2913436Y2805630D02*
Y2815630D01*
X2964026Y2811472D02*
X2974026D01*
X2968916Y2806472D02*
Y2816472D01*
X3108936Y2803380D02*
Y2813380D01*
X3159526Y2809222D02*
X3169526D01*
X3164417Y2804222D02*
Y2814222D01*
X3293186Y2802380D02*
Y2812380D01*
X3343777Y2808222D02*
X3353777D01*
X3348666Y2803222D02*
Y2813222D01*
X3482686Y2806130D02*
Y2816130D01*
X3533276Y2811972D02*
X3543276D01*
X3538167Y2806972D02*
Y2816972D01*
X3766936Y2802380D02*
Y2812380D01*
X3817527Y2808222D02*
X3827527D01*
X3822416Y2803222D02*
Y2813222D01*
X1327130Y2612074D02*
X1337130D01*
X1331288Y2662664D02*
X1331288Y2672664D01*
X1326288Y2667554D02*
X1336288Y2667554D01*
X1488936Y2617630D02*
Y2627630D01*
X1539526Y2623472D02*
X1549526D01*
X1544416Y2618472D02*
Y2628472D01*
X1679686Y2617880D02*
Y2627880D01*
X1730276Y2623722D02*
X1740276D01*
X1735166Y2618722D02*
Y2628722D01*
X1929166Y2616722D02*
Y2626722D01*
X1924276Y2621722D02*
X1934276D01*
X1873686Y2615880D02*
Y2625880D01*
X2057436Y2618880D02*
Y2628880D01*
X2108026Y2624722D02*
X2118026D01*
X2112916Y2619722D02*
Y2629722D01*
X2247936Y2616130D02*
Y2626130D01*
X2298526Y2621972D02*
X2308526D01*
X2303416Y2616972D02*
Y2626972D01*
X2438436Y2617130D02*
Y2627130D01*
X2489026Y2622972D02*
X2499026D01*
X2493916Y2617972D02*
Y2627972D01*
X2628186Y2616380D02*
Y2626380D01*
X2678777Y2622222D02*
X2688777D01*
X2683666Y2617222D02*
Y2627222D01*
X2818687Y2617880D02*
Y2627880D01*
X2869276Y2623722D02*
X2879276D01*
X2874166Y2618722D02*
Y2628722D01*
X3008186Y2615380D02*
Y2625380D01*
X3058777Y2621222D02*
X3068777D01*
X3063666Y2616222D02*
Y2626222D01*
X3197437Y2615630D02*
Y2625630D01*
X3248026Y2621472D02*
X3258026D01*
X3252916Y2616472D02*
Y2626472D01*
X3390436Y2615880D02*
Y2625880D01*
X3441026Y2621722D02*
X3451026D01*
X3445916Y2616722D02*
Y2626722D01*
X3631846Y2661458D02*
X3641846D01*
X3636846Y2656568D02*
X3636846Y2666568D01*
X3632688Y2605978D02*
X3642688D01*
X3706348Y2628330D02*
X3716348D01*
X3710506Y2678920D02*
X3710506Y2688920D01*
X3705506Y2683810D02*
X3715506Y2683810D01*
X3757166Y2235972D02*
Y2245972D01*
X3752276Y2240972D02*
X3762276D01*
X3701686Y2235130D02*
Y2245130D01*
X1275436Y2428130D02*
Y2438130D01*
X1326026Y2433972D02*
X1336026D01*
X1330916Y2428972D02*
Y2438972D01*
X1608054Y2479486D02*
X1618054D01*
X1612212Y2530076D02*
X1612212Y2540076D01*
X1607212Y2534966D02*
X1617212Y2534966D01*
X1703465Y2429659D02*
Y2439659D01*
X1754055Y2435501D02*
X1764055D01*
X1758945Y2430501D02*
Y2440501D01*
X1979444Y2453040D02*
X1989444D01*
X1983602Y2503630D02*
Y2513630D01*
X1978602Y2508520D02*
X1988602D01*
X2103436Y2426880D02*
Y2436880D01*
X2154026Y2432722D02*
X2164026D01*
X2158916Y2427722D02*
Y2437722D01*
X2196944Y2438790D02*
X2206944D01*
X2201102Y2489380D02*
Y2499380D01*
X2196102Y2494270D02*
X2206102D01*
X2379944Y2439290D02*
X2389944D01*
X2384102Y2489880D02*
Y2499880D01*
X2379102Y2494770D02*
X2389102D01*
X2676187Y2426880D02*
Y2436880D01*
X2726776Y2432722D02*
X2736776D01*
X2731666Y2427722D02*
Y2437722D01*
X2865686Y2426130D02*
Y2436130D01*
X2916277Y2431972D02*
X2926277D01*
X2921166Y2426972D02*
Y2436972D01*
X3054937Y2426630D02*
Y2436630D01*
X3105526Y2432472D02*
X3115526D01*
X3110416Y2427472D02*
Y2437472D01*
X3246187Y2424380D02*
Y2434380D01*
X3296776Y2430222D02*
X3306776D01*
X3301666Y2425222D02*
Y2435222D01*
X3436187Y2424380D02*
Y2434380D01*
X3486776Y2430222D02*
X3496776D01*
X3491666Y2425222D02*
Y2435222D01*
X3746436Y2425630D02*
Y2435630D01*
X3797026Y2431472D02*
X3807026D01*
X3801917Y2426472D02*
Y2436472D01*
X1317318Y2228534D02*
X1327318D01*
X1323160Y2167944D02*
X1323160Y2177944D01*
X1318160Y2173054D02*
X1328160Y2173054D01*
X1634186Y2236880D02*
Y2246880D01*
X1684776Y2242722D02*
X1694776D01*
X1689666Y2237722D02*
Y2247722D01*
X1797143Y2234284D02*
Y2244284D01*
X1847733Y2240126D02*
X1857733D01*
X1852623Y2235126D02*
Y2245126D01*
X1989167Y2234538D02*
Y2244538D01*
X2039757Y2240380D02*
X2049757D01*
X2044647Y2235380D02*
Y2245380D01*
X2189686Y2231630D02*
Y2241630D01*
X2240276Y2237472D02*
X2250276D01*
X2245166Y2232472D02*
Y2242472D01*
X2369405Y2234030D02*
Y2244030D01*
X2419995Y2239872D02*
X2429995D01*
X2424885Y2234872D02*
Y2244872D01*
X2637603Y2331770D02*
X2647603D01*
X2642603Y2326880D02*
Y2336880D01*
X2638445Y2276290D02*
X2648445D01*
X2763436Y2240380D02*
Y2250380D01*
X2814026Y2246222D02*
X2824026D01*
X2818916Y2241222D02*
Y2251222D01*
X2959186Y2232380D02*
Y2242380D01*
X3009776Y2238222D02*
X3019776D01*
X3014666Y2233222D02*
Y2243222D01*
X3155186Y2235130D02*
Y2245130D01*
X3205776Y2240972D02*
X3215776D01*
X3210667Y2235972D02*
Y2245972D01*
X3343436Y2235130D02*
Y2245130D01*
X3394026Y2240972D02*
X3404026D01*
X3398916Y2235972D02*
Y2245972D01*
X1281194Y2058790D02*
X1291194D01*
X1285352Y2109380D02*
Y2119380D01*
X1280352Y2114270D02*
X1290352D01*
X1524944Y2059040D02*
X1534944D01*
X1529102Y2109630D02*
Y2119630D01*
X1524102Y2114520D02*
X1534102D01*
X1582694Y2059040D02*
X1592694D01*
X1586852Y2109630D02*
Y2119630D01*
X1581852Y2114520D02*
X1591852D01*
X2468602Y2140020D02*
X2478602D01*
X2473602Y2135130D02*
Y2145130D01*
X2469444Y2084540D02*
X2479444D01*
X3198714Y2058410D02*
X3208714D01*
X3202872Y2109000D02*
Y2119000D01*
X3197872Y2113890D02*
X3207872D01*
X3423445Y2058290D02*
X3433445D01*
X3427603Y2108880D02*
Y2118880D01*
X3422603Y2113770D02*
X3432603D01*
X3670194Y2059040D02*
X3680194D01*
X3674352Y2109630D02*
Y2119630D01*
X3669352Y2114520D02*
X3679352D01*
X3879695Y2115790D02*
X3889695D01*
X3883853Y2166380D02*
Y2176380D01*
X3878853Y2171270D02*
X3888853D01*
D50*
X2581404Y2079776D02*
Y2089936D01*
X2591564D01*
Y2079776D01*
X2581404D01*
X2561404D02*
Y2089936D01*
X2571564D01*
Y2079776D01*
X2561404D01*
X2541404D02*
Y2089936D01*
X2551564D01*
Y2079776D01*
X2541404D01*
X2521405D02*
Y2089936D01*
X2531564D01*
Y2079776D01*
X2521405D01*
X1415867Y2063334D02*
X1410787Y2073494D01*
X1420947D01*
X1415867Y2063334D01*
X1479367Y2088734D02*
X1474287Y2098894D01*
X1484447D01*
X1479367Y2088734D01*
X2548450Y2848634D02*
X2543370Y2858794D01*
X2553530D01*
X2548450Y2848634D01*
X2484950Y2823234D02*
X2479870Y2833394D01*
X2490030D01*
X2484950Y2823234D01*
X1534957D02*
X1529877Y2833394D01*
X1540037D01*
X1534957Y2823234D01*
X1598457Y2848634D02*
X1593377Y2858794D01*
X1603537D01*
X1598457Y2848634D01*
X1154750Y2823234D02*
X1149670Y2833394D01*
X1159830D01*
X1154750Y2823234D01*
X1218250Y2848634D02*
X1213170Y2858794D01*
X1223330D01*
X1218250Y2848634D01*
X1408377D02*
X1403297Y2858794D01*
X1413457D01*
X1408377Y2848634D01*
X1344877Y2823234D02*
X1339797Y2833394D01*
X1349957D01*
X1344877Y2823234D01*
X1788504Y2848634D02*
X1783424Y2858794D01*
X1793584D01*
X1788504Y2848634D01*
X1725004Y2823234D02*
X1719924Y2833394D01*
X1730084D01*
X1725004Y2823234D01*
X1914760D02*
X1909680Y2833394D01*
X1919840D01*
X1914760Y2823234D01*
X1978260Y2848634D02*
X1973180Y2858794D01*
X1983340D01*
X1978260Y2848634D01*
X2104484Y2823234D02*
X2099404Y2833394D01*
X2109564D01*
X2104484Y2823234D01*
X2167984Y2848634D02*
X2162904Y2858794D01*
X2173064D01*
X2167984Y2848634D01*
X2358210Y2848734D02*
X2353130Y2858894D01*
X2363290D01*
X2358210Y2848734D01*
X2294710Y2823334D02*
X2289630Y2833494D01*
X2299790D01*
X2294710Y2823334D01*
X2674917Y2823234D02*
X2669837Y2833394D01*
X2679997D01*
X2674917Y2823234D01*
X2738417Y2848634D02*
X2733337Y2858794D01*
X2743497D01*
X2738417Y2848634D01*
X2865027Y2823234D02*
X2859947Y2833394D01*
X2870107D01*
X2865027Y2823234D01*
X2928527Y2848634D02*
X2923447Y2858794D01*
X2933607D01*
X2928527Y2848634D01*
X3055134Y2823234D02*
X3050054Y2833394D01*
X3060214D01*
X3055134Y2823234D01*
X3118634Y2848634D02*
X3113554Y2858794D01*
X3123714D01*
X3118634Y2848634D01*
X3308230D02*
X3303150Y2858794D01*
X3313311D01*
X3308230Y2848634D01*
X3244731Y2823234D02*
X3239650Y2833394D01*
X3249810D01*
X3244731Y2823234D01*
X3434840D02*
X3429760Y2833394D01*
X3439920D01*
X3434840Y2823234D01*
X3498340Y2848634D02*
X3493260Y2858794D01*
X3503420D01*
X3498340Y2848634D01*
X3782894D02*
X3777814Y2858794D01*
X3787974D01*
X3782894Y2848634D01*
X3719394Y2823234D02*
X3714314Y2833394D01*
X3724474D01*
X3719394Y2823234D01*
X1202067Y2632734D02*
X1196987Y2642894D01*
X1207147D01*
X1202067Y2632734D01*
X1265567Y2658134D02*
X1260487Y2668294D01*
X1270647D01*
X1265567Y2658134D01*
X1503500Y2658048D02*
X1498420Y2668208D01*
X1508580D01*
X1503500Y2658048D01*
X1440000Y2632648D02*
X1434920Y2642808D01*
X1445080D01*
X1440000Y2632648D01*
X1629604Y2632734D02*
X1624524Y2642894D01*
X1634684D01*
X1629604Y2632734D01*
X1693104Y2658134D02*
X1688024Y2668294D01*
X1698184D01*
X1693104Y2658134D01*
X1883214D02*
X1878134Y2668294D01*
X1888294D01*
X1883214Y2658134D01*
X1819714Y2632734D02*
X1814634Y2642894D01*
X1824794D01*
X1819714Y2632734D01*
X2073477Y2658134D02*
X2068397Y2668294D01*
X2078557D01*
X2073477Y2658134D01*
X2009977Y2632734D02*
X2004897Y2642894D01*
X2015057D01*
X2009977Y2632734D01*
X2263587Y2658134D02*
X2258507Y2668294D01*
X2268667D01*
X2263587Y2658134D01*
X2200087Y2632734D02*
X2195007Y2642894D01*
X2205167D01*
X2200087Y2632734D01*
X2389680D02*
X2384600Y2642894D01*
X2394760D01*
X2389680Y2632734D01*
X2453180Y2658134D02*
X2448100Y2668294D01*
X2458260D01*
X2453180Y2658134D01*
X2643290D02*
X2638210Y2668294D01*
X2648370D01*
X2643290Y2658134D01*
X2579790Y2632734D02*
X2574710Y2642894D01*
X2584870D01*
X2579790Y2632734D01*
X2769577D02*
X2764497Y2642894D01*
X2774657D01*
X2769577Y2632734D01*
X2833077Y2658134D02*
X2827997Y2668294D01*
X2838157D01*
X2833077Y2658134D01*
X3023394D02*
X3018314Y2668294D01*
X3028474D01*
X3023394Y2658134D01*
X2959894Y2632734D02*
X2954814Y2642894D01*
X2964974D01*
X2959894Y2632734D01*
X3149784D02*
X3144704Y2642894D01*
X3154864D01*
X3149784Y2632734D01*
X3213284Y2658134D02*
X3208204Y2668294D01*
X3218364D01*
X3213284Y2658134D01*
X3403394D02*
X3398314Y2668294D01*
X3408474D01*
X3403394Y2658134D01*
X3339894Y2632734D02*
X3334814Y2642894D01*
X3344974D01*
X3339894Y2632734D01*
X3530004D02*
X3524924Y2642894D01*
X3535084D01*
X3530004Y2632734D01*
X3593504Y2658134D02*
X3588424Y2668294D01*
X3598584D01*
X3593504Y2658134D01*
X3767627Y2632734D02*
X3762547Y2642894D01*
X3772707D01*
X3767627Y2632734D01*
X3831127Y2658134D02*
X3826047Y2668294D01*
X3836207D01*
X3831127Y2658134D01*
X3648587Y2253334D02*
X3643507Y2263494D01*
X3653667D01*
X3648587Y2253334D01*
X3712087Y2278734D02*
X3707007Y2288894D01*
X3717167D01*
X3712087Y2278734D01*
X1289067Y2468834D02*
X1283987Y2478994D01*
X1294147D01*
X1289067Y2468834D01*
X1225567Y2443434D02*
X1220487Y2453594D01*
X1230647D01*
X1225567Y2443434D01*
X1486930D02*
X1481850Y2453594D01*
X1492010D01*
X1486930Y2443434D01*
X1550430Y2468834D02*
X1545350Y2478994D01*
X1555510D01*
X1550430Y2468834D01*
X1740807D02*
X1735727Y2478994D01*
X1745887D01*
X1740807Y2468834D01*
X1677307Y2443434D02*
X1672227Y2453594D01*
X1682387D01*
X1677307Y2443434D01*
X1867684D02*
X1862604Y2453594D01*
X1872764D01*
X1867684Y2443434D01*
X1931184Y2468834D02*
X1926104Y2478994D01*
X1936264D01*
X1931184Y2468834D01*
X2120834D02*
X2115754Y2478994D01*
X2125914D01*
X2120834Y2468834D01*
X2057334Y2443434D02*
X2052254Y2453594D01*
X2062414D01*
X2057334Y2443434D01*
X2310620Y2468834D02*
X2305540Y2478994D01*
X2315700D01*
X2310620Y2468834D01*
X2247120Y2443434D02*
X2242040Y2453594D01*
X2252200D01*
X2247120Y2443434D01*
X2500997Y2468834D02*
X2495917Y2478994D01*
X2506077D01*
X2500997Y2468834D01*
X2437497Y2443434D02*
X2432417Y2453594D01*
X2442577D01*
X2437497Y2443434D01*
X2690567Y2468834D02*
X2685487Y2478994D01*
X2695647D01*
X2690567Y2468834D01*
X2627067Y2443434D02*
X2621987Y2453594D01*
X2632147D01*
X2627067Y2443434D01*
X2880944Y2468834D02*
X2875864Y2478994D01*
X2886024D01*
X2880944Y2468834D01*
X2817444Y2443434D02*
X2812364Y2453594D01*
X2822524D01*
X2817444Y2443434D01*
X3007727D02*
X3002647Y2453594D01*
X3012807D01*
X3007727Y2443434D01*
X3071227Y2468834D02*
X3066147Y2478994D01*
X3076307D01*
X3071227Y2468834D01*
X3260820D02*
X3255740Y2478994D01*
X3265900D01*
X3260820Y2468834D01*
X3197320Y2443434D02*
X3192240Y2453594D01*
X3202401D01*
X3197320Y2443434D01*
X3387430D02*
X3382350Y2453594D01*
X3392510D01*
X3387430Y2443434D01*
X3450930Y2468834D02*
X3445851Y2478994D01*
X3456010D01*
X3450930Y2468834D01*
X3696070Y2443434D02*
X3690990Y2453594D01*
X3701151D01*
X3696070Y2443434D01*
X3759570Y2468834D02*
X3754490Y2478994D01*
X3764650D01*
X3759570Y2468834D01*
X1273457Y2253334D02*
X1268377Y2263494D01*
X1278537D01*
X1273457Y2253334D01*
X1336957Y2278734D02*
X1331877Y2288894D01*
X1342037D01*
X1336957Y2278734D01*
X1645757D02*
X1640677Y2288894D01*
X1650837D01*
X1645757Y2278734D01*
X1582257Y2253334D02*
X1577177Y2263494D01*
X1587337D01*
X1582257Y2253334D01*
X1772367D02*
X1767287Y2263494D01*
X1777447D01*
X1772367Y2253334D01*
X1835867Y2278734D02*
X1830787Y2288894D01*
X1840947D01*
X1835867Y2278734D01*
X2025977D02*
X2020897Y2288894D01*
X2031057D01*
X2025977Y2278734D01*
X1962477Y2253334D02*
X1957397Y2263494D01*
X1967557D01*
X1962477Y2253334D01*
X2152070D02*
X2146990Y2263494D01*
X2157150D01*
X2152070Y2253334D01*
X2215570Y2278734D02*
X2210490Y2288894D01*
X2220650D01*
X2215570Y2278734D01*
X2405680D02*
X2400600Y2288894D01*
X2410760D01*
X2405680Y2278734D01*
X2342180Y2253334D02*
X2337100Y2263494D01*
X2347260D01*
X2342180Y2253334D01*
X2532290D02*
X2527210Y2263494D01*
X2537370D01*
X2532290Y2253334D01*
X2595790Y2278734D02*
X2590710Y2288894D01*
X2600870D01*
X2595790Y2278734D01*
X2785970D02*
X2780891Y2288894D01*
X2791050D01*
X2785970Y2278734D01*
X2722470Y2253334D02*
X2717390Y2263494D01*
X2727550D01*
X2722470Y2253334D01*
X2912064D02*
X2906984Y2263494D01*
X2917144D01*
X2912064Y2253334D01*
X2975564Y2278734D02*
X2970484Y2288894D01*
X2980644D01*
X2975564Y2278734D01*
X3102424Y2253334D02*
X3097344Y2263494D01*
X3107504D01*
X3102424Y2253334D01*
X3165924Y2278734D02*
X3160844Y2288894D01*
X3171004D01*
X3165924Y2278734D01*
X3355494D02*
X3350414Y2288894D01*
X3360574D01*
X3355494Y2278734D01*
X3291994Y2253334D02*
X3286914Y2263494D01*
X3297074D01*
X3291994Y2253334D01*
X1242210Y2088734D02*
X1237130Y2098894D01*
X1247290D01*
X1242210Y2088734D01*
X1178710Y2063334D02*
X1173630Y2073494D01*
X1183790D01*
X1178710Y2063334D01*
X1653290D02*
X1648210Y2073494D01*
X1658370D01*
X1653290Y2063334D01*
X1716790Y2088734D02*
X1711710Y2098894D01*
X1721870D01*
X1716790Y2088734D01*
X2429914D02*
X2424834Y2098894D01*
X2434994D01*
X2429914Y2088734D01*
X2366414Y2063334D02*
X2361334Y2073494D01*
X2371494D01*
X2366414Y2063334D01*
X3141947Y2088734D02*
X3136867Y2098894D01*
X3147027D01*
X3141947Y2088734D01*
X3078447Y2063334D02*
X3073367Y2073494D01*
X3083527D01*
X3078447Y2063334D01*
X3315970D02*
X3310891Y2073494D01*
X3321050D01*
X3315970Y2063334D01*
X3379471Y2088734D02*
X3374390Y2098894D01*
X3384550D01*
X3379471Y2088734D01*
X3616260D02*
X3611180Y2098894D01*
X3621340D01*
X3616260Y2088734D01*
X3552760Y2063334D02*
X3547680Y2073494D01*
X3557840D01*
X3552760Y2063334D01*
X3791277D02*
X3786197Y2073494D01*
X3796357D01*
X3791277Y2063334D01*
X3854777Y2088734D02*
X3849697Y2098894D01*
X3859857D01*
X3854777Y2088734D01*
X2432610Y2248534D02*
X2435150Y2251074D01*
X2437690D01*
X2435150Y2253614D01*
X2437690Y2256154D01*
X2435150D01*
X2432610Y2258694D01*
X2430070Y2256154D01*
X2427530D01*
X2430070Y2253614D01*
X2427530Y2251074D01*
X2430070D01*
X2432610Y2248534D01*
X2502610D02*
X2505150Y2251074D01*
X2507690D01*
X2505150Y2253614D01*
X2507690Y2256154D01*
X2505150D01*
X2502610Y2258694D01*
X2500070Y2256154D01*
X2497530D01*
X2500070Y2253614D01*
X2497530Y2251074D01*
X2500070D01*
X2502610Y2248534D01*
X2576004Y2906150D02*
X2578544Y2911230D01*
X2576004Y2916310D01*
X2581084Y2913770D01*
X2586164Y2916310D01*
X2583624Y2911230D01*
X2586164Y2906150D01*
X2581084Y2908690D01*
X2576004Y2906150D01*
X2634004D02*
X2636544Y2911230D01*
X2634004Y2916310D01*
X2639084Y2913770D01*
X2644164Y2916310D01*
X2641624Y2911230D01*
X2644164Y2906150D01*
X2639084Y2908690D01*
X2634004Y2906150D01*
X2078530Y2782384D02*
Y2792544D01*
X2088690D01*
Y2782384D01*
X2078530D01*
Y2762384D02*
Y2772544D01*
X2088690D01*
Y2762384D01*
X2078530D01*
X1796073Y2153021D02*
Y2150481D01*
X1801153D01*
Y2153021D01*
X1803693D01*
Y2158101D01*
X1801153D01*
Y2160641D01*
X1796073D01*
Y2158101D01*
X1793533D01*
Y2153021D01*
X1796073D01*
X2247974Y2097216D02*
X2250514D01*
X2253054Y2099756D01*
X2255594Y2097216D01*
X2258134D01*
Y2099756D01*
X2255594Y2102296D01*
X2258134Y2104836D01*
Y2107376D01*
X2255594D01*
X2253054Y2104836D01*
X2250514Y2107376D01*
X2247974D01*
Y2104836D01*
X2250514Y2102296D01*
X2247974Y2099756D01*
Y2097216D01*
X2284042Y2097470D02*
X2286582D01*
X2289122Y2100010D01*
X2291662Y2097470D01*
X2294202D01*
Y2100010D01*
X2291662Y2102550D01*
X2294202Y2105090D01*
Y2107630D01*
X2291662D01*
X2289122Y2105090D01*
X2286582Y2107630D01*
X2284042D01*
Y2105090D01*
X2286582Y2102550D01*
X2284042Y2100010D01*
Y2097470D01*
X2273280Y2927214D02*
X2278360Y2932294D01*
X2283440Y2927214D01*
X2278360Y2922134D01*
X2273280Y2927214D01*
X2185530Y2915714D02*
X2190610Y2920794D01*
X2195690Y2915714D01*
X2190610Y2910634D01*
X2185530Y2915714D01*
X2807530Y2823464D02*
X2812610Y2828544D01*
X2817690Y2823464D01*
X2812610Y2818384D01*
X2807530Y2823464D01*
X2783030Y2834714D02*
X2788110Y2839794D01*
X2793190Y2834714D01*
X2788110Y2829634D01*
X2783030Y2834714D01*
X2711780Y2810214D02*
X2716860Y2815294D01*
X2721940Y2810214D01*
X2716860Y2805134D01*
X2711780Y2810214D01*
X2217030Y2261214D02*
X2222110Y2266294D01*
X2227190Y2261214D01*
X2222110Y2256134D01*
X2217030Y2261214D01*
X2334886Y2234964D02*
X2339966Y2240044D01*
X2345046Y2234964D01*
X2339966Y2229884D01*
X2334886Y2234964D01*
X2269780D02*
X2274860Y2240044D01*
X2279940Y2234964D01*
X2274860Y2229884D01*
X2269780Y2234964D01*
X2175735Y2247874D02*
X2180815Y2252954D01*
X2185895Y2247874D01*
X2180815Y2242794D01*
X2175735Y2247874D01*
X2777520Y2115124D02*
X2782600Y2120204D01*
X2787680Y2115124D01*
X2782600Y2110044D01*
X2777520Y2115124D01*
X2822520Y2114874D02*
X2827600Y2119954D01*
X2832680Y2114874D01*
X2827600Y2109794D01*
X2822520Y2114874D01*
X2859734Y2115124D02*
X2864814Y2120204D01*
X2869894Y2115124D01*
X2864814Y2110044D01*
X2859734Y2115124D01*
X2859520Y2160842D02*
X2864601Y2165922D01*
X2869680Y2160842D01*
X2864601Y2155762D01*
X2859520Y2160842D01*
X2812020D02*
X2817101Y2165922D01*
X2822180Y2160842D01*
X2817101Y2155762D01*
X2812020Y2160842D01*
X2777271D02*
X2782350Y2165922D01*
X2787430Y2160842D01*
X2782350Y2155762D01*
X2777271Y2160842D01*
X2709734Y2134124D02*
X2714814Y2139204D01*
X2719894Y2134124D01*
X2714814Y2129044D01*
X2709734Y2134124D01*
Y2165124D02*
X2714814Y2170204D01*
X2719894Y2165124D01*
X2714814Y2160044D01*
X2709734Y2165124D01*
X2687770Y2262841D02*
X2692850Y2267921D01*
X2697930Y2262841D01*
X2692850Y2257761D01*
X2687770Y2262841D01*
X2663270D02*
X2668351Y2267921D01*
X2673430Y2262841D01*
X2668351Y2257761D01*
X2663270Y2262841D01*
X2637734Y2263874D02*
X2642814Y2268954D01*
X2647894Y2263874D01*
X2642814Y2258794D01*
X2637734Y2263874D01*
X2486770Y2094842D02*
X2491850Y2099922D01*
X2496930Y2094842D01*
X2491850Y2089762D01*
X2486770Y2094842D01*
X2461520Y2079374D02*
X2466600Y2084454D01*
X2471680Y2079374D01*
X2466600Y2074294D01*
X2461520Y2079374D01*
X2104020Y2142842D02*
X2109100Y2147922D01*
X2114180Y2142842D01*
X2109100Y2137762D01*
X2104020Y2142842D01*
X2081770D02*
X2086850Y2147922D01*
X2091930Y2142842D01*
X2086850Y2137762D01*
X2081770Y2142842D01*
X2104520Y2106842D02*
X2109600Y2111922D01*
X2114680Y2106842D01*
X2109600Y2101762D01*
X2104520Y2106842D01*
X2083020D02*
X2088100Y2111922D01*
X2093180Y2106842D01*
X2088100Y2101762D01*
X2083020Y2106842D01*
X2064770D02*
X2069850Y2111922D01*
X2074930Y2106842D01*
X2069850Y2101762D01*
X2064770Y2106842D01*
X3222520Y2846374D02*
X3227600Y2851454D01*
X3232680Y2846374D01*
X3227600Y2841294D01*
X3222520Y2846374D01*
X3261429Y2660874D02*
X3266508Y2665954D01*
X3271588Y2660874D01*
X3266508Y2655794D01*
X3261429Y2660874D01*
X3309435Y2472124D02*
X3314514Y2477204D01*
X3319594Y2472124D01*
X3314514Y2467044D01*
X3309435Y2472124D01*
X3214438Y2313874D02*
X3219518Y2318954D01*
X3224598Y2313874D01*
X3219518Y2308794D01*
X3214438Y2313874D01*
X3865656Y2237510D02*
X3870736Y2242590D01*
X3875816Y2237510D01*
X3870736Y2232430D01*
X3865656Y2237510D01*
X3850020Y2162714D02*
X3855100Y2167794D01*
X3860180Y2162714D01*
X3855100Y2157634D01*
X3850020Y2162714D01*
X2521405Y2105624D02*
X2526485Y2110704D01*
X2531564Y2105624D01*
X2526485Y2100544D01*
X2521405Y2105624D01*
X2497904Y2088508D02*
X2502984Y2093588D01*
X2508064Y2088508D01*
X2502984Y2083428D01*
X2497904Y2088508D01*
X2781520Y2066124D02*
X2786600Y2071204D01*
X2791680Y2066124D01*
X2786600Y2061044D01*
X2781520Y2066124D01*
X2754020Y2058874D02*
X2759100Y2063954D01*
X2764180Y2058874D01*
X2759100Y2053794D01*
X2754020Y2058874D01*
X2583734Y2114124D02*
X2588814Y2119204D01*
X2593894Y2114124D01*
X2588814Y2109044D01*
X2583734Y2114124D01*
Y2143374D02*
X2588814Y2148454D01*
X2593894Y2143374D01*
X2588814Y2138294D01*
X2583734Y2143374D01*
X2690270Y2161124D02*
X2695350Y2166204D01*
X2700430Y2161124D01*
X2695350Y2156044D01*
X2690270Y2161124D01*
X2661021Y2151749D02*
X2666100Y2156829D01*
X2671180Y2151749D01*
X2666100Y2146669D01*
X2661021Y2151749D01*
Y2118624D02*
X2666100Y2123704D01*
X2671180Y2118624D01*
X2666100Y2113544D01*
X2661021Y2118624D01*
X2681770Y2091124D02*
X2686850Y2096204D01*
X2691931Y2091124D01*
X2686850Y2086044D01*
X2681770Y2091124D01*
Y2132124D02*
X2686850Y2137204D01*
X2691931Y2132124D01*
X2686850Y2127044D01*
X2681770Y2132124D01*
X2690270Y2125124D02*
X2695350Y2130204D01*
X2700430Y2125124D01*
X2695350Y2120044D01*
X2690270Y2125124D01*
X2727770Y2154374D02*
X2732850Y2159454D01*
X2737930Y2154374D01*
X2732850Y2149294D01*
X2727770Y2154374D01*
X2718521Y2112124D02*
X2723600Y2117204D01*
X2728680Y2112124D01*
X2723600Y2107044D01*
X2718521Y2112124D01*
X2727770Y2105124D02*
X2732850Y2110204D01*
X2737930Y2105124D01*
X2732850Y2100044D01*
X2727770Y2105124D01*
X2709771Y2098624D02*
X2714850Y2103704D01*
X2719930Y2098624D01*
X2714850Y2093544D01*
X2709771Y2098624D01*
X1941770Y2099374D02*
X1946850Y2104454D01*
X1951930Y2099374D01*
X1946850Y2094294D01*
X1941770Y2099374D01*
X2147530Y2234267D02*
X2152610Y2239347D01*
X2157690Y2234267D01*
X2152610Y2229187D01*
X2147530Y2234267D01*
X2159520Y2233124D02*
X2164600Y2238204D01*
X2169680Y2233124D01*
X2164600Y2228044D01*
X2159520Y2233124D01*
X1989770Y2180874D02*
X1994850Y2185954D01*
X1999930Y2180874D01*
X1994850Y2175794D01*
X1989770Y2180874D01*
X1996770Y2188124D02*
X2001850Y2193204D01*
X2006930Y2188124D01*
X2001850Y2183044D01*
X1996770Y2188124D01*
X2217020Y2105374D02*
X2222100Y2110454D01*
X2227180Y2105374D01*
X2222100Y2100294D01*
X2217020Y2105374D01*
X2223020Y2112374D02*
X2228100Y2117454D01*
X2233180Y2112374D01*
X2228100Y2107294D01*
X2223020Y2112374D01*
X2186964Y2159180D02*
X2192044Y2164260D01*
X2197124Y2159180D01*
X2192044Y2154100D01*
X2186964Y2159180D01*
X2325520Y2206624D02*
X2330600Y2211704D01*
X2335680Y2206624D01*
X2330600Y2201544D01*
X2325520Y2206624D01*
X2229520Y2141874D02*
X2234600Y2146954D01*
X2239680Y2141874D01*
X2234600Y2136794D01*
X2229520Y2141874D01*
X2277520D02*
X2282600Y2146954D01*
X2287680Y2141874D01*
X2282600Y2136794D01*
X2277520Y2141874D01*
X2224020Y2148374D02*
X2229100Y2153454D01*
X2234180Y2148374D01*
X2229100Y2143294D01*
X2224020Y2148374D01*
X2284020D02*
X2289100Y2153454D01*
X2294180Y2148374D01*
X2289100Y2143294D01*
X2284020Y2148374D01*
X2257770Y2155124D02*
X2262850Y2160204D01*
X2267930Y2155124D01*
X2262850Y2150044D01*
X2257770Y2155124D01*
X2203270D02*
X2208350Y2160204D01*
X2213430Y2155124D01*
X2208350Y2150044D01*
X2203270Y2155124D01*
X2196770Y2161624D02*
X2201850Y2166704D01*
X2206930Y2161624D01*
X2201850Y2156544D01*
X2196770Y2161624D01*
X2264520D02*
X2269600Y2166704D01*
X2274680Y2161624D01*
X2269600Y2156544D01*
X2264520Y2161624D01*
X1502270Y2832374D02*
X1507350Y2837454D01*
X1512430Y2832374D01*
X1507350Y2827294D01*
X1502270Y2832374D01*
X3351196Y2328841D02*
X3356276Y2333921D01*
X3361356Y2328841D01*
X3356276Y2323761D01*
X3351196Y2328841D01*
X3359368Y2324133D02*
X3364448Y2329212D01*
X3369528Y2324133D01*
X3364448Y2319052D01*
X3359368Y2324133D01*
X3340444Y2329939D02*
X3345524Y2335019D01*
X3350604Y2329939D01*
X3345524Y2324859D01*
X3340444Y2329939D01*
X2070182Y2700458D02*
X2075262Y2705539D01*
X2080342Y2700458D01*
X2075262Y2695378D01*
X2070182Y2700458D01*
X2068247Y2715297D02*
X2073327Y2720377D01*
X2078407Y2715297D01*
X2073327Y2710216D01*
X2068247Y2715297D01*
X2673272Y2694545D02*
X2678352Y2699625D01*
X2683432Y2694545D01*
X2678352Y2689465D01*
X2673272Y2694545D01*
X2673164Y2716909D02*
X2678244Y2721989D01*
X2683324Y2716909D01*
X2678244Y2711829D01*
X2673164Y2716909D01*
X2440702Y2926362D02*
X2445782Y2931442D01*
X2450862Y2926362D01*
X2445782Y2921282D01*
X2440702Y2926362D01*
X2420918Y2934103D02*
X2425998Y2939183D01*
X2431078Y2934103D01*
X2425998Y2929023D01*
X2420918Y2934103D01*
X2402532Y2933888D02*
X2407612Y2938968D01*
X2412692Y2933888D01*
X2407612Y2928808D01*
X2402532Y2933888D01*
X1859762Y2930233D02*
X1864842Y2935312D01*
X1869922Y2930233D01*
X1864842Y2925152D01*
X1859762Y2930233D01*
X1834979Y2929534D02*
X1840059Y2934614D01*
X1845139Y2929534D01*
X1840059Y2924454D01*
X1834979Y2929534D01*
X2133166Y2827212D02*
X2138246Y2832292D01*
X2143326Y2827212D01*
X2138246Y2822132D01*
X2133166Y2827212D01*
X1874594Y2137348D02*
X1879674Y2142428D01*
X1884754Y2137348D01*
X1879674Y2132268D01*
X1874594Y2137348D01*
X1889326Y2171638D02*
X1894406Y2176718D01*
X1899486Y2171638D01*
X1894406Y2166558D01*
X1889326Y2171638D01*
X1901010Y2787334D02*
X1906090Y2792414D01*
X1911170Y2787334D01*
X1906090Y2782254D01*
X1901010Y2787334D01*
X3834713Y2721548D02*
X3839792Y2726628D01*
X3844872Y2721548D01*
X3839792Y2716468D01*
X3834713Y2721548D01*
X3741241Y2766506D02*
X3746320Y2771586D01*
X3751400Y2766506D01*
X3746320Y2761426D01*
X3741241Y2766506D01*
X3842584Y2731964D02*
X3847664Y2737044D01*
X3852744Y2731964D01*
X3847664Y2726884D01*
X3842584Y2731964D01*
X3840808Y2766506D02*
X3845888Y2771586D01*
X3850968Y2766506D01*
X3845888Y2761426D01*
X3840808Y2766506D01*
X3843602Y2783016D02*
X3848682Y2788096D01*
X3853763Y2783016D01*
X3848682Y2777936D01*
X3843602Y2783016D01*
X3654626Y2439354D02*
X3659706Y2444434D01*
X3664786Y2439354D01*
X3659706Y2434274D01*
X3654626Y2439354D01*
X3610430D02*
X3615510Y2444434D01*
X3620591Y2439354D01*
X3615510Y2434274D01*
X3610430Y2439354D01*
X3502480Y2509458D02*
X3507560Y2514538D01*
X3512640Y2509458D01*
X3507560Y2504378D01*
X3502480Y2509458D01*
X3637101Y2583118D02*
X3642180Y2588198D01*
X3647260Y2583118D01*
X3642180Y2578038D01*
X3637101Y2583118D01*
X3543882Y2574228D02*
X3548962Y2579308D01*
X3554042Y2574228D01*
X3548962Y2569148D01*
X3543882Y2574228D01*
X3555566Y2594548D02*
X3560646Y2599628D01*
X3565726Y2594548D01*
X3560646Y2589468D01*
X3555566Y2594548D01*
X3687646Y2879282D02*
X3692726Y2884362D01*
X3697806Y2879282D01*
X3692726Y2874202D01*
X3687646Y2879282D01*
Y2857438D02*
X3692726Y2862518D01*
X3697806Y2857438D01*
X3692726Y2852358D01*
X3687646Y2857438D01*
X3778578Y2832546D02*
X3783658Y2837626D01*
X3788738Y2832546D01*
X3783658Y2827466D01*
X3778578Y2832546D01*
X3845354Y2221676D02*
X3850434Y2226756D01*
X3855515Y2221676D01*
X3850434Y2216596D01*
X3845354Y2221676D01*
Y2224964D02*
X3850434Y2230044D01*
X3855515Y2224964D01*
X3850434Y2219884D01*
X3845354Y2224964D01*
X3656913Y2430972D02*
X3661992Y2436052D01*
X3667072Y2430972D01*
X3661992Y2425892D01*
X3656913Y2430972D01*
X3664024Y2424114D02*
X3669104Y2429194D01*
X3674184Y2424114D01*
X3669104Y2419034D01*
X3664024Y2424114D01*
X3671644Y2417510D02*
X3676725Y2422590D01*
X3681805Y2417510D01*
X3676725Y2412430D01*
X3671644Y2417510D01*
X3754702Y2582864D02*
X3759782Y2587944D01*
X3764862Y2582864D01*
X3759782Y2577784D01*
X3754702Y2582864D01*
X3744543Y2574482D02*
X3749622Y2579562D01*
X3754702Y2574482D01*
X3749622Y2569402D01*
X3744543Y2574482D01*
X3722191Y2653984D02*
X3727271Y2659064D01*
X3732350Y2653984D01*
X3727271Y2648904D01*
X3722191Y2653984D01*
X3880432Y2451546D02*
X3885512Y2456626D01*
X3890592Y2451546D01*
X3885512Y2446466D01*
X3880432Y2451546D01*
X3887798Y2447228D02*
X3892878Y2452308D01*
X3897958Y2447228D01*
X3892878Y2442148D01*
X3887798Y2447228D01*
X3894910Y2441386D02*
X3899991Y2446466D01*
X3905070Y2441386D01*
X3899991Y2436306D01*
X3894910Y2441386D01*
X1910662Y2337246D02*
X1915742Y2342326D01*
X1920822Y2337246D01*
X1915742Y2332166D01*
X1910662Y2337246D01*
X1910916Y2368488D02*
X1915996Y2373568D01*
X1921076Y2368488D01*
X1915996Y2363408D01*
X1910916Y2368488D01*
X1910662Y2353248D02*
X1915742Y2358328D01*
X1920822Y2353248D01*
X1915742Y2348168D01*
X1910662Y2353248D01*
X1967304Y2170876D02*
X1972384Y2175956D01*
X1977464Y2170876D01*
X1972384Y2165796D01*
X1967304Y2170876D01*
X1909646Y2251140D02*
X1914726Y2256220D01*
X1919806Y2251140D01*
X1914726Y2246060D01*
X1909646Y2251140D01*
X1909900Y2299654D02*
X1914980Y2304734D01*
X1920060Y2299654D01*
X1914980Y2294574D01*
X1909900Y2299654D01*
X1964002Y2392364D02*
X1969082Y2397444D01*
X1974162Y2392364D01*
X1969082Y2387284D01*
X1964002Y2392364D01*
X2547186Y2519872D02*
X2552266Y2524952D01*
X2557346Y2519872D01*
X2552266Y2514792D01*
X2547186Y2519872D01*
X2557092Y2519364D02*
X2562173Y2524444D01*
X2567253Y2519364D01*
X2562173Y2514284D01*
X2557092Y2519364D01*
X2572840Y2519618D02*
X2577921Y2524698D01*
X2583000Y2519618D01*
X2577921Y2514538D01*
X2572840Y2519618D01*
X2591129Y2518602D02*
X2596208Y2523682D01*
X2601288Y2518602D01*
X2596208Y2513522D01*
X2591129Y2518602D01*
X2591636Y2505648D02*
X2596716Y2510728D01*
X2601796Y2505648D01*
X2596716Y2500568D01*
X2591636Y2505648D01*
Y2488376D02*
X2596716Y2493456D01*
X2601796Y2488376D01*
X2596716Y2483296D01*
X2591636Y2488376D01*
X2591890Y2472374D02*
X2596971Y2477454D01*
X2602050Y2472374D01*
X2596971Y2467294D01*
X2591890Y2472374D01*
Y2457642D02*
X2596971Y2462722D01*
X2602050Y2457642D01*
X2596971Y2452562D01*
X2591890Y2457642D01*
X2578936Y2458150D02*
X2584016Y2463230D01*
X2589096Y2458150D01*
X2584016Y2453070D01*
X2578936Y2458150D01*
X2562173Y2458404D02*
X2567253Y2463484D01*
X2572332Y2458404D01*
X2567253Y2453324D01*
X2562173Y2458404D01*
X2542868Y2458912D02*
X2547948Y2463992D01*
X2553028Y2458912D01*
X2547948Y2453832D01*
X2542868Y2458912D01*
Y2475930D02*
X2547948Y2481010D01*
X2553028Y2475930D01*
X2547948Y2470850D01*
X2542868Y2475930D01*
X2542614Y2496504D02*
X2547694Y2501584D01*
X2552774Y2496504D01*
X2547694Y2491424D01*
X2542614Y2496504D01*
X2542868Y2515046D02*
X2547948Y2520126D01*
X2553028Y2515046D01*
X2547948Y2509966D01*
X2542868Y2515046D01*
X1779344Y2446212D02*
X1784424Y2451292D01*
X1789504Y2446212D01*
X1784424Y2441132D01*
X1779344Y2446212D01*
X1832684Y2431480D02*
X1837764Y2436560D01*
X1842844Y2431480D01*
X1837764Y2426400D01*
X1832684Y2431480D01*
X1843098Y2321498D02*
X1848178Y2326578D01*
X1853258Y2321498D01*
X1848178Y2316418D01*
X1843098Y2321498D01*
X1914980Y2321752D02*
X1920060Y2326832D01*
X1925140Y2321752D01*
X1920060Y2316672D01*
X1914980Y2321752D01*
X3525340Y2197038D02*
X3530421Y2202118D01*
X3535500Y2197038D01*
X3530421Y2191958D01*
X3525340Y2197038D01*
X3287850Y2193736D02*
X3292930Y2198816D01*
X3298010Y2193736D01*
X3292930Y2188656D01*
X3287850Y2193736D01*
X3046296Y2193482D02*
X3051376Y2198562D01*
X3056456Y2193482D01*
X3051376Y2188402D01*
X3046296Y2193482D01*
X3153992Y2201864D02*
X3159072Y2206944D01*
X3164153Y2201864D01*
X3159072Y2196784D01*
X3153992Y2201864D01*
X3384879Y2202118D02*
X3389958Y2207198D01*
X3395038Y2202118D01*
X3389958Y2197038D01*
X3384879Y2202118D01*
X3621353Y2204150D02*
X3626432Y2209230D01*
X3631512Y2204150D01*
X3626432Y2199070D01*
X3621353Y2204150D01*
X3762068Y2163764D02*
X3767148Y2168844D01*
X3772228Y2163764D01*
X3767148Y2158684D01*
X3762068Y2163764D01*
X3786030Y2211176D02*
X3791111Y2216256D01*
X3796190Y2211176D01*
X3791111Y2206096D01*
X3786030Y2211176D01*
X3799153Y2252410D02*
X3804232Y2257490D01*
X3809312Y2252410D01*
X3804232Y2247330D01*
X3799153Y2252410D01*
X3542612Y2212786D02*
X3547692Y2217866D01*
X3552773Y2212786D01*
X3547692Y2207706D01*
X3542612Y2212786D01*
X3458539Y2509712D02*
X3463618Y2514792D01*
X3468698Y2509712D01*
X3463618Y2504632D01*
X3458539Y2509712D01*
X3478858Y2523936D02*
X3483938Y2529016D01*
X3489018Y2523936D01*
X3483938Y2518856D01*
X3478858Y2523936D01*
X3508576D02*
X3513656Y2529016D01*
X3518736Y2523936D01*
X3513656Y2518856D01*
X3508576Y2523936D01*
X3398087Y2217612D02*
X3403167Y2222692D01*
X3408246Y2217612D01*
X3403167Y2212532D01*
X3398087Y2217612D01*
X3491304Y2257236D02*
X3496384Y2262316D01*
X3501465Y2257236D01*
X3496384Y2252156D01*
X3491304Y2257236D01*
X3311030Y2209804D02*
X3316111Y2214884D01*
X3321190Y2209804D01*
X3316111Y2204724D01*
X3311030Y2209804D01*
X3072458Y2209738D02*
X3077538Y2214818D01*
X3082618Y2209738D01*
X3077538Y2204658D01*
X3072458Y2209738D01*
X2625280Y2241964D02*
X2630360Y2247044D01*
X2635440Y2241964D01*
X2630360Y2236884D01*
X2625280Y2241964D01*
X2631530D02*
X2636610Y2247044D01*
X2641690Y2241964D01*
X2636610Y2236884D01*
X2631530Y2241964D01*
X2637531D02*
X2642610Y2247044D01*
X2647690Y2241964D01*
X2642610Y2236884D01*
X2637531Y2241964D01*
X2432886Y2146238D02*
X2437966Y2151318D01*
X2443046Y2146238D01*
X2437966Y2141158D01*
X2432886Y2146238D01*
X2350336Y2137856D02*
X2355416Y2142936D01*
X2360496Y2137856D01*
X2355416Y2132776D01*
X2350336Y2137856D01*
X2364052Y2268412D02*
X2369132Y2273492D01*
X2374212Y2268412D01*
X2369132Y2263332D01*
X2364052Y2268412D01*
X2345256Y2204404D02*
X2350336Y2209484D01*
X2355416Y2204404D01*
X2350336Y2199324D01*
X2345256Y2204404D01*
X2421964Y2228280D02*
X2427044Y2233360D01*
X2432124Y2228280D01*
X2427044Y2223200D01*
X2421964Y2228280D01*
X2352622Y2200340D02*
X2357702Y2205420D01*
X2362782Y2200340D01*
X2357702Y2195260D01*
X2352622Y2200340D01*
X1598784Y2162714D02*
X1603864Y2167794D01*
X1608944Y2162714D01*
X1603864Y2157634D01*
X1598784Y2162714D01*
X1390694Y2162464D02*
X1395774Y2167544D01*
X1400854Y2162464D01*
X1395774Y2157384D01*
X1390694Y2162464D01*
X1406218Y2205166D02*
X1411298Y2210246D01*
X1416378Y2205166D01*
X1411298Y2200086D01*
X1406218Y2205166D01*
X1154250Y2203134D02*
X1159330Y2208214D01*
X1164410Y2203134D01*
X1159330Y2198054D01*
X1154250Y2203134D01*
X1483718Y2162464D02*
X1488798Y2167544D01*
X1493878Y2162464D01*
X1488798Y2157384D01*
X1483718Y2162464D01*
X1720196Y2162714D02*
X1725276Y2167794D01*
X1730356Y2162714D01*
X1725276Y2157634D01*
X1720196Y2162714D01*
X1647530Y2210258D02*
X1652610Y2215338D01*
X1657690Y2210258D01*
X1652610Y2205178D01*
X1647530Y2210258D01*
X2374854Y2214444D02*
X2379935Y2219524D01*
X2385014Y2214444D01*
X2379935Y2209364D01*
X2374854Y2214444D01*
X2466030Y2256517D02*
X2471110Y2261597D01*
X2476190Y2256517D01*
X2471110Y2251437D01*
X2466030Y2256517D01*
X2459030D02*
X2464110Y2261597D01*
X2469190Y2256517D01*
X2464110Y2251437D01*
X2459030Y2256517D01*
X2419932Y2331404D02*
X2425012Y2336484D01*
X2430092Y2331404D01*
X2425012Y2326324D01*
X2419932Y2331404D01*
X2509594D02*
X2514674Y2336484D01*
X2519754Y2331404D01*
X2514674Y2326324D01*
X2509594Y2331404D01*
X1248484Y2196784D02*
X1253564Y2201864D01*
X1258644Y2196784D01*
X1253564Y2191704D01*
X1248484Y2196784D01*
X1154250Y2190180D02*
X1159330Y2195260D01*
X1164410Y2190180D01*
X1159330Y2185100D01*
X1154250Y2190180D01*
X1355418Y2230312D02*
X1360498Y2235392D01*
X1365578Y2230312D01*
X1360498Y2225232D01*
X1355418Y2230312D01*
X1363546Y2239964D02*
X1368626Y2245044D01*
X1373706Y2239964D01*
X1368626Y2234884D01*
X1363546Y2239964D01*
X1560904Y2273238D02*
X1565984Y2278318D01*
X1571064Y2273238D01*
X1565984Y2268158D01*
X1560904Y2273238D01*
X1540838D02*
X1545918Y2278318D01*
X1550998Y2273238D01*
X1545918Y2268158D01*
X1540838Y2273238D01*
X1173208Y2393380D02*
X1178288Y2398460D01*
X1183368Y2393380D01*
X1178288Y2388300D01*
X1173208Y2393380D01*
X3079037Y2352714D02*
X3084117Y2357794D01*
X3089196Y2352714D01*
X3084117Y2347634D01*
X3079037Y2352714D01*
X2887774D02*
X2892855Y2357794D01*
X2897935Y2352714D01*
X2892855Y2347634D01*
X2887774Y2352714D01*
X2701898D02*
X2706978Y2357794D01*
X2712058Y2352714D01*
X2706978Y2347634D01*
X2701898Y2352714D01*
X2511398D02*
X2516478Y2357794D01*
X2521558Y2352714D01*
X2516478Y2347634D01*
X2511398Y2352714D01*
X2320592D02*
X2325672Y2357794D01*
X2330753Y2352714D01*
X2325672Y2347634D01*
X2320592Y2352714D01*
X2165424Y2393888D02*
X2170504Y2398968D01*
X2175584Y2393888D01*
X2170504Y2388808D01*
X2165424Y2393888D01*
X2130600Y2352714D02*
X2135681Y2357794D01*
X2140760Y2352714D01*
X2135681Y2347634D01*
X2130600Y2352714D01*
X1944724D02*
X1949804Y2357794D01*
X1954884Y2352714D01*
X1949804Y2347634D01*
X1944724Y2352714D01*
X1749398D02*
X1754478Y2357794D01*
X1759558Y2352714D01*
X1754478Y2347634D01*
X1749398Y2352714D01*
X1784424Y2392618D02*
X1789504Y2397698D01*
X1794584Y2392618D01*
X1789504Y2387538D01*
X1784424Y2392618D01*
X1729306Y2274762D02*
X1734386Y2279842D01*
X1739466Y2274762D01*
X1734386Y2269682D01*
X1729306Y2274762D01*
X1840025Y2352714D02*
X1845105Y2357794D01*
X1850184Y2352714D01*
X1845105Y2347634D01*
X1840025Y2352714D01*
X2029814D02*
X2034894Y2357794D01*
X2039974Y2352714D01*
X2034894Y2347634D01*
X2029814Y2352714D01*
X2218992D02*
X2224073Y2357794D01*
X2229153Y2352714D01*
X2224073Y2347634D01*
X2218992Y2352714D01*
X2404972D02*
X2410052Y2357794D01*
X2415132Y2352714D01*
X2410052Y2347634D01*
X2404972Y2352714D01*
X2600552D02*
X2605632Y2357794D01*
X2610712Y2352714D01*
X2605632Y2347634D01*
X2600552Y2352714D01*
X2782873D02*
X2787953Y2357794D01*
X2793033Y2352714D01*
X2787953Y2347634D01*
X2782873Y2352714D01*
X2979723D02*
X2984803Y2357794D01*
X2989883Y2352714D01*
X2984803Y2347634D01*
X2979723Y2352714D01*
X3170020D02*
X3175100Y2357794D01*
X3180180Y2352714D01*
X3175100Y2347634D01*
X3170020Y2352714D01*
X3358182D02*
X3363263Y2357794D01*
X3368343Y2352714D01*
X3363263Y2347634D01*
X3358182Y2352714D01*
X3269334D02*
X3274414Y2357794D01*
X3279494Y2352714D01*
X3274414Y2347634D01*
X3269334Y2352714D01*
X1883230Y2240726D02*
X1888310Y2245806D01*
X1893390Y2240726D01*
X1888310Y2235646D01*
X1883230Y2240726D01*
X1563444Y2378902D02*
X1568524Y2383982D01*
X1573604Y2378902D01*
X1568524Y2373822D01*
X1563444Y2378902D01*
X3624400Y2378140D02*
X3629480Y2383220D01*
X3634561Y2378140D01*
X3629480Y2373060D01*
X3624400Y2378140D01*
X1328494Y2343596D02*
X1333574Y2348676D01*
X1338654Y2343596D01*
X1333574Y2338516D01*
X1328494Y2343596D01*
X1454732Y2386776D02*
X1459812Y2391856D01*
X1464892Y2386776D01*
X1459812Y2381696D01*
X1454732Y2386776D01*
X1370912Y2379156D02*
X1375992Y2384236D01*
X1381072Y2379156D01*
X1375992Y2374076D01*
X1370912Y2379156D01*
X1252548Y2378902D02*
X1257628Y2383982D01*
X1262708Y2378902D01*
X1257628Y2373822D01*
X1252548Y2378902D01*
X1152402Y2351794D02*
X1157482Y2356874D01*
X1162562Y2351794D01*
X1157482Y2346714D01*
X1152402Y2351794D01*
X1824556Y2061910D02*
X1829636Y2066990D01*
X1834716Y2061910D01*
X1829636Y2056830D01*
X1824556Y2061910D01*
X1852750D02*
X1857830Y2066990D01*
X1862910Y2061910D01*
X1857830Y2056830D01*
X1852750Y2061910D01*
X1243150Y2386522D02*
X1248230Y2391602D01*
X1253310Y2386522D01*
X1248230Y2381442D01*
X1243150Y2386522D01*
X3714346Y2352964D02*
X3719426Y2358044D01*
X3724506Y2352964D01*
X3719426Y2347884D01*
X3714346Y2352964D01*
X3643280Y2392026D02*
X3648360Y2397106D01*
X3653441Y2392026D01*
X3648360Y2386946D01*
X3643280Y2392026D01*
X3741241Y2390078D02*
X3746320Y2395158D01*
X3751400Y2390078D01*
X3746320Y2384998D01*
X3741241Y2390078D01*
X3787722D02*
X3792802Y2395158D01*
X3797882Y2390078D01*
X3792802Y2384998D01*
X3787722Y2390078D01*
X2336780Y2393380D02*
X2341860Y2398460D01*
X2346940Y2393380D01*
X2341860Y2388300D01*
X2336780Y2393380D01*
X2303600Y2454464D02*
X2308680Y2459544D01*
X2313760Y2454464D01*
X2308680Y2449384D01*
X2303600Y2454464D01*
X2370910Y2405826D02*
X2375990Y2410906D01*
X2381070Y2405826D01*
X2375990Y2400746D01*
X2370910Y2405826D01*
X2377006Y2411922D02*
X2382086Y2417002D01*
X2387166Y2411922D01*
X2382086Y2406842D01*
X2377006Y2411922D01*
X2383356Y2418018D02*
X2388436Y2423098D01*
X2393516Y2418018D01*
X2388436Y2412938D01*
X2383356Y2418018D01*
X2647280Y2786964D02*
X2652361Y2792044D01*
X2657440Y2786964D01*
X2652361Y2781884D01*
X2647280Y2786964D01*
X2643781Y2790714D02*
X2648860Y2795794D01*
X2653940Y2790714D01*
X2648860Y2785634D01*
X2643781Y2790714D01*
X2635280Y2798714D02*
X2640360Y2803794D01*
X2645440Y2798714D01*
X2640360Y2793634D01*
X2635280Y2798714D01*
X2639530Y2794464D02*
X2644610Y2799544D01*
X2649691Y2794464D01*
X2644610Y2789384D01*
X2639530Y2794464D01*
X2684346Y2631124D02*
X2689426Y2636204D01*
X2694507Y2631124D01*
X2689426Y2626044D01*
X2684346Y2631124D01*
X2533724Y2625790D02*
X2538804Y2630870D01*
X2543884Y2625790D01*
X2538804Y2620710D01*
X2533724Y2625790D01*
X2552266Y2640522D02*
X2557346Y2645602D01*
X2562426Y2640522D01*
X2557346Y2635442D01*
X2552266Y2640522D01*
X2712794Y2642808D02*
X2717874Y2647888D01*
X2722954Y2642808D01*
X2717874Y2637728D01*
X2712794Y2642808D01*
X1576780Y2392492D02*
X1581860Y2397572D01*
X1586940Y2392492D01*
X1581860Y2387412D01*
X1576780Y2392492D01*
X1636088Y2535112D02*
X1641168Y2540192D01*
X1646248Y2535112D01*
X1641168Y2530032D01*
X1636088Y2535112D01*
X1607640D02*
X1612720Y2540192D01*
X1617800Y2535112D01*
X1612720Y2530032D01*
X1607640Y2535112D01*
X1462098Y2393888D02*
X1467178Y2398968D01*
X1472258Y2393888D01*
X1467178Y2388808D01*
X1462098Y2393888D01*
X1381580Y2393634D02*
X1386660Y2398714D01*
X1391740Y2393634D01*
X1386660Y2388554D01*
X1381580Y2393634D01*
X1268296D02*
X1273376Y2398714D01*
X1278456Y2393634D01*
X1273376Y2388554D01*
X1268296Y2393634D01*
X2020898Y2399984D02*
X2025978Y2405064D01*
X2031058Y2399984D01*
X2025978Y2394904D01*
X2020898Y2399984D01*
X2014040Y2405826D02*
X2019120Y2410906D01*
X2024200Y2405826D01*
X2019120Y2400746D01*
X2014040Y2405826D01*
X2008960Y2412176D02*
X2014040Y2417256D01*
X2019120Y2412176D01*
X2014040Y2407096D01*
X2008960Y2412176D01*
X2007182Y2421066D02*
X2012262Y2426146D01*
X2017342Y2421066D01*
X2012262Y2415986D01*
X2007182Y2421066D01*
X1999816Y2424368D02*
X2004896Y2429448D01*
X2009976Y2424368D01*
X2004896Y2419288D01*
X1999816Y2424368D01*
X1462005Y2542964D02*
X1467085Y2548044D01*
X1472164Y2542964D01*
X1467085Y2537884D01*
X1462005Y2542964D01*
X1652254D02*
X1657334Y2548044D01*
X1662415Y2542964D01*
X1657334Y2537884D01*
X1652254Y2542964D01*
X1842755D02*
X1847834Y2548044D01*
X1852914Y2542964D01*
X1847834Y2537884D01*
X1842755Y2542964D01*
X2032254D02*
X2037334Y2548044D01*
X2042415Y2542964D01*
X2037334Y2537884D01*
X2032254Y2542964D01*
X2221754D02*
X2226835Y2548044D01*
X2231915Y2542964D01*
X2226835Y2537884D01*
X2221754Y2542964D01*
X2412504D02*
X2417585Y2548044D01*
X2422664Y2542964D01*
X2417585Y2537884D01*
X2412504Y2542964D01*
X2602004D02*
X2607084Y2548044D01*
X2612165Y2542964D01*
X2607084Y2537884D01*
X2602004Y2542964D01*
X2792255D02*
X2797335Y2548044D01*
X2802415Y2542964D01*
X2797335Y2537884D01*
X2792255Y2542964D01*
X2982755D02*
X2987834Y2548044D01*
X2992914Y2542964D01*
X2987834Y2537884D01*
X2982755Y2542964D01*
X3172255D02*
X3177335Y2548044D01*
X3182415Y2542964D01*
X3177335Y2537884D01*
X3172255Y2542964D01*
X3362505D02*
X3367585Y2548044D01*
X3372664Y2542964D01*
X3367585Y2537884D01*
X3362505Y2542964D01*
X3682567Y2574736D02*
X3687646Y2579816D01*
X3692726Y2574736D01*
X3687646Y2569656D01*
X3682567Y2574736D01*
X1420530Y2574316D02*
X1425610Y2579396D01*
X1430690Y2574316D01*
X1425610Y2569236D01*
X1420530Y2574316D01*
X1395715Y2595908D02*
X1400795Y2600988D01*
X1405875Y2595908D01*
X1400795Y2590828D01*
X1395715Y2595908D01*
X1206084Y2542714D02*
X1211164Y2547794D01*
X1216244Y2542714D01*
X1211164Y2537634D01*
X1206084Y2542714D01*
X1294712Y2543240D02*
X1299792Y2548320D01*
X1304872Y2543240D01*
X1299792Y2538160D01*
X1294712Y2543240D01*
X3382338Y2594548D02*
X3387419Y2599628D01*
X3392498Y2594548D01*
X3387419Y2589468D01*
X3382338Y2594548D01*
X3192030Y2593848D02*
X3197110Y2598928D01*
X3202191Y2593848D01*
X3197110Y2588768D01*
X3192030Y2593848D01*
X3002608Y2594040D02*
X3007688Y2599120D01*
X3012768Y2594040D01*
X3007688Y2588960D01*
X3002608Y2594040D01*
X2812030Y2594626D02*
X2817110Y2599706D01*
X2822191Y2594626D01*
X2817110Y2589546D01*
X2812030Y2594626D01*
X2621862Y2583626D02*
X2626942Y2588706D01*
X2632022Y2583626D01*
X2626942Y2578546D01*
X2621862Y2583626D01*
X2432280Y2594196D02*
X2437360Y2599276D01*
X2442440Y2594196D01*
X2437360Y2589116D01*
X2432280Y2594196D01*
X2241530Y2594642D02*
X2246610Y2599722D01*
X2251690Y2594642D01*
X2246610Y2589562D01*
X2241530Y2594642D01*
X1862656Y2590992D02*
X1867736Y2596072D01*
X1872816Y2590992D01*
X1867736Y2585912D01*
X1862656Y2590992D01*
X1672030Y2590104D02*
X1677110Y2595184D01*
X1682190Y2590104D01*
X1677110Y2585024D01*
X1672030Y2590104D01*
X1481780Y2596450D02*
X1486860Y2601530D01*
X1491940Y2596450D01*
X1486860Y2591370D01*
X1481780Y2596450D01*
X3456578Y2543240D02*
X3461658Y2548320D01*
X3466738Y2543240D01*
X3461658Y2538160D01*
X3456578Y2543240D01*
X3266328D02*
X3271408Y2548320D01*
X3276488Y2543240D01*
X3271408Y2538160D01*
X3266328Y2543240D01*
X3076706Y2543008D02*
X3081786Y2548088D01*
X3086866Y2543008D01*
X3081786Y2537928D01*
X3076706Y2543008D01*
X2886328Y2543240D02*
X2891408Y2548320D01*
X2896488Y2543240D01*
X2891408Y2538160D01*
X2886328Y2543240D01*
X2695706Y2543008D02*
X2700786Y2548088D01*
X2705866Y2543008D01*
X2700786Y2537928D01*
X2695706Y2543008D01*
X2497381Y2542964D02*
X2502460Y2548044D01*
X2507540Y2542964D01*
X2502460Y2537884D01*
X2497381Y2542964D01*
X2315828Y2543240D02*
X2320908Y2548320D01*
X2325988Y2543240D01*
X2320908Y2538160D01*
X2315828Y2543240D01*
X2126328D02*
X2131408Y2548320D01*
X2136488Y2543240D01*
X2131408Y2538160D01*
X2126328Y2543240D01*
X1936828D02*
X1941908Y2548320D01*
X1946988Y2543240D01*
X1941908Y2538160D01*
X1936828Y2543240D01*
X1746328D02*
X1751408Y2548320D01*
X1756488Y2543240D01*
X1751408Y2538160D01*
X1746328Y2543240D01*
X1556078D02*
X1561158Y2548320D01*
X1566238Y2543240D01*
X1561158Y2538160D01*
X1556078Y2543240D01*
X1339030Y2584012D02*
X1344110Y2589092D01*
X1349190Y2584012D01*
X1344110Y2578932D01*
X1339030Y2584012D01*
X3690780Y2593872D02*
X3695860Y2598952D01*
X3700941Y2593872D01*
X3695860Y2588792D01*
X3690780Y2593872D01*
X3765370Y2542732D02*
X3770450Y2547812D01*
X3775530Y2542732D01*
X3770450Y2537652D01*
X3765370Y2542732D01*
X2052030Y2594912D02*
X2057110Y2599992D01*
X2062190Y2594912D01*
X2057110Y2589832D01*
X2052030Y2594912D01*
X3245941Y2621726D02*
X3251021Y2626806D01*
X3256100Y2621726D01*
X3251021Y2616646D01*
X3245941Y2621726D01*
X2014040Y2615884D02*
X2019120Y2620964D01*
X2024200Y2615884D01*
X2019120Y2610804D01*
X2014040Y2615884D01*
X2513912Y2643316D02*
X2518992Y2648396D01*
X2524072Y2643316D01*
X2518992Y2638236D01*
X2513912Y2643316D01*
X2129530Y2661270D02*
X2134610Y2666350D01*
X2139690Y2661270D01*
X2134610Y2656190D01*
X2129530Y2661270D01*
X1220280Y2595828D02*
X1225360Y2600908D01*
X1230440Y2595828D01*
X1225360Y2590748D01*
X1220280Y2595828D01*
X1628468Y2597596D02*
X1633548Y2602676D01*
X1638628Y2597596D01*
X1633548Y2592516D01*
X1628468Y2597596D01*
X1536012D02*
X1541092Y2602676D01*
X1546172Y2597596D01*
X1541092Y2592516D01*
X1536012Y2597596D01*
X1783916Y2599628D02*
X1788996Y2604708D01*
X1794076Y2599628D01*
X1788996Y2594548D01*
X1783916Y2599628D01*
X1769377Y2604417D02*
X1774457Y2609497D01*
X1779537Y2604417D01*
X1774457Y2599337D01*
X1769377Y2604417D01*
X2050270Y2122870D02*
X2055350Y2127950D01*
X2060430Y2122870D01*
X2055350Y2117790D01*
X2050270Y2122870D01*
X3897704Y2056576D02*
X3902784Y2061656D01*
X3907864Y2056576D01*
X3902784Y2051496D01*
X3897704Y2056576D01*
X3879417Y2176972D02*
X3884496Y2182052D01*
X3889576Y2176972D01*
X3884496Y2171892D01*
X3879417Y2176972D01*
X2048270Y2131180D02*
X2053350Y2136260D01*
X2058430Y2131180D01*
X2053350Y2126100D01*
X2048270Y2131180D01*
X3524780Y2720734D02*
X3529861Y2725814D01*
X3534940Y2720734D01*
X3529861Y2715654D01*
X3524780Y2720734D01*
X3315284Y2731964D02*
X3320364Y2737044D01*
X3325445Y2731964D01*
X3320364Y2726884D01*
X3315284Y2731964D01*
X3127578D02*
X3132658Y2737044D01*
X3137739Y2731964D01*
X3132658Y2726884D01*
X3127578Y2731964D01*
X2935804D02*
X2940884Y2737044D01*
X2945964Y2731964D01*
X2940884Y2726884D01*
X2935804Y2731964D01*
X2744038D02*
X2749119Y2737044D01*
X2754199Y2731964D01*
X2749119Y2726884D01*
X2744038Y2731964D01*
X2555824Y2732214D02*
X2560904Y2737294D01*
X2565984Y2732214D01*
X2560904Y2727134D01*
X2555824Y2732214D01*
X1609670Y2731964D02*
X1614750Y2737044D01*
X1619830Y2731964D01*
X1614750Y2726884D01*
X1609670Y2731964D01*
X1799921D02*
X1805000Y2737044D01*
X1810081Y2731964D01*
X1805000Y2726884D01*
X1799921Y2731964D01*
X2180670Y2732464D02*
X2185750Y2737544D01*
X2190830Y2732464D01*
X2185750Y2727384D01*
X2180670Y2732464D01*
X1417648Y2758632D02*
X1422728Y2763712D01*
X1427808Y2758632D01*
X1422728Y2753552D01*
X1417648Y2758632D01*
X1986610Y2732214D02*
X1991690Y2737294D01*
X1996770Y2732214D01*
X1991690Y2727134D01*
X1986610Y2732214D01*
X2180670Y2732464D02*
X2185750Y2737544D01*
X2190830Y2732464D01*
X2185750Y2727384D01*
X2180670Y2732464D01*
X2366340Y2731964D02*
X2371420Y2737044D01*
X2376501Y2731964D01*
X2371420Y2726884D01*
X2366340Y2731964D01*
X3759020Y2783111D02*
X3764100Y2788191D01*
X3769180Y2783111D01*
X3764100Y2778031D01*
X3759020Y2783111D01*
X3832839D02*
X3837920Y2788191D01*
X3843000Y2783111D01*
X3837920Y2778031D01*
X3832839Y2783111D01*
X3524280Y2778146D02*
X3529360Y2783226D01*
X3534440Y2778146D01*
X3529360Y2773066D01*
X3524280Y2778146D01*
X3334530Y2778388D02*
X3339610Y2783468D01*
X3344691Y2778388D01*
X3339610Y2773308D01*
X3334530Y2778388D01*
X3144780Y2778122D02*
X3149861Y2783202D01*
X3154940Y2778122D01*
X3149861Y2773042D01*
X3144780Y2778122D01*
X2954780Y2777860D02*
X2959861Y2782940D01*
X2964940Y2777860D01*
X2959861Y2772780D01*
X2954780Y2777860D01*
X2764280Y2777352D02*
X2769360Y2782432D01*
X2774440Y2777352D01*
X2769360Y2772272D01*
X2764280Y2777352D01*
X2572079Y2779206D02*
X2577159Y2784286D01*
X2582238Y2779206D01*
X2577159Y2774126D01*
X2572079Y2779206D01*
X2597224Y2783778D02*
X2602304Y2788858D01*
X2607384Y2783778D01*
X2602304Y2778698D01*
X2597224Y2783778D01*
X2158058Y2795716D02*
X2163138Y2800796D01*
X2168218Y2795716D01*
X2163138Y2790636D01*
X2158058Y2795716D01*
X2166694Y2802828D02*
X2171774Y2807908D01*
X2176854Y2802828D01*
X2171774Y2797748D01*
X2166694Y2802828D01*
X1994736Y2814258D02*
X1999816Y2819338D01*
X2004896Y2814258D01*
X1999816Y2809178D01*
X1994736Y2814258D01*
X2078302Y2837880D02*
X2083382Y2842960D01*
X2088462Y2837880D01*
X2083382Y2832800D01*
X2078302Y2837880D01*
X1807284Y2783016D02*
X1812364Y2788096D01*
X1817444Y2783016D01*
X1812364Y2777936D01*
X1807284Y2783016D01*
X1801442Y2788604D02*
X1806522Y2793684D01*
X1811602Y2788604D01*
X1806522Y2783524D01*
X1801442Y2788604D01*
X1178895Y2731714D02*
X1183975Y2736794D01*
X1189054Y2731714D01*
X1183975Y2726634D01*
X1178895Y2731714D01*
X3803978Y2819338D02*
X3809059Y2824418D01*
X3814138Y2819338D01*
X3809059Y2814258D01*
X3803978Y2819338D01*
X1215209Y2922714D02*
X1220288Y2927794D01*
X1225368Y2922714D01*
X1220288Y2917634D01*
X1215209Y2922714D01*
X1457272Y2254696D02*
X1462352Y2259776D01*
X1467432Y2254696D01*
X1462352Y2249616D01*
X1457272Y2254696D01*
X1357958Y2644840D02*
X1363038Y2649920D01*
X1368118Y2644840D01*
X1363038Y2639760D01*
X1357958Y2644840D01*
X1326716D02*
X1331796Y2649920D01*
X1336876Y2644840D01*
X1331796Y2639760D01*
X1326716Y2644840D01*
X1193112Y2486852D02*
X1198192Y2491932D01*
X1203272Y2486852D01*
X1198192Y2481772D01*
X1193112Y2486852D01*
X1199716Y2452816D02*
X1204796Y2457896D01*
X1209876Y2452816D01*
X1204796Y2447736D01*
X1199716Y2452816D01*
X3846277Y2906714D02*
X3851357Y2911794D01*
X3856437Y2906714D01*
X3851357Y2901634D01*
X3846277Y2906714D01*
X3847280Y2869257D02*
X3852361Y2874337D01*
X3857440Y2869257D01*
X3852361Y2864177D01*
X3847280Y2869257D01*
X3457030Y2823714D02*
X3462110Y2828794D01*
X3467191Y2823714D01*
X3462110Y2818634D01*
X3457030Y2823714D01*
X3826304Y2319146D02*
X3831384Y2324226D01*
X3836465Y2319146D01*
X3831384Y2314066D01*
X3826304Y2319146D01*
X3810031Y2327714D02*
X3815110Y2332794D01*
X3820190Y2327714D01*
X3815110Y2322634D01*
X3810031Y2327714D01*
X3842531Y2310214D02*
X3847610Y2315294D01*
X3852690Y2310214D01*
X3847610Y2305134D01*
X3842531Y2310214D01*
X3810031D02*
X3815110Y2315294D01*
X3820190Y2310214D01*
X3815110Y2305134D01*
X3810031Y2310214D01*
X3842531Y2327964D02*
X3847610Y2333044D01*
X3852690Y2327964D01*
X3847610Y2322884D01*
X3842531Y2327964D01*
X2069530Y2055714D02*
X2074610Y2060794D01*
X2079690Y2055714D01*
X2074610Y2050634D01*
X2069530Y2055714D01*
X2078530Y2061214D02*
X2083610Y2066294D01*
X2088690Y2061214D01*
X2083610Y2056134D01*
X2078530Y2061214D01*
X2952030Y2098214D02*
X2957110Y2103294D01*
X2962191Y2098214D01*
X2957110Y2093134D01*
X2952030Y2098214D01*
X2836770Y2098464D02*
X2841850Y2103544D01*
X2846931Y2098464D01*
X2841850Y2093384D01*
X2836770Y2098464D01*
X2952520Y2175124D02*
X2957600Y2180204D01*
X2962680Y2175124D01*
X2957600Y2170044D01*
X2952520Y2175124D01*
X2830020D02*
X2835100Y2180204D01*
X2840180Y2175124D01*
X2835100Y2170044D01*
X2830020Y2175124D01*
X2946770Y2182124D02*
X2951850Y2187204D01*
X2956931Y2182124D01*
X2951850Y2177044D01*
X2946770Y2182124D01*
X2836021D02*
X2841100Y2187204D01*
X2846180Y2182124D01*
X2841100Y2177044D01*
X2836021Y2182124D01*
X2551270Y2097124D02*
X2556350Y2102204D01*
X2561430Y2097124D01*
X2556350Y2092044D01*
X2551270Y2097124D01*
X2343530Y2108714D02*
X2348610Y2113794D01*
X2353690Y2108714D01*
X2348610Y2103634D01*
X2343530Y2108714D01*
X2428780Y2116464D02*
X2433860Y2121544D01*
X2438940Y2116464D01*
X2433860Y2111384D01*
X2428780Y2116464D01*
X1922280Y2742714D02*
X1927360Y2747794D01*
X1932440Y2742714D01*
X1927360Y2737634D01*
X1922280Y2742714D01*
X1937030Y2743214D02*
X1942110Y2748294D01*
X1947190Y2743214D01*
X1942110Y2738134D01*
X1937030Y2743214D01*
X1968030Y2733214D02*
X1973110Y2738294D01*
X1978190Y2733214D01*
X1973110Y2728134D01*
X1968030Y2733214D01*
X1955030Y2745214D02*
X1960110Y2750294D01*
X1965190Y2745214D01*
X1960110Y2740134D01*
X1955030Y2745214D01*
X1945206Y2727644D02*
X1950286Y2732724D01*
X1955366Y2727644D01*
X1950286Y2722564D01*
X1945206Y2727644D01*
X1811856Y2860232D02*
X1816936Y2865312D01*
X1822016Y2860232D01*
X1816936Y2855152D01*
X1811856Y2860232D01*
X1998800Y2835340D02*
X2003880Y2840420D01*
X2008960Y2835340D01*
X2003880Y2830260D01*
X1998800Y2835340D01*
X2129530Y2754464D02*
X2134610Y2759544D01*
X2139690Y2754464D01*
X2134610Y2749384D01*
X2129530Y2754464D01*
Y2765464D02*
X2134610Y2770544D01*
X2139690Y2765464D01*
X2134610Y2760384D01*
X2129530Y2765464D01*
X2123780Y2767214D02*
X2128860Y2772294D01*
X2133940Y2767214D01*
X2128860Y2762134D01*
X2123780Y2767214D01*
X2117280D02*
X2122360Y2772294D01*
X2127440Y2767214D01*
X2122360Y2762134D01*
X2117280Y2767214D01*
X2129530Y2760714D02*
X2134610Y2765794D01*
X2139690Y2760714D01*
X2134610Y2755634D01*
X2129530Y2760714D01*
X2037530Y2262464D02*
X2042610Y2267544D01*
X2047690Y2262464D01*
X2042610Y2257384D01*
X2037530Y2262464D01*
X2046530Y2243214D02*
X2051610Y2248294D01*
X2056690Y2243214D01*
X2051610Y2238134D01*
X2046530Y2243214D01*
X2046520Y2268374D02*
X2051600Y2273454D01*
X2056680Y2268374D01*
X2051600Y2263294D01*
X2046520Y2268374D01*
X2145866Y2756092D02*
X2150946Y2761172D01*
X2156026Y2756092D01*
X2150946Y2751012D01*
X2145866Y2756092D01*
X2150438Y2719008D02*
X2155518Y2724088D01*
X2160598Y2719008D01*
X2155518Y2713928D01*
X2150438Y2719008D01*
X2149780Y2700464D02*
X2154860Y2705544D01*
X2159940Y2700464D01*
X2154860Y2695384D01*
X2149780Y2700464D01*
X2149270Y2688624D02*
X2154350Y2693704D01*
X2159430Y2688624D01*
X2154350Y2683544D01*
X2149270Y2688624D01*
X2153780Y2560714D02*
X2158860Y2565794D01*
X2163940Y2560714D01*
X2158860Y2555634D01*
X2153780Y2560714D01*
X2153530Y2539214D02*
X2158610Y2544294D01*
X2163690Y2539214D01*
X2158610Y2534134D01*
X2153530Y2539214D01*
X2152551Y2513964D02*
X2157631Y2519044D01*
X2162711Y2513964D01*
X2157631Y2508884D01*
X2152551Y2513964D01*
Y2485714D02*
X2157631Y2490794D01*
X2162711Y2485714D01*
X2157631Y2480634D01*
X2152551Y2485714D01*
X2154280Y2452714D02*
X2159360Y2457794D01*
X2164440Y2452714D01*
X2159360Y2447634D01*
X2154280Y2452714D01*
X2153996Y2430841D02*
X2159076Y2435921D01*
X2164156Y2430841D01*
X2159076Y2425761D01*
X2153996Y2430841D01*
X2146551Y2410464D02*
X2151631Y2415544D01*
X2156711Y2410464D01*
X2151631Y2405384D01*
X2146551Y2410464D01*
X2615280Y2824964D02*
X2620360Y2830044D01*
X2625440Y2824964D01*
X2620360Y2819884D01*
X2615280Y2824964D01*
X2174770Y2719374D02*
X2179850Y2724454D01*
X2184930Y2719374D01*
X2179850Y2714294D01*
X2174770Y2719374D01*
X2175020Y2706624D02*
X2180100Y2711704D01*
X2185180Y2706624D01*
X2180100Y2701544D01*
X2175020Y2706624D01*
Y2691124D02*
X2180100Y2696204D01*
X2185180Y2691124D01*
X2180100Y2686044D01*
X2175020Y2691124D01*
X2176280Y2561464D02*
X2181360Y2566544D01*
X2186440Y2561464D01*
X2181360Y2556384D01*
X2176280Y2561464D01*
X2176551Y2542464D02*
X2181631Y2547544D01*
X2186711Y2542464D01*
X2181631Y2537384D01*
X2176551Y2542464D01*
Y2514214D02*
X2181631Y2519294D01*
X2186711Y2514214D01*
X2181631Y2509134D01*
X2176551Y2514214D01*
Y2485464D02*
X2181631Y2490544D01*
X2186711Y2485464D01*
X2181631Y2480384D01*
X2176551Y2485464D01*
Y2455964D02*
X2181631Y2461044D01*
X2186711Y2455964D01*
X2181631Y2450884D01*
X2176551Y2455964D01*
Y2434214D02*
X2181631Y2439294D01*
X2186711Y2434214D01*
X2181631Y2429134D01*
X2176551Y2434214D01*
X2178530Y2409232D02*
X2183610Y2414312D01*
X2188690Y2409232D01*
X2183610Y2404152D01*
X2178530Y2409232D01*
X2202762Y2413700D02*
X2207842Y2418780D01*
X2212922Y2413700D01*
X2207842Y2408620D01*
X2202762Y2413700D01*
X2049270Y2299124D02*
X2054350Y2304204D01*
X2059430Y2299124D01*
X2054350Y2294044D01*
X2049270Y2299124D01*
X2062270Y2316374D02*
X2067350Y2321454D01*
X2072430Y2316374D01*
X2067350Y2311294D01*
X2062270Y2316374D01*
X2064770Y2336124D02*
X2069850Y2341204D01*
X2074930Y2336124D01*
X2069850Y2331044D01*
X2064770Y2336124D01*
X2055188Y2371536D02*
X2060268Y2376616D01*
X2065348Y2371536D01*
X2060268Y2366456D01*
X2055188Y2371536D01*
X2117520Y2356374D02*
X2122600Y2361454D01*
X2127680Y2356374D01*
X2122600Y2351294D01*
X2117520Y2356374D01*
X2113520Y2340124D02*
X2118600Y2345204D01*
X2123680Y2340124D01*
X2118600Y2335044D01*
X2113520Y2340124D01*
X2110520Y2323624D02*
X2115600Y2328704D01*
X2120680Y2323624D01*
X2115600Y2318544D01*
X2110520Y2323624D01*
X2118180Y2371282D02*
X2123260Y2376362D01*
X2128340Y2371282D01*
X2123260Y2366202D01*
X2118180Y2371282D01*
X2094280Y2292714D02*
X2099360Y2297794D01*
X2104440Y2292714D01*
X2099360Y2287634D01*
X2094280Y2292714D01*
X2078780Y2293214D02*
X2083860Y2298294D01*
X2088940Y2293214D01*
X2083860Y2288134D01*
X2078780Y2293214D01*
X2110520Y2293374D02*
X2115600Y2298454D01*
X2120680Y2293374D01*
X2115600Y2288294D01*
X2110520Y2293374D01*
Y2307874D02*
X2115600Y2312954D01*
X2120680Y2307874D01*
X2115600Y2302794D01*
X2110520Y2307874D01*
X2135888Y2239851D02*
X2140968Y2244931D01*
X2146048Y2239851D01*
X2140968Y2234771D01*
X2135888Y2239851D01*
X2119691Y2239419D02*
X2124771Y2244499D01*
X2129851Y2239419D01*
X2124771Y2234339D01*
X2119691Y2239419D01*
X2102020Y2247624D02*
X2107100Y2252704D01*
X2112180Y2247624D01*
X2107100Y2242544D01*
X2102020Y2247624D01*
X2110520Y2266874D02*
X2115600Y2271954D01*
X2120680Y2266874D01*
X2115600Y2261794D01*
X2110520Y2266874D01*
X2072770Y2232374D02*
X2077850Y2237454D01*
X2082930Y2232374D01*
X2077850Y2227294D01*
X2072770Y2232374D01*
Y2252374D02*
X2077850Y2257454D01*
X2082930Y2252374D01*
X2077850Y2247294D01*
X2072770Y2252374D01*
Y2270124D02*
X2077850Y2275204D01*
X2082930Y2270124D01*
X2077850Y2265044D01*
X2072770Y2270124D01*
X1205304Y2224978D02*
X1210384Y2230058D01*
X1215464Y2224978D01*
X1210384Y2219898D01*
X1205304Y2224978D01*
X1222322Y2220406D02*
X1227402Y2225486D01*
X1232482Y2220406D01*
X1227402Y2215326D01*
X1222322Y2220406D01*
X1158822Y2132776D02*
X1163902Y2137856D01*
X1168982Y2132776D01*
X1163902Y2127696D01*
X1158822Y2132776D01*
X1188540Y2219644D02*
X1193620Y2224724D01*
X1198700Y2219644D01*
X1193620Y2214564D01*
X1188540Y2219644D01*
X1381780Y2459714D02*
X1386860Y2464794D01*
X1391940Y2459714D01*
X1386860Y2454634D01*
X1381780Y2459714D01*
X1408758Y2442402D02*
X1413838Y2447482D01*
X1418918Y2442402D01*
X1413838Y2437322D01*
X1408758Y2442402D01*
X1411780Y2454714D02*
X1416860Y2459794D01*
X1421940Y2454714D01*
X1416860Y2449634D01*
X1411780Y2454714D01*
X1450552Y2455464D02*
X1455632Y2460544D01*
X1460712Y2455464D01*
X1455632Y2450384D01*
X1450552Y2455464D01*
X1404030Y2525464D02*
X1409110Y2530544D01*
X1414190Y2525464D01*
X1409110Y2520384D01*
X1404030Y2525464D01*
X1324553Y2458214D02*
X1329633Y2463294D01*
X1334713Y2458214D01*
X1329633Y2453134D01*
X1324553Y2458214D01*
X1348052Y2447736D02*
X1353132Y2452816D01*
X1358212Y2447736D01*
X1353132Y2442656D01*
X1348052Y2447736D01*
Y2437830D02*
X1353132Y2442910D01*
X1358212Y2437830D01*
X1353132Y2432750D01*
X1348052Y2437830D01*
Y2458404D02*
X1353132Y2463484D01*
X1358212Y2458404D01*
X1353132Y2453324D01*
X1348052Y2458404D01*
X1457530Y2507964D02*
X1462610Y2513044D01*
X1467690Y2507964D01*
X1462610Y2502884D01*
X1457530Y2507964D01*
X1469530Y2489714D02*
X1474610Y2494794D01*
X1479690Y2489714D01*
X1474610Y2484634D01*
X1469530Y2489714D01*
X1440780Y2519464D02*
X1445860Y2524544D01*
X1450940Y2519464D01*
X1445860Y2514384D01*
X1440780Y2519464D01*
X1411280Y2516964D02*
X1416360Y2522044D01*
X1421440Y2516964D01*
X1416360Y2511884D01*
X1411280Y2516964D01*
X1408530Y2548464D02*
X1413610Y2553544D01*
X1418690Y2548464D01*
X1413610Y2543384D01*
X1408530Y2548464D01*
X1367030Y2516464D02*
X1372110Y2521544D01*
X1377190Y2516464D01*
X1372110Y2511384D01*
X1367030Y2516464D01*
X1367280Y2530714D02*
X1372360Y2535794D01*
X1377440Y2530714D01*
X1372360Y2525634D01*
X1367280Y2530714D01*
X1323030Y2491464D02*
X1328110Y2496544D01*
X1333190Y2491464D01*
X1328110Y2486384D01*
X1323030Y2491464D01*
X1323530Y2517232D02*
X1328610Y2522312D01*
X1333690Y2517232D01*
X1328610Y2512152D01*
X1323530Y2517232D01*
X1324553Y2539214D02*
X1329633Y2544294D01*
X1334713Y2539214D01*
X1329633Y2534134D01*
X1324553Y2539214D01*
X1126553Y2946464D02*
X1131633Y2951544D01*
X1136713Y2946464D01*
X1131633Y2941384D01*
X1126553Y2946464D01*
X1106780Y2943231D02*
X1111860Y2948311D01*
X1116940Y2943231D01*
X1111860Y2938151D01*
X1106780Y2943231D01*
Y2917714D02*
X1111860Y2922794D01*
X1116940Y2917714D01*
X1111860Y2912634D01*
X1106780Y2917714D01*
Y2892214D02*
X1111860Y2897294D01*
X1116940Y2892214D01*
X1111860Y2887134D01*
X1106780Y2892214D01*
Y2866714D02*
X1111860Y2871794D01*
X1116940Y2866714D01*
X1111860Y2861634D01*
X1106780Y2866714D01*
Y2841231D02*
X1111860Y2846311D01*
X1116940Y2841231D01*
X1111860Y2836151D01*
X1106780Y2841231D01*
Y2815714D02*
X1111860Y2820794D01*
X1116940Y2815714D01*
X1111860Y2810634D01*
X1106780Y2815714D01*
Y2790214D02*
X1111860Y2795294D01*
X1116940Y2790214D01*
X1111860Y2785134D01*
X1106780Y2790214D01*
Y2764714D02*
X1111860Y2769794D01*
X1116940Y2764714D01*
X1111860Y2759634D01*
X1106780Y2764714D01*
Y2739214D02*
X1111860Y2744294D01*
X1116940Y2739214D01*
X1111860Y2734134D01*
X1106780Y2739214D01*
Y2713714D02*
X1111860Y2718794D01*
X1116940Y2713714D01*
X1111860Y2708634D01*
X1106780Y2713714D01*
Y2688214D02*
X1111860Y2693294D01*
X1116940Y2688214D01*
X1111860Y2683134D01*
X1106780Y2688214D01*
Y2662714D02*
X1111860Y2667794D01*
X1116940Y2662714D01*
X1111860Y2657634D01*
X1106780Y2662714D01*
Y2637232D02*
X1111860Y2642312D01*
X1116940Y2637232D01*
X1111860Y2632151D01*
X1106780Y2637232D01*
Y2611714D02*
X1111860Y2616794D01*
X1116940Y2611714D01*
X1111860Y2606634D01*
X1106780Y2611714D01*
Y2586214D02*
X1111860Y2591294D01*
X1116940Y2586214D01*
X1111860Y2581134D01*
X1106780Y2586214D01*
Y2560714D02*
X1111860Y2565794D01*
X1116940Y2560714D01*
X1111860Y2555634D01*
X1106780Y2560714D01*
Y2535232D02*
X1111860Y2540312D01*
X1116940Y2535232D01*
X1111860Y2530152D01*
X1106780Y2535232D01*
Y2203714D02*
X1111860Y2208794D01*
X1116940Y2203714D01*
X1111860Y2198634D01*
X1106780Y2203714D01*
Y2178214D02*
X1111860Y2183294D01*
X1116940Y2178214D01*
X1111860Y2173134D01*
X1106780Y2178214D01*
Y2152714D02*
X1111860Y2157794D01*
X1116940Y2152714D01*
X1111860Y2147634D01*
X1106780Y2152714D01*
Y2127233D02*
X1111860Y2132313D01*
X1116940Y2127233D01*
X1111860Y2122153D01*
X1106780Y2127233D01*
Y2101714D02*
X1111860Y2106794D01*
X1116940Y2101714D01*
X1111860Y2096634D01*
X1106780Y2101714D01*
X1107280Y2072214D02*
X1112360Y2077294D01*
X1117440Y2072214D01*
X1112360Y2067134D01*
X1107280Y2072214D01*
X1116530Y2049233D02*
X1121610Y2054313D01*
X1126690Y2049233D01*
X1121610Y2044153D01*
X1116530Y2049233D01*
X1140765Y2066618D02*
X1145845Y2071698D01*
X1150925Y2066618D01*
X1145845Y2061538D01*
X1140765Y2066618D01*
X1203235Y2053178D02*
X1208315Y2058258D01*
X1213395Y2053178D01*
X1208315Y2048098D01*
X1203235Y2053178D01*
X1226780Y2049233D02*
X1231860Y2054313D01*
X1236940Y2049233D01*
X1231860Y2044153D01*
X1226780Y2049233D01*
X1263530D02*
X1268610Y2054313D01*
X1273690Y2049233D01*
X1268610Y2044153D01*
X1263530Y2049233D01*
X1300280D02*
X1305360Y2054313D01*
X1310440Y2049233D01*
X1305360Y2044153D01*
X1300280Y2049233D01*
X1337030D02*
X1342110Y2054313D01*
X1347190Y2049233D01*
X1342110Y2044153D01*
X1337030Y2049233D01*
X1373780D02*
X1378860Y2054313D01*
X1383940Y2049233D01*
X1378860Y2044153D01*
X1373780Y2049233D01*
X1371399Y2075220D02*
X1376479Y2080300D01*
X1381559Y2075220D01*
X1376479Y2070140D01*
X1371399Y2075220D01*
X1484780Y2049233D02*
X1489860Y2054313D01*
X1494940Y2049233D01*
X1489860Y2044153D01*
X1484780Y2049233D01*
X1447280D02*
X1452360Y2054313D01*
X1457440Y2049233D01*
X1452360Y2044153D01*
X1447280Y2049233D01*
X1521030D02*
X1526110Y2054313D01*
X1531190Y2049233D01*
X1526110Y2044153D01*
X1521030Y2049233D01*
X1557780D02*
X1562860Y2054313D01*
X1567940Y2049233D01*
X1562860Y2044153D01*
X1557780Y2049233D01*
X1594552Y2049214D02*
X1599632Y2054294D01*
X1604712Y2049214D01*
X1599632Y2044134D01*
X1594552Y2049214D01*
X1619317Y2052210D02*
X1624397Y2057290D01*
X1629477Y2052210D01*
X1624397Y2047130D01*
X1619317Y2052210D01*
X1691410Y2053581D02*
X1696490Y2058661D01*
X1701570Y2053581D01*
X1696490Y2048501D01*
X1691410Y2053581D01*
X1705530Y2049233D02*
X1710610Y2054313D01*
X1715690Y2049233D01*
X1710610Y2044153D01*
X1705530Y2049233D01*
X1742030Y2051714D02*
X1747110Y2056794D01*
X1752190Y2051714D01*
X1747110Y2046634D01*
X1742030Y2051714D01*
X1778530Y2051464D02*
X1783610Y2056544D01*
X1788690Y2051464D01*
X1783610Y2046384D01*
X1778530Y2051464D01*
X1797736Y2080124D02*
X1802816Y2085204D01*
X1807896Y2080124D01*
X1802816Y2075044D01*
X1797736Y2080124D01*
X1796616Y2109662D02*
X1801696Y2114742D01*
X1806776Y2109662D01*
X1801696Y2104582D01*
X1796616Y2109662D01*
X1982770Y2099374D02*
X1987850Y2104454D01*
X1992930Y2099374D01*
X1987850Y2094294D01*
X1982770Y2099374D01*
X1915530Y2115233D02*
X1920610Y2120313D01*
X1925690Y2115233D01*
X1920610Y2110153D01*
X1915530Y2115233D01*
X1960270Y2099374D02*
X1965350Y2104454D01*
X1970430Y2099374D01*
X1965350Y2094294D01*
X1960270Y2099374D01*
X1902280Y2167320D02*
X1907360Y2172400D01*
X1912440Y2167320D01*
X1907360Y2162240D01*
X1902280Y2167320D01*
X1905561Y2140291D02*
X1910641Y2145371D01*
X1915721Y2140291D01*
X1910641Y2135211D01*
X1905561Y2140291D01*
X2147020Y2076124D02*
X2152100Y2081204D01*
X2157180Y2076124D01*
X2152100Y2071044D01*
X2147020Y2076124D01*
X2316030Y2119214D02*
X2321110Y2124294D01*
X2326190Y2119214D01*
X2321110Y2114134D01*
X2316030Y2119214D01*
X2300520Y2090624D02*
X2305600Y2095704D01*
X2310680Y2090624D01*
X2305600Y2085544D01*
X2300520Y2090624D01*
X2266770Y2088124D02*
X2271850Y2093204D01*
X2276930Y2088124D01*
X2271850Y2083044D01*
X2266770Y2088124D01*
X2204780Y2087464D02*
X2209860Y2092544D01*
X2214940Y2087464D01*
X2209860Y2082384D01*
X2204780Y2087464D01*
X2231770Y2087624D02*
X2236850Y2092704D01*
X2241930Y2087624D01*
X2236850Y2082544D01*
X2231770Y2087624D01*
X2132520Y2076124D02*
X2137600Y2081204D01*
X2142680Y2076124D01*
X2137600Y2071044D01*
X2132520Y2076124D01*
X2117520D02*
X2122600Y2081204D01*
X2127680Y2076124D01*
X2122600Y2071044D01*
X2117520Y2076124D01*
X2536030Y2160964D02*
X2541110Y2166044D01*
X2546190Y2160964D01*
X2541110Y2155884D01*
X2536030Y2160964D01*
X2611520Y2142842D02*
X2616600Y2147922D01*
X2621680Y2142842D01*
X2616600Y2137762D01*
X2611520Y2142842D01*
X2673521Y2144874D02*
X2678600Y2149954D01*
X2683680Y2144874D01*
X2678600Y2139794D01*
X2673521Y2144874D01*
X2491030Y2165464D02*
X2496110Y2170544D01*
X2501190Y2165464D01*
X2496110Y2160384D01*
X2491030Y2165464D01*
X2470550Y2167214D02*
X2475630Y2172294D01*
X2480710Y2167214D01*
X2475630Y2162134D01*
X2470550Y2167214D01*
X2447364Y2169352D02*
X2452444Y2174432D01*
X2457524Y2169352D01*
X2452444Y2164272D01*
X2447364Y2169352D01*
X2517520Y2126374D02*
X2522600Y2131454D01*
X2527680Y2126374D01*
X2522600Y2121294D01*
X2517520Y2126374D01*
Y2148124D02*
X2522600Y2153204D01*
X2527680Y2148124D01*
X2522600Y2143044D01*
X2517520Y2148124D01*
Y2165124D02*
X2522600Y2170204D01*
X2527680Y2165124D01*
X2522600Y2160044D01*
X2517520Y2165124D01*
X2664520Y2164624D02*
X2669601Y2169704D01*
X2674680Y2164624D01*
X2669601Y2159544D01*
X2664520Y2164624D01*
X2568521Y2167874D02*
X2573600Y2172954D01*
X2578680Y2167874D01*
X2573600Y2162794D01*
X2568521Y2167874D01*
X2848549Y2249464D02*
X2853629Y2254544D01*
X2858709Y2249464D01*
X2853629Y2244384D01*
X2848549Y2249464D01*
X2860550Y2263964D02*
X2865630Y2269044D01*
X2870710Y2263964D01*
X2865630Y2258884D01*
X2860550Y2263964D01*
Y2249214D02*
X2865630Y2254294D01*
X2870710Y2249214D01*
X2865630Y2244134D01*
X2860550Y2249214D01*
X2820031Y2266964D02*
X2825110Y2272044D01*
X2830190Y2266964D01*
X2825110Y2261884D01*
X2820031Y2266964D01*
X2818549Y2297214D02*
X2823629Y2302294D01*
X2828710Y2297214D01*
X2823629Y2292134D01*
X2818549Y2297214D01*
X2830550Y2316464D02*
X2835630Y2321544D01*
X2840710Y2316464D01*
X2835630Y2311384D01*
X2830550Y2316464D01*
X2606780Y2313232D02*
X2611860Y2318312D01*
X2616940Y2313232D01*
X2611860Y2308152D01*
X2606780Y2313232D01*
X2668550Y2304464D02*
X2673630Y2309544D01*
X2678710Y2304464D01*
X2673630Y2299384D01*
X2668550Y2304464D01*
X2700780Y2307232D02*
X2705860Y2312312D01*
X2710941Y2307232D01*
X2705860Y2302152D01*
X2700780Y2307232D01*
X3577410Y2240472D02*
X3582491Y2245552D01*
X3587570Y2240472D01*
X3582491Y2235392D01*
X3577410Y2240472D01*
X3577280Y2249964D02*
X3582361Y2255044D01*
X3587440Y2249964D01*
X3582361Y2244884D01*
X3577280Y2249964D01*
X3543530Y2253232D02*
X3548611Y2258312D01*
X3553690Y2253232D01*
X3548611Y2248152D01*
X3543530Y2253232D01*
X3544548Y2266464D02*
X3549628Y2271544D01*
X3554708Y2266464D01*
X3549628Y2261384D01*
X3544548Y2266464D01*
X3508270Y2244841D02*
X3513351Y2249922D01*
X3518430Y2244841D01*
X3513351Y2239762D01*
X3508270Y2244841D01*
X3519733Y2238124D02*
X3524813Y2243204D01*
X3529893Y2238124D01*
X3524813Y2233044D01*
X3519733Y2238124D01*
X3507733Y2255624D02*
X3512813Y2260704D01*
X3517893Y2255624D01*
X3512813Y2250544D01*
X3507733Y2255624D01*
Y2266624D02*
X3512813Y2271704D01*
X3517893Y2266624D01*
X3512813Y2261544D01*
X3507733Y2266624D01*
X3429583Y2267650D02*
X3434662Y2272730D01*
X3439742Y2267650D01*
X3434662Y2262570D01*
X3429583Y2267650D01*
X3406976Y2265872D02*
X3412056Y2270952D01*
X3417137Y2265872D01*
X3412056Y2260792D01*
X3406976Y2265872D01*
X3410031Y2229232D02*
X3415110Y2234312D01*
X3420190Y2229232D01*
X3415110Y2224152D01*
X3410031Y2229232D01*
X3434030Y2295232D02*
X3439110Y2300312D01*
X3444190Y2295232D01*
X3439110Y2290152D01*
X3434030Y2295232D01*
X3424548Y2308464D02*
X3429628Y2313544D01*
X3434708Y2308464D01*
X3429628Y2303384D01*
X3424548Y2308464D01*
X3408781Y2308964D02*
X3413860Y2314044D01*
X3418940Y2308964D01*
X3413860Y2303884D01*
X3408781Y2308964D01*
X3424548Y2319964D02*
X3429628Y2325044D01*
X3434708Y2319964D01*
X3429628Y2314884D01*
X3424548Y2319964D01*
X3409280Y2320714D02*
X3414360Y2325794D01*
X3419440Y2320714D01*
X3414360Y2315634D01*
X3409280Y2320714D01*
X3489280Y2353464D02*
X3494360Y2358544D01*
X3499440Y2353464D01*
X3494360Y2348384D01*
X3489280Y2353464D01*
X3442548Y2353964D02*
X3447628Y2359044D01*
X3452708Y2353964D01*
X3447628Y2348884D01*
X3442548Y2353964D01*
X3458030Y2367232D02*
X3463110Y2372312D01*
X3468190Y2367232D01*
X3463110Y2362152D01*
X3458030Y2367232D01*
X3473530D02*
X3478611Y2372312D01*
X3483690Y2367232D01*
X3478611Y2362152D01*
X3473530Y2367232D01*
X3487531D02*
X3492610Y2372312D01*
X3497690Y2367232D01*
X3492610Y2362152D01*
X3487531Y2367232D01*
X3447030Y2370464D02*
X3452110Y2375544D01*
X3457191Y2370464D01*
X3452110Y2365384D01*
X3447030Y2370464D01*
X3485462Y2626806D02*
X3490542Y2631886D01*
X3495622Y2626806D01*
X3490542Y2621726D01*
X3485462Y2626806D01*
X3532961Y2834578D02*
X3538040Y2839658D01*
X3543120Y2834578D01*
X3538040Y2829498D01*
X3532961Y2834578D01*
X3533723Y2824418D02*
X3538802Y2829498D01*
X3543882Y2824418D01*
X3538802Y2819338D01*
X3533723Y2824418D01*
X3566996Y2834324D02*
X3572076Y2839404D01*
X3577156Y2834324D01*
X3572076Y2829244D01*
X3566996Y2834324D01*
X3621353Y2832546D02*
X3626432Y2837626D01*
X3631512Y2832546D01*
X3626432Y2827466D01*
X3621353Y2832546D01*
X3666310Y2859978D02*
X3671390Y2865058D01*
X3676470Y2859978D01*
X3671390Y2854898D01*
X3666310Y2859978D01*
X3649292Y2834070D02*
X3654372Y2839150D01*
X3659453Y2834070D01*
X3654372Y2828990D01*
X3649292Y2834070D01*
X3847531Y2859231D02*
X3852610Y2864311D01*
X3857690Y2859231D01*
X3852610Y2854151D01*
X3847531Y2859231D01*
X3837030Y2902214D02*
X3842110Y2907294D01*
X3847191Y2902214D01*
X3842110Y2897134D01*
X3837030Y2902214D01*
X3844547Y2932214D02*
X3849627Y2937294D01*
X3854708Y2932214D01*
X3849627Y2927134D01*
X3844547Y2932214D01*
X3846780Y2895231D02*
X3851860Y2900311D01*
X3856940Y2895231D01*
X3851860Y2890151D01*
X3846780Y2895231D01*
X3839030Y2865231D02*
X3844110Y2870311D01*
X3849190Y2865231D01*
X3844110Y2860151D01*
X3839030Y2865231D01*
X3862030Y2803214D02*
X3867110Y2808294D01*
X3872191Y2803214D01*
X3867110Y2798134D01*
X3862030Y2803214D01*
X3844547Y2802964D02*
X3849627Y2808044D01*
X3854708Y2802964D01*
X3849627Y2797884D01*
X3844547Y2802964D01*
X3844780Y2821964D02*
X3849861Y2827044D01*
X3854940Y2821964D01*
X3849861Y2816884D01*
X3844780Y2821964D01*
X3862030D02*
X3867110Y2827044D01*
X3872191Y2821964D01*
X3867110Y2816884D01*
X3862030Y2821964D01*
X3832548Y2245964D02*
X3837628Y2251044D01*
X3842708Y2245964D01*
X3837628Y2240884D01*
X3832548Y2245964D01*
X3813732Y2234624D02*
X3818812Y2239704D01*
X3823892Y2234624D01*
X3818812Y2229544D01*
X3813732Y2234624D01*
X3805520Y2242624D02*
X3810600Y2247704D01*
X3815681Y2242624D01*
X3810600Y2237544D01*
X3805520Y2242624D01*
X3766021Y2274841D02*
X3771100Y2279921D01*
X3776180Y2274841D01*
X3771100Y2269761D01*
X3766021Y2274841D01*
X3746520Y2272374D02*
X3751600Y2277454D01*
X3756680Y2272374D01*
X3751600Y2267294D01*
X3746520Y2272374D01*
X3830280Y2277232D02*
X3835360Y2282312D01*
X3840440Y2277232D01*
X3835360Y2272152D01*
X3830280Y2277232D01*
X3795530Y2353714D02*
X3800610Y2358794D01*
X3805690Y2353714D01*
X3800610Y2348634D01*
X3795530Y2353714D01*
X3834530Y2359714D02*
X3839610Y2364794D01*
X3844691Y2359714D01*
X3839610Y2354634D01*
X3834530Y2359714D01*
X3829030Y2367232D02*
X3834110Y2372312D01*
X3839190Y2367232D01*
X3834110Y2362152D01*
X3829030Y2367232D01*
X3794771Y2286841D02*
X3799850Y2291921D01*
X3804930Y2286841D01*
X3799850Y2281761D01*
X3794771Y2286841D01*
X3794520Y2306624D02*
X3799601Y2311704D01*
X3804680Y2306624D01*
X3799601Y2301544D01*
X3794520Y2306624D01*
Y2330124D02*
X3799601Y2335204D01*
X3804680Y2330124D01*
X3799601Y2325044D01*
X3794520Y2330124D01*
X3767271Y2292841D02*
X3772350Y2297921D01*
X3777430Y2292841D01*
X3772350Y2287761D01*
X3767271Y2292841D01*
X3765020Y2250842D02*
X3770100Y2255921D01*
X3775180Y2250842D01*
X3770100Y2245762D01*
X3765020Y2250842D01*
X3757271Y2310841D02*
X3762350Y2315921D01*
X3767430Y2310841D01*
X3762350Y2305761D01*
X3757271Y2310841D01*
X3757780Y2339964D02*
X3762860Y2345044D01*
X3767940Y2339964D01*
X3762860Y2334884D01*
X3757780Y2339964D01*
X3770780Y2359214D02*
X3775860Y2364294D01*
X3780941Y2359214D01*
X3775860Y2354134D01*
X3770780Y2359214D01*
X3904270Y2232841D02*
X3909350Y2237921D01*
X3914431Y2232841D01*
X3909350Y2227762D01*
X3904270Y2232841D01*
X3877639Y2270952D02*
X3882719Y2276032D01*
X3887798Y2270952D01*
X3882719Y2265872D01*
X3877639Y2270952D01*
X3904270Y2256374D02*
X3909350Y2261454D01*
X3914431Y2256374D01*
X3909350Y2251294D01*
X3904270Y2256374D01*
X3904547Y2281464D02*
X3909627Y2286544D01*
X3914707Y2281464D01*
X3909627Y2276384D01*
X3904547Y2281464D01*
Y2306964D02*
X3909627Y2312044D01*
X3914707Y2306964D01*
X3909627Y2301884D01*
X3904547Y2306964D01*
Y2332464D02*
X3909627Y2337544D01*
X3914707Y2332464D01*
X3909627Y2327384D01*
X3904547Y2332464D01*
Y2357964D02*
X3909627Y2363044D01*
X3914707Y2357964D01*
X3909627Y2352884D01*
X3904547Y2357964D01*
Y2383464D02*
X3909627Y2388544D01*
X3914707Y2383464D01*
X3909627Y2378384D01*
X3904547Y2383464D01*
Y2408964D02*
X3909627Y2414044D01*
X3914707Y2408964D01*
X3909627Y2403884D01*
X3904547Y2408964D01*
Y2434464D02*
X3909627Y2439544D01*
X3914707Y2434464D01*
X3909627Y2429384D01*
X3904547Y2434464D01*
Y2459964D02*
X3909627Y2465044D01*
X3914707Y2459964D01*
X3909627Y2454884D01*
X3904547Y2459964D01*
Y2485464D02*
X3909627Y2490544D01*
X3914707Y2485464D01*
X3909627Y2480384D01*
X3904547Y2485464D01*
Y2510964D02*
X3909627Y2516044D01*
X3914707Y2510964D01*
X3909627Y2505884D01*
X3904547Y2510964D01*
Y2536464D02*
X3909627Y2541544D01*
X3914707Y2536464D01*
X3909627Y2531384D01*
X3904547Y2536464D01*
Y2561714D02*
X3909627Y2566794D01*
X3914707Y2561714D01*
X3909627Y2556634D01*
X3904547Y2561714D01*
Y2586964D02*
X3909627Y2592044D01*
X3914707Y2586964D01*
X3909627Y2581884D01*
X3904547Y2586964D01*
Y2612214D02*
X3909627Y2617294D01*
X3914707Y2612214D01*
X3909627Y2607134D01*
X3904547Y2612214D01*
Y2637464D02*
X3909627Y2642544D01*
X3914707Y2637464D01*
X3909627Y2632384D01*
X3904547Y2637464D01*
Y2662714D02*
X3909627Y2667794D01*
X3914707Y2662714D01*
X3909627Y2657634D01*
X3904547Y2662714D01*
Y2687964D02*
X3909627Y2693044D01*
X3914707Y2687964D01*
X3909627Y2682884D01*
X3904547Y2687964D01*
Y2713214D02*
X3909627Y2718294D01*
X3914707Y2713214D01*
X3909627Y2708134D01*
X3904547Y2713214D01*
Y2738464D02*
X3909627Y2743544D01*
X3914707Y2738464D01*
X3909627Y2733384D01*
X3904547Y2738464D01*
Y2763714D02*
X3909627Y2768794D01*
X3914707Y2763714D01*
X3909627Y2758634D01*
X3904547Y2763714D01*
Y2788714D02*
X3909627Y2793794D01*
X3914707Y2788714D01*
X3909627Y2783634D01*
X3904547Y2788714D01*
Y2813714D02*
X3909627Y2818794D01*
X3914707Y2813714D01*
X3909627Y2808634D01*
X3904547Y2813714D01*
X3901030Y2899714D02*
X3906111Y2904794D01*
X3911190Y2899714D01*
X3906111Y2894634D01*
X3901030Y2899714D01*
X3904547Y2863714D02*
X3909627Y2868794D01*
X3914707Y2863714D01*
X3909627Y2858634D01*
X3904547Y2863714D01*
X3857531Y2940464D02*
X3862610Y2945544D01*
X3867690Y2940464D01*
X3862610Y2935384D01*
X3857531Y2940464D01*
X3904030Y2827964D02*
X3909110Y2833044D01*
X3914190Y2827964D01*
X3909110Y2822884D01*
X3904030Y2827964D01*
X3904547Y2939464D02*
X3909627Y2944544D01*
X3914707Y2939464D01*
X3909627Y2934384D01*
X3904547Y2939464D01*
X3893280Y2949231D02*
X3898360Y2954311D01*
X3903441Y2949231D01*
X3898360Y2944151D01*
X3893280Y2949231D01*
X3867780D02*
X3872860Y2954311D01*
X3877940Y2949231D01*
X3872860Y2944151D01*
X3867780Y2949231D01*
X3842030D02*
X3847110Y2954311D01*
X3852191Y2949231D01*
X3847110Y2944151D01*
X3842030Y2949231D01*
X3817030D02*
X3822110Y2954311D01*
X3827191Y2949231D01*
X3822110Y2944151D01*
X3817030Y2949231D01*
X3792030D02*
X3797110Y2954311D01*
X3802191Y2949231D01*
X3797110Y2944151D01*
X3792030Y2949231D01*
X3394530Y2230464D02*
X3399610Y2235544D01*
X3404691Y2230464D01*
X3399610Y2225384D01*
X3394530Y2230464D01*
X2217780Y2217964D02*
X2222860Y2223044D01*
X2227940Y2217964D01*
X2222860Y2212884D01*
X2217780Y2217964D01*
X2224030D02*
X2229110Y2223044D01*
X2234190Y2217964D01*
X2229110Y2212884D01*
X2224030Y2217964D01*
X2913781Y2220464D02*
X2918860Y2225544D01*
X2923940Y2220464D01*
X2918860Y2215384D01*
X2913781Y2220464D01*
X2920530D02*
X2925610Y2225544D01*
X2930690Y2220464D01*
X2925610Y2215384D01*
X2920530Y2220464D01*
X2926030D02*
X2931111Y2225544D01*
X2936190Y2220464D01*
X2931111Y2215384D01*
X2926030Y2220464D01*
X3590031Y2890464D02*
X3595110Y2895544D01*
X3600190Y2890464D01*
X3595110Y2885384D01*
X3590031Y2890464D01*
X3540280Y2883964D02*
X3545360Y2889044D01*
X3550440Y2883964D01*
X3545360Y2878884D01*
X3540280Y2883964D01*
X2230280Y2217964D02*
X2235360Y2223044D01*
X2240440Y2217964D01*
X2235360Y2212884D01*
X2230280Y2217964D01*
X3659280Y2875214D02*
X3664360Y2880294D01*
X3669440Y2875214D01*
X3664360Y2870134D01*
X3659280Y2875214D01*
X3553280D02*
X3558360Y2880294D01*
X3563441Y2875214D01*
X3558360Y2870134D01*
X3553280Y2875214D01*
X3365280Y2874714D02*
X3370360Y2879794D01*
X3375440Y2874714D01*
X3370360Y2869634D01*
X3365280Y2874714D01*
X3172531Y2874214D02*
X3177610Y2879294D01*
X3182690Y2874214D01*
X3177610Y2869134D01*
X3172531Y2874214D01*
X2981780Y2872964D02*
X2986860Y2878044D01*
X2991940Y2872964D01*
X2986860Y2867884D01*
X2981780Y2872964D01*
X2796030Y2875214D02*
X2801111Y2880294D01*
X2806190Y2875214D01*
X2801111Y2870134D01*
X2796030Y2875214D01*
X2487030Y2853714D02*
X2492110Y2858794D01*
X2497190Y2853714D01*
X2492110Y2848634D01*
X2487030Y2853714D01*
X2412280Y2873964D02*
X2417360Y2879044D01*
X2422440Y2873964D01*
X2417360Y2868884D01*
X2412280Y2873964D01*
X2239030Y2874214D02*
X2244110Y2879294D01*
X2249190Y2874214D01*
X2244110Y2869134D01*
X2239030Y2874214D01*
X2035280Y2874714D02*
X2040360Y2879794D01*
X2045440Y2874714D01*
X2040360Y2869634D01*
X2035280Y2874714D01*
X2024030D02*
X2029110Y2879794D01*
X2034190Y2874714D01*
X2029110Y2869634D01*
X2024030Y2874714D01*
X1846280D02*
X1851360Y2879794D01*
X1856440Y2874714D01*
X1851360Y2869634D01*
X1846280Y2874714D01*
X1660030Y2874964D02*
X1665110Y2880044D01*
X1670190Y2874964D01*
X1665110Y2869884D01*
X1660030Y2874964D01*
X1467780Y2874464D02*
X1472860Y2879544D01*
X1477940Y2874464D01*
X1472860Y2869384D01*
X1467780Y2874464D01*
X1288953Y2867464D02*
X1294033Y2872544D01*
X1299113Y2867464D01*
X1294033Y2862384D01*
X1288953Y2867464D01*
X3845031Y2443464D02*
X3850110Y2448544D01*
X3855190Y2443464D01*
X3850110Y2438384D01*
X3845031Y2443464D01*
Y2436964D02*
X3850110Y2442044D01*
X3855190Y2436964D01*
X3850110Y2431884D01*
X3845031Y2436964D01*
Y2430464D02*
X3850110Y2435544D01*
X3855190Y2430464D01*
X3850110Y2425384D01*
X3845031Y2430464D01*
Y2424464D02*
X3850110Y2429544D01*
X3855190Y2424464D01*
X3850110Y2419384D01*
X3845031Y2424464D01*
X2236780Y2217964D02*
X2241860Y2223044D01*
X2246940Y2217964D01*
X2241860Y2212884D01*
X2236780Y2217964D01*
X2559530Y2267714D02*
X2564610Y2272794D01*
X2569691Y2267714D01*
X2564610Y2262634D01*
X2559530Y2267714D01*
X2566030D02*
X2571111Y2272794D01*
X2576190Y2267714D01*
X2571111Y2262634D01*
X2566030Y2267714D01*
X2602770Y2795828D02*
X2607850Y2800908D01*
X2612930Y2795828D01*
X2607850Y2790748D01*
X2602770Y2795828D01*
X2595770Y2802828D02*
X2600851Y2807908D01*
X2605930Y2802828D01*
X2600851Y2797748D01*
X2595770Y2802828D01*
X3391990Y2860994D02*
X3397070Y2866074D01*
X3402150Y2860994D01*
X3397070Y2855914D01*
X3391990Y2860994D01*
X3845354Y2217964D02*
X3850434Y2223044D01*
X3855515Y2217964D01*
X3850434Y2212884D01*
X3845354Y2217964D01*
X2572280Y2267714D02*
X2577361Y2272794D01*
X2582440Y2267714D01*
X2577361Y2262634D01*
X2572280Y2267714D01*
X1649042Y2352486D02*
X1654122Y2357566D01*
X1659202Y2352486D01*
X1654122Y2347406D01*
X1649042Y2352486D01*
X2453020Y2093374D02*
X2458100Y2098454D01*
X2463180Y2093374D01*
X2458100Y2088294D01*
X2453020Y2093374D01*
X1340780Y2177464D02*
X1345860Y2182544D01*
X1350940Y2177464D01*
X1345860Y2172384D01*
X1340780Y2177464D01*
X1238030D02*
X1243110Y2182544D01*
X1248190Y2177464D01*
X1243110Y2172384D01*
X1238030Y2177464D01*
X2328238Y2454848D02*
X2333318Y2459928D01*
X2338398Y2454848D01*
X2333318Y2449768D01*
X2328238Y2454848D01*
X1965030Y2462214D02*
X1970110Y2467294D01*
X1975190Y2462214D01*
X1970110Y2457134D01*
X1965030Y2462214D01*
X2562680Y2783778D02*
X2567760Y2788858D01*
X2572840Y2783778D01*
X2567760Y2778698D01*
X2562680Y2783778D01*
X1340432Y2603946D02*
X1345512Y2609026D01*
X1350592Y2603946D01*
X1345512Y2598866D01*
X1340432Y2603946D01*
X2868242Y2620456D02*
X2873322Y2625536D01*
X2878402Y2620456D01*
X2873322Y2615376D01*
X2868242Y2620456D01*
X3059758Y2617662D02*
X3064838Y2622742D01*
X3069919Y2617662D01*
X3064838Y2612582D01*
X3059758Y2617662D01*
X3439234Y2621726D02*
X3444314Y2626806D01*
X3449395Y2621726D01*
X3444314Y2616646D01*
X3439234Y2621726D01*
X2424250Y2789620D02*
X2429330Y2794700D01*
X2434410Y2789620D01*
X2429330Y2784540D01*
X2424250Y2789620D01*
X2019882Y2610042D02*
X2024962Y2615122D01*
X2030042Y2610042D01*
X2024962Y2604962D01*
X2019882Y2610042D01*
X2027248Y2604962D02*
X2032328Y2610042D01*
X2037408Y2604962D01*
X2032328Y2599882D01*
X2027248Y2604962D01*
X2034614Y2600898D02*
X2039694Y2605978D01*
X2044774Y2600898D01*
X2039694Y2595818D01*
X2034614Y2600898D01*
X2390468Y2424114D02*
X2395548Y2429194D01*
X2400628Y2424114D01*
X2395548Y2419034D01*
X2390468Y2424114D01*
X2364306Y2399730D02*
X2369386Y2404810D01*
X2374466Y2399730D01*
X2369386Y2394650D01*
X2364306Y2399730D01*
X2312020Y2217624D02*
X2317100Y2222704D01*
X2322180Y2217624D01*
X2317100Y2212544D01*
X2312020Y2217624D01*
X2318520Y2211624D02*
X2323600Y2216704D01*
X2328680Y2211624D01*
X2323600Y2206544D01*
X2318520Y2211624D01*
X2254324Y2846262D02*
X2259404Y2851342D01*
X2264484Y2846262D01*
X2259404Y2841182D01*
X2254324Y2846262D01*
X2295726Y2661096D02*
X2300806Y2666176D01*
X2305886Y2661096D01*
X2300806Y2656016D01*
X2295726Y2661096D01*
X2343280Y2472214D02*
X2348360Y2477294D01*
X2353440Y2472214D01*
X2348360Y2467134D01*
X2343280Y2472214D01*
X2526866Y2392110D02*
X2531946Y2397190D01*
X2537026Y2392110D01*
X2531946Y2387030D01*
X2526866Y2392110D01*
X2093030Y2169214D02*
X2098110Y2174294D01*
X2103190Y2169214D01*
X2098110Y2164134D01*
X2093030Y2169214D01*
X2263976Y2281874D02*
X2269056Y2286954D01*
X2274136Y2281874D01*
X2269056Y2276794D01*
X2263976Y2281874D01*
X3578680Y2833054D02*
X3583760Y2838134D01*
X3588840Y2833054D01*
X3583760Y2827974D01*
X3578680Y2833054D01*
X2054934Y2359090D02*
X2060014Y2364170D01*
X2065094Y2359090D01*
X2060014Y2354010D01*
X2054934Y2359090D01*
X2099270Y2371374D02*
X2104350Y2376454D01*
X2109430Y2371374D01*
X2104350Y2366294D01*
X2099270Y2371374D01*
X2574780Y2877214D02*
X2579861Y2882294D01*
X2584940Y2877214D01*
X2579861Y2872134D01*
X2574780Y2877214D01*
X1366552Y2683214D02*
X1371633Y2688294D01*
X1376712Y2683214D01*
X1371633Y2678134D01*
X1366552Y2683214D01*
X1396552Y2682964D02*
X1401632Y2688044D01*
X1406712Y2682964D01*
X1401632Y2677884D01*
X1396552Y2682964D01*
X1438730Y2447482D02*
X1443810Y2452562D01*
X1448890Y2447482D01*
X1443810Y2442402D01*
X1438730Y2447482D01*
X3534230Y2815782D02*
X3539310Y2820862D01*
X3544390Y2815782D01*
X3539310Y2810702D01*
X3534230Y2815782D01*
X3468781Y2821214D02*
X3473860Y2826294D01*
X3478940Y2821214D01*
X3473860Y2816134D01*
X3468781Y2821214D01*
X2862030Y2297964D02*
X2867110Y2303044D01*
X2872191Y2297964D01*
X2867110Y2292884D01*
X2862030Y2297964D01*
X3547184Y2526984D02*
X3552264Y2532064D01*
X3557344Y2526984D01*
X3552264Y2521904D01*
X3547184Y2526984D01*
X3561408Y2529524D02*
X3566488Y2534604D01*
X3571568Y2529524D01*
X3566488Y2524444D01*
X3561408Y2529524D01*
X3505020Y2547304D02*
X3510100Y2552384D01*
X3515180Y2547304D01*
X3510100Y2542224D01*
X3505020Y2547304D01*
X2463112Y2149286D02*
X2468192Y2154366D01*
X2473272Y2149286D01*
X2468192Y2144206D01*
X2463112Y2149286D01*
X2482162Y2149540D02*
X2487242Y2154620D01*
X2492322Y2149540D01*
X2487242Y2144460D01*
X2482162Y2149540D01*
X1741280Y2646964D02*
X1746360Y2652044D01*
X1751440Y2646964D01*
X1746360Y2641884D01*
X1741280Y2646964D01*
X1742530Y2631464D02*
X1747610Y2636544D01*
X1752690Y2631464D01*
X1747610Y2626384D01*
X1742530Y2631464D01*
X1748030Y2616714D02*
X1753110Y2621794D01*
X1758190Y2616714D01*
X1753110Y2611634D01*
X1748030Y2616714D01*
X1849530Y2644214D02*
X1854610Y2649294D01*
X1859690Y2644214D01*
X1854610Y2639134D01*
X1849530Y2644214D01*
X1855290Y2602676D02*
X1860370Y2607756D01*
X1865450Y2602676D01*
X1860370Y2597596D01*
X1855290Y2602676D01*
X1750388Y2791398D02*
X1755468Y2796478D01*
X1760548Y2791398D01*
X1755468Y2786318D01*
X1750388Y2791398D01*
X1640552Y2938464D02*
X1645632Y2943544D01*
X1650712Y2938464D01*
X1645632Y2933384D01*
X1640552Y2938464D01*
X1655780Y2933231D02*
X1660860Y2938311D01*
X1665940Y2933231D01*
X1660860Y2928151D01*
X1655780Y2933231D01*
X1685780Y2925231D02*
X1690860Y2930311D01*
X1695940Y2925231D01*
X1690860Y2920151D01*
X1685780Y2925231D01*
X3060031Y2685964D02*
X3065110Y2691044D01*
X3070190Y2685964D01*
X3065110Y2680884D01*
X3060031Y2685964D01*
X3083030Y2684214D02*
X3088110Y2689294D01*
X3093190Y2684214D01*
X3088110Y2679134D01*
X3083030Y2684214D01*
X3126030Y2684964D02*
X3131111Y2690044D01*
X3136190Y2684964D01*
X3131111Y2679884D01*
X3126030Y2684964D01*
X3094780Y2647464D02*
X3099861Y2652544D01*
X3104940Y2647464D01*
X3099861Y2642384D01*
X3094780Y2647464D01*
X3184530Y2640714D02*
X3189610Y2645794D01*
X3194691Y2640714D01*
X3189610Y2635634D01*
X3184530Y2640714D01*
X3262520Y2622874D02*
X3267600Y2627954D01*
X3272680Y2622874D01*
X3267600Y2617794D01*
X3262520Y2622874D01*
X3287020Y2623124D02*
X3292101Y2628204D01*
X3297180Y2623124D01*
X3292101Y2618044D01*
X3287020Y2623124D01*
X3265530Y2683964D02*
X3270610Y2689044D01*
X3275690Y2683964D01*
X3270610Y2678884D01*
X3265530Y2683964D01*
X3305780Y2683464D02*
X3310860Y2688544D01*
X3315941Y2683464D01*
X3310860Y2678384D01*
X3305780Y2683464D01*
X3274780Y2736964D02*
X3279861Y2742044D01*
X3284940Y2736964D01*
X3279861Y2731884D01*
X3274780Y2736964D01*
X3301312Y2741868D02*
X3306393Y2746948D01*
X3311472Y2741868D01*
X3306393Y2736788D01*
X3301312Y2741868D01*
X3069530Y2740214D02*
X3074610Y2745294D01*
X3079691Y2740214D01*
X3074610Y2735134D01*
X3069530Y2740214D01*
X3118030Y2735964D02*
X3123110Y2741044D01*
X3128190Y2735964D01*
X3123110Y2730884D01*
X3118030Y2735964D01*
X2989030Y2826214D02*
X2994110Y2831294D01*
X2999190Y2826214D01*
X2994110Y2821134D01*
X2989030Y2826214D01*
X2983530Y2937214D02*
X2988611Y2942294D01*
X2993690Y2937214D01*
X2988611Y2932134D01*
X2983530Y2937214D01*
X3003530Y2930714D02*
X3008611Y2935794D01*
X3013690Y2930714D01*
X3008611Y2925634D01*
X3003530Y2930714D01*
X3159280Y2938214D02*
X3164360Y2943294D01*
X3169440Y2938214D01*
X3164360Y2933134D01*
X3159280Y2938214D01*
X3158781Y2923714D02*
X3163860Y2928794D01*
X3168940Y2923714D01*
X3163860Y2918634D01*
X3158781Y2923714D01*
X3185280Y2937714D02*
X3190360Y2942794D01*
X3195440Y2937714D01*
X3190360Y2932634D01*
X3185280Y2937714D01*
X3164780Y2832464D02*
X3169861Y2837544D01*
X3174940Y2832464D01*
X3169861Y2827384D01*
X3164780Y2832464D01*
X3179530Y2823964D02*
X3184610Y2829044D01*
X3189691Y2823964D01*
X3184610Y2818884D01*
X3179530Y2823964D01*
X3084780Y2822464D02*
X3089861Y2827544D01*
X3094940Y2822464D01*
X3089861Y2817384D01*
X3084780Y2822464D01*
X3043756Y2871916D02*
X3048836Y2876996D01*
X3053916Y2871916D01*
X3048836Y2866836D01*
X3043756Y2871916D01*
X3034030Y2817464D02*
X3039110Y2822544D01*
X3044190Y2817464D01*
X3039110Y2812384D01*
X3034030Y2817464D01*
X3093280Y2826464D02*
X3098360Y2831544D01*
X3103441Y2826464D01*
X3098360Y2821384D01*
X3093280Y2826464D01*
X3118530Y2496214D02*
X3123611Y2501294D01*
X3128690Y2496214D01*
X3123611Y2491134D01*
X3118530Y2496214D01*
X3143781D02*
X3148860Y2501294D01*
X3153940Y2496214D01*
X3148860Y2491134D01*
X3143781Y2496214D01*
X3171780Y2501464D02*
X3176860Y2506544D01*
X3181940Y2501464D01*
X3176860Y2496384D01*
X3171780Y2501464D01*
X3168030Y2510964D02*
X3173110Y2516044D01*
X3178190Y2510964D01*
X3173110Y2505884D01*
X3168030Y2510964D01*
X3129780Y2511214D02*
X3134861Y2516294D01*
X3139940Y2511214D01*
X3134861Y2506134D01*
X3129780Y2511214D01*
X3298280Y2497714D02*
X3303360Y2502794D01*
X3308441Y2497714D01*
X3303360Y2492634D01*
X3298280Y2497714D01*
X3334530Y2502464D02*
X3339610Y2507544D01*
X3344691Y2502464D01*
X3339610Y2497384D01*
X3334530Y2502464D01*
X3357030Y2498714D02*
X3362110Y2503794D01*
X3367191Y2498714D01*
X3362110Y2493634D01*
X3357030Y2498714D01*
X3339413Y2553146D02*
X3344492Y2558226D01*
X3349572Y2553146D01*
X3344492Y2548066D01*
X3339413Y2553146D01*
X3322780Y2548714D02*
X3327860Y2553794D01*
X3332940Y2548714D01*
X3327860Y2543634D01*
X3322780Y2548714D01*
X3298280Y2553714D02*
X3303360Y2558794D01*
X3308441Y2553714D01*
X3303360Y2548634D01*
X3298280Y2553714D01*
X3142816Y2537652D02*
X3147896Y2542732D01*
X3152976Y2537652D01*
X3147896Y2532572D01*
X3142816Y2537652D01*
X3143530Y2550714D02*
X3148611Y2555794D01*
X3153690Y2550714D01*
X3148611Y2545634D01*
X3143530Y2550714D01*
X3124280Y2548714D02*
X3129360Y2553794D01*
X3134440Y2548714D01*
X3129360Y2543634D01*
X3124280Y2548714D01*
X3110031Y2554214D02*
X3115110Y2559294D01*
X3120190Y2554214D01*
X3115110Y2549134D01*
X3110031Y2554214D01*
X3112030Y2450714D02*
X3117110Y2455794D01*
X3122191Y2450714D01*
X3117110Y2445634D01*
X3112030Y2450714D01*
X3305780Y2452214D02*
X3310860Y2457294D01*
X3315941Y2452214D01*
X3310860Y2447134D01*
X3305780Y2452214D01*
X3339530Y2450214D02*
X3344610Y2455294D01*
X3349691Y2450214D01*
X3344610Y2445134D01*
X3339530Y2450214D01*
X3224780Y2451464D02*
X3229861Y2456544D01*
X3234940Y2451464D01*
X3229861Y2446384D01*
X3224780Y2451464D01*
X3240031Y2447714D02*
X3245110Y2452794D01*
X3250190Y2447714D01*
X3245110Y2442634D01*
X3240031Y2447714D01*
X3017030Y2266464D02*
X3022110Y2271544D01*
X3027191Y2266464D01*
X3022110Y2261384D01*
X3017030Y2266464D01*
X3031030Y2255714D02*
X3036111Y2260794D01*
X3041190Y2255714D01*
X3036111Y2250634D01*
X3031030Y2255714D01*
X3054280Y2261464D02*
X3059360Y2266544D01*
X3064440Y2261464D01*
X3059360Y2256384D01*
X3054280Y2261464D01*
X3011498Y2331912D02*
X3016578Y2336992D01*
X3021658Y2331912D01*
X3016578Y2326832D01*
X3011498Y2331912D01*
X3062298Y2321752D02*
X3067379Y2326832D01*
X3072458Y2321752D01*
X3067379Y2316672D01*
X3062298Y2321752D01*
X3078554Y2332420D02*
X3083634Y2337500D01*
X3088714Y2332420D01*
X3083634Y2327340D01*
X3078554Y2332420D01*
X3158517Y2317305D02*
X3163597Y2322385D01*
X3168677Y2317305D01*
X3163597Y2312225D01*
X3158517Y2317305D01*
X3165733Y2326176D02*
X3170813Y2331255D01*
X3175893Y2326176D01*
X3170813Y2321095D01*
X3165733Y2326176D01*
X3037661Y2329118D02*
X3042740Y2334198D01*
X3047820Y2329118D01*
X3042740Y2324038D01*
X3037661Y2329118D01*
X3040530Y2361964D02*
X3045610Y2367044D01*
X3050690Y2361964D01*
X3045610Y2356884D01*
X3040530Y2361964D01*
X3022280Y2364464D02*
X3027361Y2369544D01*
X3032440Y2364464D01*
X3027361Y2359384D01*
X3022280Y2364464D01*
X3013530Y2352714D02*
X3018611Y2357794D01*
X3023690Y2352714D01*
X3018611Y2347634D01*
X3013530Y2352714D01*
X3062531Y2350964D02*
X3067610Y2356044D01*
X3072690Y2350964D01*
X3067610Y2345884D01*
X3062531Y2350964D01*
X3064030Y2364714D02*
X3069110Y2369794D01*
X3074190Y2364714D01*
X3069110Y2359634D01*
X3064030Y2364714D01*
X3213781Y2356714D02*
X3218860Y2361794D01*
X3223940Y2356714D01*
X3218860Y2351634D01*
X3213781Y2356714D01*
X3236780Y2355714D02*
X3241860Y2360794D01*
X3246940Y2355714D01*
X3241860Y2350634D01*
X3236780Y2355714D01*
X3256780Y2368464D02*
X3261860Y2373544D01*
X3266940Y2368464D01*
X3261860Y2363384D01*
X3256780Y2368464D01*
X3096780Y2736464D02*
X3101860Y2741544D01*
X3106940Y2736464D01*
X3101860Y2731384D01*
X3096780Y2736464D01*
X1742030Y2745964D02*
X1747110Y2751044D01*
X1752190Y2745964D01*
X1747110Y2740884D01*
X1742030Y2745964D01*
X1743780Y2731964D02*
X1748860Y2737044D01*
X1753940Y2731964D01*
X1748860Y2726884D01*
X1743780Y2731964D01*
X1729030Y2741464D02*
X1734110Y2746544D01*
X1739190Y2741464D01*
X1734110Y2736384D01*
X1729030Y2741464D01*
X1756780Y2740714D02*
X1761860Y2745794D01*
X1766940Y2740714D01*
X1761860Y2735634D01*
X1756780Y2740714D01*
X1608030Y2547464D02*
X1613110Y2552544D01*
X1618190Y2547464D01*
X1613110Y2542384D01*
X1608030Y2547464D01*
X1574874Y2520888D02*
X1579954Y2525968D01*
X1585034Y2520888D01*
X1579954Y2515808D01*
X1574874Y2520888D01*
X1571572Y2502854D02*
X1576652Y2507934D01*
X1581732Y2502854D01*
X1576652Y2497774D01*
X1571572Y2502854D01*
X1974530Y2547964D02*
X1979610Y2553044D01*
X1984690Y2547964D01*
X1979610Y2542884D01*
X1974530Y2547964D01*
X1994030Y2551214D02*
X1999110Y2556294D01*
X2004190Y2551214D01*
X1999110Y2546134D01*
X1994030Y2551214D01*
X1980030Y2513464D02*
X1985110Y2518544D01*
X1990190Y2513464D01*
X1985110Y2508384D01*
X1980030Y2513464D01*
X2264030Y2690714D02*
X2269110Y2695794D01*
X2274190Y2690714D01*
X2269110Y2685634D01*
X2264030Y2690714D01*
X2332280Y2686714D02*
X2337360Y2691794D01*
X2342440Y2686714D01*
X2337360Y2681634D01*
X2332280Y2686714D01*
X2353030Y2701714D02*
X2358110Y2706794D01*
X2363190Y2701714D01*
X2358110Y2696634D01*
X2353030Y2701714D01*
X2367354Y2694370D02*
X2372434Y2699450D01*
X2377514Y2694370D01*
X2372434Y2689290D01*
X2367354Y2694370D01*
X2498280Y2688964D02*
X2503360Y2694044D01*
X2508440Y2688964D01*
X2503360Y2683884D01*
X2498280Y2688964D01*
X2492576Y2720024D02*
X2497656Y2725104D01*
X2502736Y2720024D01*
X2497656Y2714944D01*
X2492576Y2720024D01*
X2556030Y2682964D02*
X2561111Y2688044D01*
X2566190Y2682964D01*
X2561111Y2677884D01*
X2556030Y2682964D01*
X2640280Y2694214D02*
X2645360Y2699294D01*
X2650440Y2694214D01*
X2645360Y2689134D01*
X2640280Y2694214D01*
X2630031Y2701714D02*
X2635110Y2706794D01*
X2640190Y2701714D01*
X2635110Y2696634D01*
X2630031Y2701714D01*
X2745280Y2704714D02*
X2750360Y2709794D01*
X2755440Y2704714D01*
X2750360Y2699634D01*
X2745280Y2704714D01*
X2749780Y2715964D02*
X2754861Y2721044D01*
X2759940Y2715964D01*
X2754861Y2710884D01*
X2749780Y2715964D01*
X2742280Y2676214D02*
X2747361Y2681294D01*
X2752440Y2676214D01*
X2747361Y2671134D01*
X2742280Y2676214D01*
X2732280Y2691714D02*
X2737361Y2696794D01*
X2742440Y2691714D01*
X2737361Y2686634D01*
X2732280Y2691714D01*
X2828781Y2700464D02*
X2833860Y2705544D01*
X2838940Y2700464D01*
X2833860Y2695384D01*
X2828781Y2700464D01*
X2822780Y2687964D02*
X2827860Y2693044D01*
X2832940Y2687964D01*
X2827860Y2682884D01*
X2822780Y2687964D01*
X2880031D02*
X2885110Y2693044D01*
X2890190Y2687964D01*
X2885110Y2682884D01*
X2880031Y2687964D01*
X2908530Y2683964D02*
X2913611Y2689044D01*
X2918690Y2683964D01*
X2913611Y2678884D01*
X2908530Y2683964D01*
X2933530Y2693964D02*
X2938611Y2699044D01*
X2943690Y2693964D01*
X2938611Y2688884D01*
X2933530Y2693964D01*
X2941030Y2678214D02*
X2946111Y2683294D01*
X2951190Y2678214D01*
X2946111Y2673134D01*
X2941030Y2678214D01*
X2879280Y2739214D02*
X2884360Y2744294D01*
X2889440Y2739214D01*
X2884360Y2734134D01*
X2879280Y2739214D01*
X2921281Y2738214D02*
X2926360Y2743294D01*
X2931440Y2738214D01*
X2926360Y2733134D01*
X2921281Y2738214D01*
X2729305Y2743646D02*
X2734384Y2748726D01*
X2739464Y2743646D01*
X2734384Y2738566D01*
X2729305Y2743646D01*
X2701618Y2745424D02*
X2706698Y2750504D01*
X2711778Y2745424D01*
X2706698Y2740344D01*
X2701618Y2745424D01*
X2687030Y2503964D02*
X2692110Y2509044D01*
X2697191Y2503964D01*
X2692110Y2498884D01*
X2687030Y2503964D01*
X2731281Y2498464D02*
X2736360Y2503544D01*
X2741440Y2498464D01*
X2736360Y2493384D01*
X2731281Y2498464D01*
X2788781Y2498214D02*
X2793860Y2503294D01*
X2798940Y2498214D01*
X2793860Y2493134D01*
X2788781Y2498214D01*
X2928530Y2496714D02*
X2933611Y2501794D01*
X2938690Y2496714D01*
X2933611Y2491634D01*
X2928530Y2496714D01*
X2878781Y2501714D02*
X2883860Y2506794D01*
X2888940Y2501714D01*
X2883860Y2496634D01*
X2878781Y2501714D01*
X2980280Y2492714D02*
X2985360Y2497794D01*
X2990440Y2492714D01*
X2985360Y2487634D01*
X2980280Y2492714D01*
X2927030Y2549214D02*
X2932110Y2554294D01*
X2937191Y2549214D01*
X2932110Y2544134D01*
X2927030Y2549214D01*
X2970031Y2546714D02*
X2975110Y2551794D01*
X2980190Y2546714D01*
X2975110Y2541634D01*
X2970031Y2546714D01*
X2738030Y2548214D02*
X2743110Y2553294D01*
X2748190Y2548214D01*
X2743110Y2543134D01*
X2738030Y2548214D01*
X2757280Y2545714D02*
X2762361Y2550794D01*
X2767440Y2545714D01*
X2762361Y2540634D01*
X2757280Y2545714D01*
X2770706Y2556194D02*
X2775786Y2561274D01*
X2780866Y2556194D01*
X2775786Y2551114D01*
X2770706Y2556194D01*
X2307030Y2506464D02*
X2312110Y2511544D01*
X2317190Y2506464D01*
X2312110Y2501384D01*
X2307030Y2506464D01*
X2422780Y2501714D02*
X2427860Y2506794D01*
X2432940Y2501714D01*
X2427860Y2496634D01*
X2422780Y2501714D01*
X2416376Y2522412D02*
X2421456Y2527492D01*
X2426536Y2522412D01*
X2421456Y2517332D01*
X2416376Y2522412D01*
X2207280Y2314214D02*
X2212360Y2319294D01*
X2217440Y2314214D01*
X2212360Y2309134D01*
X2207280Y2314214D01*
X2242780Y2312714D02*
X2247860Y2317794D01*
X2252940Y2312714D01*
X2247860Y2307634D01*
X2242780Y2312714D01*
X2394030Y2322214D02*
X2399110Y2327294D01*
X2404190Y2322214D01*
X2399110Y2317134D01*
X2394030Y2322214D01*
X2322142Y2325562D02*
X2327222Y2330642D01*
X2332302Y2325562D01*
X2327222Y2320482D01*
X2322142Y2325562D01*
X2518780Y2334964D02*
X2523860Y2340044D01*
X2528940Y2334964D01*
X2523860Y2329884D01*
X2518780Y2334964D01*
X2520516Y2323784D02*
X2525596Y2328864D01*
X2530676Y2323784D01*
X2525596Y2318704D01*
X2520516Y2323784D01*
X2451530Y2370964D02*
X2456610Y2376044D01*
X2461690Y2370964D01*
X2456610Y2365884D01*
X2451530Y2370964D01*
X2656780Y2360714D02*
X2661860Y2365794D01*
X2666940Y2360714D01*
X2661860Y2355634D01*
X2656780Y2360714D01*
X2671281Y2360214D02*
X2676360Y2365294D01*
X2681440Y2360214D01*
X2676360Y2355134D01*
X2671281Y2360214D01*
X2688030Y2359464D02*
X2693110Y2364544D01*
X2698190Y2359464D01*
X2693110Y2354384D01*
X2688030Y2359464D01*
X2623387Y2361376D02*
X2628466Y2366456D01*
X2633546Y2361376D01*
X2628466Y2356296D01*
X2623387Y2361376D01*
X2810530Y2359464D02*
X2815610Y2364544D01*
X2820690Y2359464D01*
X2815610Y2354384D01*
X2810530Y2359464D01*
X2842030Y2357964D02*
X2847110Y2363044D01*
X2852191Y2357964D01*
X2847110Y2352884D01*
X2842030Y2357964D01*
X2866780Y2356714D02*
X2871860Y2361794D01*
X2876940Y2356714D01*
X2871860Y2351634D01*
X2866780Y2356714D01*
X3505020Y2564068D02*
X3510100Y2569148D01*
X3515180Y2564068D01*
X3510100Y2558988D01*
X3505020Y2564068D01*
X3521277Y2545526D02*
X3526357Y2550606D01*
X3531436Y2545526D01*
X3526357Y2540446D01*
X3521277Y2545526D01*
X3524324Y2563306D02*
X3529404Y2568386D01*
X3534484Y2563306D01*
X3529404Y2558226D01*
X3524324Y2563306D01*
X3758766Y2525714D02*
X3763846Y2530794D01*
X3768926Y2525714D01*
X3763846Y2520634D01*
X3758766Y2525714D01*
X3686884Y2519872D02*
X3691964Y2524952D01*
X3697044Y2519872D01*
X3691964Y2514792D01*
X3686884Y2519872D01*
X3476826Y2644332D02*
X3481906Y2649412D01*
X3486986Y2644332D01*
X3481906Y2639252D01*
X3476826Y2644332D01*
X3740732Y2703006D02*
X3745812Y2708086D01*
X3750892Y2703006D01*
X3745812Y2697926D01*
X3740732Y2703006D01*
X3594780Y2696214D02*
X3599861Y2701294D01*
X3604940Y2696214D01*
X3599861Y2691134D01*
X3594780Y2696214D01*
X3496780Y2689464D02*
X3501860Y2694544D01*
X3506940Y2689464D01*
X3501860Y2684384D01*
X3496780Y2689464D01*
X3467030D02*
X3472110Y2694544D01*
X3477191Y2689464D01*
X3472110Y2684384D01*
X3467030Y2689464D01*
X3402030Y2695714D02*
X3407110Y2700794D01*
X3412191Y2695714D01*
X3407110Y2690634D01*
X3402030Y2695714D01*
X3436030Y2693964D02*
X3441111Y2699044D01*
X3446190Y2693964D01*
X3441111Y2688884D01*
X3436030Y2693964D01*
X3438280Y2735714D02*
X3443360Y2740794D01*
X3448441Y2735714D01*
X3443360Y2730634D01*
X3438280Y2735714D01*
X3481780Y2751464D02*
X3486860Y2756544D01*
X3491940Y2751464D01*
X3486860Y2746384D01*
X3481780Y2751464D01*
X3494030Y2739464D02*
X3499110Y2744544D01*
X3504190Y2739464D01*
X3499110Y2734384D01*
X3494030Y2739464D01*
X3399356Y2706562D02*
X3404436Y2711642D01*
X3409516Y2706562D01*
X3404436Y2701482D01*
X3399356Y2706562D01*
X3231030Y2877214D02*
X3236111Y2882294D01*
X3241190Y2877214D01*
X3236111Y2872134D01*
X3231030Y2877214D01*
X3298280Y2886964D02*
X3303360Y2892044D01*
X3308441Y2886964D01*
X3303360Y2881884D01*
X3298280Y2886964D01*
X3051884Y2900110D02*
X3056964Y2905190D01*
X3062044Y2900110D01*
X3056964Y2895030D01*
X3051884Y2900110D01*
X3114280Y2887964D02*
X3119360Y2893044D01*
X3124440Y2887964D01*
X3119360Y2882884D01*
X3114280Y2887964D01*
X2828872Y2926018D02*
X2833952Y2931098D01*
X2839032Y2926018D01*
X2833952Y2920938D01*
X2828872Y2926018D01*
X2928530Y2889464D02*
X2933611Y2894544D01*
X2938690Y2889464D01*
X2933611Y2884384D01*
X2928530Y2889464D01*
X2281780Y2878714D02*
X2286860Y2883794D01*
X2291940Y2878714D01*
X2286860Y2873634D01*
X2281780Y2878714D01*
X2353780Y2887464D02*
X2358860Y2892544D01*
X2363940Y2887464D01*
X2358860Y2882384D01*
X2353780Y2887464D01*
X2411030Y2860214D02*
X2416110Y2865294D01*
X2421190Y2860214D01*
X2416110Y2855134D01*
X2411030Y2860214D01*
X2090748Y2891728D02*
X2095828Y2896808D01*
X2100908Y2891728D01*
X2095828Y2886648D01*
X2090748Y2891728D01*
X2162780Y2888214D02*
X2167860Y2893294D01*
X2172940Y2888214D01*
X2167860Y2883134D01*
X2162780Y2888214D01*
X1902780Y2876464D02*
X1907860Y2881544D01*
X1912940Y2876464D01*
X1907860Y2871384D01*
X1902780Y2876464D01*
X1973280Y2890714D02*
X1978360Y2895794D01*
X1983440Y2890714D01*
X1978360Y2885634D01*
X1973280Y2890714D01*
X1826530Y2858214D02*
X1831610Y2863294D01*
X1836690Y2858214D01*
X1831610Y2853134D01*
X1826530Y2858214D01*
X1845130Y2857946D02*
X1850210Y2863026D01*
X1855290Y2857946D01*
X1850210Y2852866D01*
X1845130Y2857946D01*
X1877642Y2835340D02*
X1882722Y2840420D01*
X1887802Y2835340D01*
X1882722Y2830260D01*
X1877642Y2835340D01*
X1716098Y2887156D02*
X1721178Y2892236D01*
X1726258Y2887156D01*
X1721178Y2882076D01*
X1716098Y2887156D01*
X1783280Y2887964D02*
X1788360Y2893044D01*
X1793440Y2887964D01*
X1788360Y2882884D01*
X1783280Y2887964D01*
X1595030Y2891714D02*
X1600110Y2896794D01*
X1605190Y2891714D01*
X1600110Y2886634D01*
X1595030Y2891714D01*
X1522550Y2875726D02*
X1527630Y2880806D01*
X1532710Y2875726D01*
X1527630Y2870646D01*
X1522550Y2875726D01*
X1413770Y2819624D02*
X1418850Y2824704D01*
X1423930Y2819624D01*
X1418850Y2814544D01*
X1413770Y2819624D01*
X1403280Y2889964D02*
X1408360Y2895044D01*
X1413440Y2889964D01*
X1408360Y2884884D01*
X1403280Y2889964D01*
X1921280Y2689214D02*
X1926360Y2694294D01*
X1931440Y2689214D01*
X1926360Y2684134D01*
X1921280Y2689214D01*
X1987780Y2687214D02*
X1992860Y2692294D01*
X1997940Y2687214D01*
X1992860Y2682134D01*
X1987780Y2687214D01*
X1876780Y2696464D02*
X1881860Y2701544D01*
X1886940Y2696464D01*
X1881860Y2691384D01*
X1876780Y2696464D01*
X1806280Y2687964D02*
X1811360Y2693044D01*
X1816440Y2687964D01*
X1811360Y2682884D01*
X1806280Y2687964D01*
X1744030Y2683714D02*
X1749110Y2688794D01*
X1754190Y2683714D01*
X1749110Y2678634D01*
X1744030Y2683714D01*
X1757280Y2696214D02*
X1762360Y2701294D01*
X1767440Y2696214D01*
X1762360Y2691134D01*
X1757280Y2696214D01*
X1726530Y2689214D02*
X1731610Y2694294D01*
X1736690Y2689214D01*
X1731610Y2684134D01*
X1726530Y2689214D01*
X1693280Y2694714D02*
X1698360Y2699794D01*
X1703440Y2694714D01*
X1698360Y2689634D01*
X1693280Y2694714D01*
X1678030Y2698464D02*
X1683110Y2703544D01*
X1688190Y2698464D01*
X1683110Y2693384D01*
X1678030Y2698464D01*
X1614530Y2686714D02*
X1619610Y2691794D01*
X1624690Y2686714D01*
X1619610Y2681634D01*
X1614530Y2686714D01*
X1620780Y2675964D02*
X1625860Y2681044D01*
X1630940Y2675964D01*
X1625860Y2670884D01*
X1620780Y2675964D01*
X1494030Y2696464D02*
X1499110Y2701544D01*
X1504190Y2696464D01*
X1499110Y2691384D01*
X1494030Y2696464D01*
X1531530Y2693464D02*
X1536610Y2698544D01*
X1541690Y2693464D01*
X1536610Y2688384D01*
X1531530Y2693464D01*
X1379294Y2791144D02*
X1384374Y2796224D01*
X1389454Y2791144D01*
X1384374Y2786064D01*
X1379294Y2791144D01*
X1317318Y2793684D02*
X1322398Y2798764D01*
X1327478Y2793684D01*
X1322398Y2788604D01*
X1317318Y2793684D01*
X2396280Y2500964D02*
X2401360Y2506044D01*
X2406440Y2500964D01*
X2401360Y2495884D01*
X2396280Y2500964D01*
X1830280Y2313214D02*
X1835360Y2318294D01*
X1840440Y2313214D01*
X1835360Y2308134D01*
X1830280Y2313214D01*
X1871780Y2312964D02*
X1876860Y2318044D01*
X1881940Y2312964D01*
X1876860Y2307884D01*
X1871780Y2312964D01*
X1758780Y2313714D02*
X1763860Y2318794D01*
X1768940Y2313714D01*
X1763860Y2308634D01*
X1758780Y2313714D01*
X1681300Y2309052D02*
X1686380Y2314132D01*
X1691460Y2309052D01*
X1686380Y2303972D01*
X1681300Y2309052D01*
X1642530Y2313714D02*
X1647610Y2318794D01*
X1652690Y2313714D01*
X1647610Y2308634D01*
X1642530Y2313714D01*
X1682316Y2348676D02*
X1687396Y2353756D01*
X1692476Y2348676D01*
X1687396Y2343596D01*
X1682316Y2348676D01*
Y2333436D02*
X1687396Y2338516D01*
X1692476Y2333436D01*
X1687396Y2328356D01*
X1682316Y2333436D01*
X1875530Y2355214D02*
X1880610Y2360294D01*
X1885690Y2355214D01*
X1880610Y2350134D01*
X1875530Y2355214D01*
X1949530Y2322464D02*
X1954610Y2327544D01*
X1959690Y2322464D01*
X1954610Y2317384D01*
X1949530Y2322464D01*
X1949780Y2298964D02*
X1954860Y2304044D01*
X1959940Y2298964D01*
X1954860Y2293884D01*
X1949780Y2298964D01*
X1405806Y2218116D02*
X1410886Y2223196D01*
X1415966Y2218116D01*
X1410886Y2213036D01*
X1405806Y2218116D01*
X1629738Y2217612D02*
X1634818Y2222692D01*
X1639898Y2217612D01*
X1634818Y2212532D01*
X1629738Y2217612D01*
X1591892D02*
X1596972Y2222692D01*
X1602052Y2217612D01*
X1596972Y2212532D01*
X1591892Y2217612D01*
X1551780Y2110714D02*
X1556860Y2115794D01*
X1561940Y2110714D01*
X1556860Y2105634D01*
X1551780Y2110714D01*
X1632786Y2112710D02*
X1637866Y2117790D01*
X1642946Y2112710D01*
X1637866Y2107630D01*
X1632786Y2112710D01*
X1469351Y2128766D02*
X1474431Y2133846D01*
X1479511Y2128766D01*
X1474431Y2123685D01*
X1469351Y2128766D01*
X1378532Y2138110D02*
X1383612Y2143190D01*
X1388692Y2138110D01*
X1383612Y2133030D01*
X1378532Y2138110D01*
X1260280Y2162214D02*
X1265360Y2167294D01*
X1270440Y2162214D01*
X1265360Y2157134D01*
X1260280Y2162214D01*
X1283280Y2163214D02*
X1288360Y2168294D01*
X1293440Y2163214D01*
X1288360Y2158134D01*
X1283280Y2163214D01*
X1290394Y2155128D02*
X1295474Y2160208D01*
X1300554Y2155128D01*
X1295474Y2150048D01*
X1290394Y2155128D01*
X2513280Y2305964D02*
X2518360Y2311044D01*
X2523440Y2305964D01*
X2518360Y2300884D01*
X2513280Y2305964D01*
X2437530Y2321714D02*
X2442610Y2326794D01*
X2447690Y2321714D01*
X2442610Y2316634D01*
X2437530Y2321714D01*
X2518265Y2300980D02*
X2523345Y2306060D01*
X2528425Y2300980D01*
X2523345Y2295900D01*
X2518265Y2300980D01*
X2523280Y2296214D02*
X2528360Y2301294D01*
X2533440Y2296214D01*
X2528360Y2291134D01*
X2523280Y2296214D01*
X2444530Y2321714D02*
X2449610Y2326794D01*
X2454690Y2321714D01*
X2449610Y2316634D01*
X2444530Y2321714D01*
X2430530D02*
X2435610Y2326794D01*
X2440690Y2321714D01*
X2435610Y2316634D01*
X2430530Y2321714D01*
X3465277Y2268214D02*
X3470357Y2273294D01*
X3475437Y2268214D01*
X3470357Y2263134D01*
X3465277Y2268214D01*
X2395802Y2430972D02*
X2400882Y2436052D01*
X2405962Y2430972D01*
X2400882Y2425892D01*
X2395802Y2430972D01*
X2542106Y2914334D02*
X2547186Y2919414D01*
X2552266Y2914334D01*
X2547186Y2909254D01*
X2542106Y2914334D01*
X1411550Y2922464D02*
X1416631Y2927544D01*
X1421711Y2922464D01*
X1416631Y2917384D01*
X1411550Y2922464D01*
X1603320Y2922464D02*
X1608400Y2927544D01*
X1613480Y2922464D01*
X1608400Y2917384D01*
X1603320Y2922464D01*
X1791534Y2922714D02*
X1796615Y2927794D01*
X1801694Y2922714D01*
X1796615Y2917634D01*
X1791534Y2922714D01*
X1982039Y2922464D02*
X1987119Y2927544D01*
X1992198Y2922464D01*
X1987119Y2917384D01*
X1982039Y2922464D01*
X2169236Y2922464D02*
X2174316Y2927544D01*
X2179396Y2922464D01*
X2174316Y2917384D01*
X2169236Y2922464D01*
X2359486D02*
X2364566Y2927544D01*
X2369646Y2922464D01*
X2364566Y2917384D01*
X2359486Y2922464D01*
X3781372Y2921954D02*
X3786452Y2927034D01*
X3791532Y2921954D01*
X3786452Y2916874D01*
X3781372Y2921954D01*
X3596530Y2936756D02*
X3601610Y2941836D01*
X3606690Y2936756D01*
X3601610Y2931676D01*
X3596530Y2936756D01*
X2739486Y2922464D02*
X2744566Y2927544D01*
X2749646Y2922464D01*
X2744566Y2917384D01*
X2739486Y2922464D01*
X2929736D02*
X2934816Y2927544D01*
X2939896Y2922464D01*
X2934816Y2917384D01*
X2929736Y2922464D01*
X3119986D02*
X3125066Y2927544D01*
X3130146Y2922464D01*
X3125066Y2917384D01*
X3119986Y2922464D01*
X3309486D02*
X3314566Y2927544D01*
X3319646Y2922464D01*
X3314566Y2917384D01*
X3309486Y2922464D01*
X3499486D02*
X3504566Y2927544D01*
X3509646Y2922464D01*
X3504566Y2917384D01*
X3499486Y2922464D01*
X1127580Y2850834D02*
X1132660Y2855914D01*
X1137740Y2850834D01*
X1132660Y2845754D01*
X1127580Y2850834D01*
X1319858Y2811210D02*
X1324938Y2816290D01*
X1330018Y2811210D01*
X1324938Y2806130D01*
X1319858Y2811210D01*
X1509858D02*
X1514938Y2816290D01*
X1520018Y2811210D01*
X1514938Y2806130D01*
X1509858Y2811210D01*
X1700108Y2811460D02*
X1705188Y2816540D01*
X1710268Y2811460D01*
X1705188Y2806380D01*
X1700108Y2811460D01*
X1889858Y2812734D02*
X1894938Y2817814D01*
X1900018Y2812734D01*
X1894938Y2807654D01*
X1889858Y2812734D01*
X2276168Y2809432D02*
X2281248Y2814512D01*
X2286328Y2809432D01*
X2281248Y2804352D01*
X2276168Y2809432D01*
X2439236D02*
X2444316Y2814512D01*
X2449396Y2809432D01*
X2444316Y2804352D01*
X2439236Y2809432D01*
X2837254Y2799964D02*
X2842334Y2805044D01*
X2847415Y2799964D01*
X2842334Y2794884D01*
X2837254Y2799964D01*
X3026738D02*
X3031819Y2805044D01*
X3036898Y2799964D01*
X3031819Y2794884D01*
X3026738Y2799964D01*
X3214952D02*
X3220032Y2805044D01*
X3225112Y2799964D01*
X3220032Y2794884D01*
X3214952Y2799964D01*
X3409262D02*
X3414342Y2805044D01*
X3419422Y2799964D01*
X3414342Y2794884D01*
X3409262Y2799964D01*
X3398594Y2854390D02*
X3403674Y2859470D01*
X3408754Y2854390D01*
X3403674Y2849310D01*
X3398594Y2854390D01*
X3395304Y2857680D02*
X3400384Y2862760D01*
X3405464Y2857680D01*
X3400384Y2852600D01*
X3395304Y2857680D01*
X3611700Y2826958D02*
X3616780Y2832038D01*
X3621860Y2826958D01*
X3616780Y2821878D01*
X3611700Y2826958D01*
X3612462Y2816290D02*
X3617542Y2821370D01*
X3622622Y2816290D01*
X3617542Y2811210D01*
X3612462Y2816290D01*
X1434280Y2773994D02*
X1439360Y2779074D01*
X1444440Y2773994D01*
X1439360Y2768914D01*
X1434280Y2773994D01*
X1196922Y2775904D02*
X1202002Y2780984D01*
X1207082Y2775904D01*
X1202002Y2770824D01*
X1196922Y2775904D01*
X1624280Y2773748D02*
X1629360Y2778828D01*
X1634440Y2773748D01*
X1629360Y2768668D01*
X1624280Y2773748D01*
X1814530Y2774754D02*
X1819610Y2779834D01*
X1824690Y2774754D01*
X1819610Y2769674D01*
X1814530Y2774754D01*
X2004780Y2774750D02*
X2009860Y2779830D01*
X2014940Y2774750D01*
X2009860Y2769670D01*
X2004780Y2774750D01*
X1276177Y2731714D02*
X1281257Y2736794D01*
X1286337Y2731714D01*
X1281257Y2726634D01*
X1276177Y2731714D01*
X1506801Y2731964D02*
X1511880Y2737044D01*
X1516960Y2731964D01*
X1511880Y2726884D01*
X1506801Y2731964D01*
X1691712Y2731964D02*
X1696792Y2737044D01*
X1701872Y2731964D01*
X1696792Y2726884D01*
X1691712Y2731964D01*
X1884248Y2731964D02*
X1889328Y2737044D01*
X1894408Y2731964D01*
X1889328Y2726884D01*
X1884248Y2731964D01*
X2220542Y2237424D02*
X2225622Y2242504D01*
X2230702Y2237424D01*
X2225622Y2232344D01*
X2220542Y2237424D01*
X2195142Y2777174D02*
X2200222Y2782254D01*
X2205302Y2777174D01*
X2200222Y2772094D01*
X2195142Y2777174D01*
X2384372D02*
X2389452Y2782254D01*
X2394532Y2777174D01*
X2389452Y2772094D01*
X2384372Y2777174D01*
X2088462Y2738058D02*
X2093542Y2743138D01*
X2098622Y2738058D01*
X2093542Y2732978D01*
X2088462Y2738058D01*
X2269062Y2732464D02*
X2274142Y2737544D01*
X2279222Y2732464D01*
X2274142Y2727384D01*
X2269062Y2732464D01*
X2455490Y2731964D02*
X2460570Y2737044D01*
X2465650Y2731964D01*
X2460570Y2726884D01*
X2455490Y2731964D01*
X2646498Y2732214D02*
X2651578Y2737294D01*
X2656659Y2732214D01*
X2651578Y2727134D01*
X2646498Y2732214D01*
X2835982Y2731964D02*
X2841062Y2737044D01*
X2846142Y2731964D01*
X2841062Y2726884D01*
X2835982Y2731964D01*
X3025720D02*
X3030800Y2737044D01*
X3035880Y2731964D01*
X3030800Y2726884D01*
X3025720Y2731964D01*
X3215717D02*
X3220797Y2737044D01*
X3225876Y2731964D01*
X3220797Y2726884D01*
X3215717Y2731964D01*
X3406466D02*
X3411546Y2737044D01*
X3416626Y2731964D01*
X3411546Y2726884D01*
X3406466Y2731964D01*
X3590108D02*
X3595188Y2737044D01*
X3600268Y2731964D01*
X3595188Y2726884D01*
X3590108Y2731964D01*
X2489030Y2733964D02*
X2494110Y2739044D01*
X2499190Y2733964D01*
X2494110Y2728884D01*
X2489030Y2733964D01*
X3635322Y2512760D02*
X3640403Y2517840D01*
X3645482Y2512760D01*
X3640403Y2507680D01*
X3635322Y2512760D01*
X3639641Y2500314D02*
X3644720Y2505394D01*
X3649800Y2500314D01*
X3644720Y2495234D01*
X3639641Y2500314D01*
X3627195Y2519110D02*
X3632274Y2524190D01*
X3637354Y2519110D01*
X3632274Y2514030D01*
X3627195Y2519110D01*
X3557090Y2520126D02*
X3562170Y2525206D01*
X3567250Y2520126D01*
X3562170Y2515046D01*
X3557090Y2520126D01*
X3097203Y2391996D02*
X3102283Y2397076D01*
X3107363Y2391996D01*
X3102283Y2386916D01*
X3097203Y2391996D01*
X2714319Y2393380D02*
X2719398Y2398460D01*
X2724478Y2393380D01*
X2719398Y2388300D01*
X2714319Y2393380D01*
X2902532Y2398968D02*
X2907612Y2404048D01*
X2912692Y2398968D01*
X2907612Y2393888D01*
X2902532Y2398968D01*
X3282516Y2392110D02*
X3287596Y2397190D01*
X3292676Y2392110D01*
X3287596Y2387030D01*
X3282516Y2392110D01*
X1210689Y2419238D02*
X1215769Y2424318D01*
X1220849Y2419238D01*
X1215769Y2414158D01*
X1210689Y2419238D01*
X1588844Y2452816D02*
X1593924Y2457896D01*
X1599004Y2452816D01*
X1593924Y2447736D01*
X1588844Y2452816D01*
X1567254Y2444942D02*
X1572334Y2450022D01*
X1577414Y2444942D01*
X1572334Y2439862D01*
X1567254Y2444942D01*
X1555316Y2443672D02*
X1560396Y2448752D01*
X1565476Y2443672D01*
X1560396Y2438592D01*
X1555316Y2443672D01*
X1437731Y2420287D02*
X1442811Y2425367D01*
X1447891Y2420287D01*
X1442811Y2415207D01*
X1437731Y2420287D01*
X1568033D02*
X1573113Y2425367D01*
X1578193Y2420287D01*
X1573113Y2415207D01*
X1568033Y2420287D01*
X1772232Y2440370D02*
X1777312Y2445450D01*
X1782392Y2440370D01*
X1777312Y2435290D01*
X1772232Y2440370D01*
X1775534Y2443418D02*
X1780614Y2448498D01*
X1785694Y2443418D01*
X1780614Y2438338D01*
X1775534Y2443418D01*
X2552266Y2630108D02*
X2557346Y2635188D01*
X2562426Y2630108D01*
X2557346Y2625028D01*
X2552266Y2630108D01*
Y2635442D02*
X2557346Y2640522D01*
X2562426Y2635442D01*
X2557346Y2630362D01*
X2552266Y2635442D01*
X2702126Y2642808D02*
X2707206Y2647888D01*
X2712286Y2642808D01*
X2707206Y2637728D01*
X2702126Y2642808D01*
X2707715D02*
X2712794Y2647888D01*
X2717874Y2642808D01*
X2712794Y2637728D01*
X2707715Y2642808D01*
X1147392Y2444942D02*
X1152472Y2450022D01*
X1157552Y2444942D01*
X1152472Y2439862D01*
X1147392Y2444942D01*
X1141296D02*
X1146376Y2450022D01*
X1151456Y2444942D01*
X1146376Y2439862D01*
X1141296Y2444942D01*
X1151964Y2482788D02*
X1157044Y2487868D01*
X1162124Y2482788D01*
X1157044Y2477708D01*
X1151964Y2482788D01*
X1143836D02*
X1148916Y2487868D01*
X1153996Y2482788D01*
X1148916Y2477708D01*
X1143836Y2482788D01*
X2469462Y2854390D02*
X2474542Y2859470D01*
X2479622Y2854390D01*
X2474542Y2849310D01*
X2469462Y2854390D01*
X2474796Y2854136D02*
X2479876Y2859216D01*
X2484956Y2854136D01*
X2479876Y2849056D01*
X2474796Y2854136D01*
X2480384Y2853714D02*
X2485464Y2858794D01*
X2490544Y2853714D01*
X2485464Y2848634D01*
X2480384Y2853714D01*
X2680049Y2626572D02*
X2685128Y2631652D01*
X2690208Y2626572D01*
X2685128Y2621492D01*
X2680049Y2626572D01*
X2681806Y2628838D02*
X2686886Y2633918D01*
X2691966Y2628838D01*
X2686886Y2623758D01*
X2681806Y2628838D01*
X2528947Y2621014D02*
X2534027Y2626094D01*
X2539107Y2621014D01*
X2534027Y2615934D01*
X2528947Y2621014D01*
X2530930Y2623250D02*
X2536010Y2628330D01*
X2541090Y2623250D01*
X2536010Y2618170D01*
X2530930Y2623250D01*
X2129530Y2671938D02*
X2134610Y2677018D01*
X2139690Y2671938D01*
X2134610Y2666858D01*
X2129530Y2671938D01*
Y2666684D02*
X2134610Y2671764D01*
X2139690Y2666684D01*
X2134610Y2661604D01*
X2129530Y2666684D01*
X2514166Y2638236D02*
X2519246Y2643316D01*
X2524326Y2638236D01*
X2519246Y2633156D01*
X2514166Y2638236D01*
Y2630870D02*
X2519246Y2635950D01*
X2524326Y2630870D01*
X2519246Y2625790D01*
X2514166Y2630870D01*
X2245030Y2874214D02*
X2250110Y2879294D01*
X2255190Y2874214D01*
X2250110Y2869134D01*
X2245030Y2874214D01*
X1630419Y2178226D02*
X1635499Y2183306D01*
X1640579Y2178226D01*
X1635499Y2173146D01*
X1630419Y2178226D01*
X1625580Y2172842D02*
X1630660Y2177922D01*
X1635740Y2172842D01*
X1630660Y2167762D01*
X1625580Y2172842D01*
X1523058Y2191881D02*
X1528138Y2196961D01*
X1533218Y2191881D01*
X1528138Y2186801D01*
X1523058Y2191881D01*
X1271941Y2215966D02*
X1277021Y2221046D01*
X1282101Y2215966D01*
X1277021Y2210886D01*
X1271941Y2215966D01*
X1328336Y2249889D02*
X1333416Y2254969D01*
X1338496Y2249889D01*
X1333416Y2244809D01*
X1328336Y2249889D01*
X1876321Y2810991D02*
X1881401Y2816071D01*
X1886481Y2810991D01*
X1881401Y2805911D01*
X1876321Y2810991D01*
X1803152Y2831259D02*
X1808232Y2836339D01*
X1813312Y2831259D01*
X1808232Y2826179D01*
X1803152Y2831259D01*
X2445218Y2700244D02*
X2450298Y2705323D01*
X2455378Y2700244D01*
X2450298Y2695163D01*
X2445218Y2700244D01*
X2456830Y2703469D02*
X2461911Y2708549D01*
X2466991Y2703469D01*
X2461911Y2698389D01*
X2456830Y2703469D01*
X3562369Y2370582D02*
X3567449Y2375662D01*
X3572529Y2370582D01*
X3567449Y2365502D01*
X3562369Y2370582D01*
X3575917Y2364507D02*
X3580997Y2369587D01*
X3586077Y2364507D01*
X3580997Y2359427D01*
X3575917Y2364507D01*
X2049280Y2234017D02*
X2054360Y2239097D01*
X2059440Y2234017D01*
X2054360Y2228937D01*
X2049280Y2234017D01*
X2437530Y2241017D02*
X2442610Y2246097D01*
X2447690Y2241017D01*
X2442610Y2235937D01*
X2437530Y2241017D01*
X2743280Y2799964D02*
X2748360Y2805044D01*
X2753441Y2799964D01*
X2748360Y2794884D01*
X2743280Y2799964D01*
X2639030Y2876214D02*
X2644110Y2881294D01*
X2649190Y2876214D01*
X2644110Y2871134D01*
X2639030Y2876214D01*
Y2865464D02*
X2644110Y2870544D01*
X2649190Y2865464D01*
X2644110Y2860384D01*
X2639030Y2865464D01*
X2575031Y2870214D02*
X2580110Y2875294D01*
X2585190Y2870214D01*
X2580110Y2865134D01*
X2575031Y2870214D01*
X2586530Y2818214D02*
X2591610Y2823294D01*
X2596690Y2818214D01*
X2591610Y2813134D01*
X2586530Y2818214D01*
X2615031Y2817464D02*
X2620110Y2822544D01*
X2625190Y2817464D01*
X2620110Y2812384D01*
X2615031Y2817464D01*
X2585530Y2825714D02*
X2590610Y2830794D01*
X2595690Y2825714D01*
X2590610Y2820634D01*
X2585530Y2825714D01*
X2637734Y2836964D02*
X2642814Y2842044D01*
X2647894Y2836964D01*
X2642814Y2831884D01*
X2637734Y2836964D01*
X2638530Y2826840D02*
X2643611Y2831920D01*
X2648690Y2826840D01*
X2643611Y2821760D01*
X2638530Y2826840D01*
X2639780Y2818714D02*
X2644861Y2823794D01*
X2649940Y2818714D01*
X2644861Y2813634D01*
X2639780Y2818714D01*
D93*
X3859437Y2568814D02*
G03*
X3859437Y2568814I-5080J0D01*
G01*
X3795937Y2543414D02*
G03*
X3795937Y2543414I-5080J0D01*
G01*
X3645738Y2473814D02*
G03*
X3645738Y2473814I-5080J0D01*
G01*
X3582238Y2448414D02*
G03*
X3582238Y2448414I-5080J0D01*
G01*
X1183460Y2257744D02*
G03*
X1183460Y2257744I-5080J0D01*
G01*
X1246960Y2283144D02*
G03*
X1246960Y2283144I-5080J0D01*
G01*
X1460738Y2283814D02*
G03*
X1460738Y2283814I-5080J0D01*
G01*
X1397238Y2258414D02*
G03*
X1397238Y2258414I-5080J0D01*
G01*
M02*
