G04 Layer_Color=128*
%FSLAX44Y44*%
%MOMM*%
G71*
G01*
G75*
%ADD10C,0.1000*%
%ADD19C,0.2032*%
%ADD50C,0.1270*%
D10*
X3521904Y2473932D02*
Y2509932D01*
X3536904Y2473932D02*
Y2509932D01*
X3521904D02*
X3536904D01*
X3521904Y2473932D02*
X3536904D01*
X1429198Y2243740D02*
X1444198Y2243740D01*
X1429198Y2207740D02*
X1444198Y2207740D01*
X1429198Y2207740D02*
Y2243740D01*
X1444198Y2207740D02*
Y2243740D01*
X1265622Y2789400D02*
X1280622Y2789400D01*
X1265622Y2825400D02*
X1280622Y2825400D01*
Y2789400D02*
Y2825400D01*
X1265622Y2789400D02*
Y2825400D01*
X1455360Y2809974D02*
Y2845974D01*
X1470360Y2809974D02*
Y2845974D01*
X1455360Y2845974D02*
X1470360Y2845974D01*
X1455360Y2809974D02*
X1470360Y2809974D01*
X1648400Y2810482D02*
X1663400Y2810482D01*
X1648400Y2846482D02*
X1663400Y2846482D01*
Y2810482D02*
Y2846482D01*
X1648400Y2810482D02*
Y2846482D01*
X1833312Y2812260D02*
X1848312D01*
X1833312Y2848260D02*
X1848312D01*
Y2812260D02*
Y2848260D01*
X1833312Y2812260D02*
Y2848260D01*
X2024574Y2824706D02*
X2039574D01*
X2024574Y2860706D02*
X2039574D01*
Y2824706D02*
Y2860706D01*
X2024574Y2824706D02*
Y2860706D01*
X2217106Y2819626D02*
X2232106D01*
X2217106Y2855626D02*
X2232106D01*
Y2819626D02*
Y2855626D01*
X2217106Y2819626D02*
Y2855626D01*
X2351360Y2800214D02*
Y2815214D01*
X2387360Y2800214D02*
Y2815214D01*
X2351360Y2800214D02*
X2387360D01*
X2351360Y2815214D02*
X2387360D01*
X2543360Y2803964D02*
Y2818964D01*
X2579360Y2803964D02*
Y2818964D01*
X2543360Y2803964D02*
X2579360D01*
X2543360Y2818964D02*
X2579360D01*
X2733360Y2804214D02*
Y2819214D01*
X2769360Y2804214D02*
Y2819214D01*
X2733360Y2804214D02*
X2769360D01*
X2733360Y2819214D02*
X2769360D01*
X2922361Y2803464D02*
Y2818464D01*
X2958360Y2803464D02*
Y2818464D01*
X2922361Y2803464D02*
X2958360D01*
X2922361Y2818464D02*
X2958360D01*
X3117860Y2801214D02*
Y2816214D01*
X3153860Y2801214D02*
Y2816214D01*
X3117860Y2801214D02*
X3153860D01*
X3117860Y2816214D02*
X3153860D01*
X3302110Y2800214D02*
Y2815214D01*
X3338110Y2800214D02*
Y2815214D01*
X3302110Y2800214D02*
X3338110D01*
X3302110Y2815214D02*
X3338110D01*
X3491610Y2803964D02*
Y2818964D01*
X3527610Y2803964D02*
Y2818964D01*
X3491610Y2803964D02*
X3527610D01*
X3491610Y2818964D02*
X3527610D01*
X3775860Y2800214D02*
Y2815214D01*
X3811860Y2800214D02*
Y2815214D01*
X3775860Y2800214D02*
X3811860D01*
X3775860Y2815214D02*
X3811860D01*
X1324296Y2620998D02*
X1339296Y2620998D01*
X1324296Y2656998D02*
X1339296Y2656998D01*
Y2620998D02*
Y2656998D01*
X1324296Y2620998D02*
Y2656998D01*
X1497860Y2615464D02*
Y2630464D01*
X1533860Y2615464D02*
Y2630464D01*
X1497860Y2615464D02*
X1533860D01*
X1497860Y2630464D02*
X1533860D01*
X1688610Y2615714D02*
Y2630714D01*
X1724610Y2615714D02*
Y2630714D01*
X1688610Y2615714D02*
X1724610D01*
X1688610Y2630714D02*
X1724610D01*
X1882610Y2628714D02*
X1918610D01*
X1882610Y2613714D02*
X1918610D01*
Y2628714D01*
X1882610Y2613714D02*
Y2628714D01*
X2066360Y2616714D02*
Y2631714D01*
X2102360Y2616714D02*
Y2631714D01*
X2066360Y2616714D02*
X2102360D01*
X2066360Y2631714D02*
X2102360D01*
X2256860Y2613964D02*
Y2628964D01*
X2292860Y2613964D02*
Y2628964D01*
X2256860Y2613964D02*
X2292860D01*
X2256860Y2628964D02*
X2292860D01*
X2447360Y2614964D02*
Y2629964D01*
X2483360Y2614964D02*
Y2629964D01*
X2447360Y2614964D02*
X2483360D01*
X2447360Y2629964D02*
X2483360D01*
X2637110Y2614214D02*
Y2629214D01*
X2673110Y2614214D02*
Y2629214D01*
X2637110Y2614214D02*
X2673110D01*
X2637110Y2629214D02*
X2673110D01*
X2827610Y2615714D02*
Y2630714D01*
X2863611Y2615714D02*
Y2630714D01*
X2827610Y2615714D02*
X2863611D01*
X2827610Y2630714D02*
X2863611D01*
X3017110Y2613214D02*
Y2628214D01*
X3053110Y2613214D02*
Y2628214D01*
X3017110Y2613214D02*
X3053110D01*
X3017110Y2628214D02*
X3053110D01*
X3206360Y2613464D02*
Y2628464D01*
X3242361Y2613464D02*
Y2628464D01*
X3206360Y2613464D02*
X3242361D01*
X3206360Y2628464D02*
X3242361D01*
X3399360Y2613714D02*
Y2628714D01*
X3435360Y2613714D02*
Y2628714D01*
X3399360Y2613714D02*
X3435360D01*
X3399360Y2628714D02*
X3435360D01*
X3629854Y2614902D02*
Y2650902D01*
X3644854Y2614902D02*
Y2650902D01*
X3629854D02*
X3644854D01*
X3629854Y2614902D02*
X3644854D01*
X3703514Y2637254D02*
X3718514Y2637254D01*
X3703514Y2673254D02*
X3718514Y2673254D01*
Y2637254D02*
Y2673254D01*
X3703514Y2637254D02*
Y2673254D01*
X3710610Y2247964D02*
X3746610D01*
X3710610Y2232964D02*
X3746610D01*
Y2247964D01*
X3710610Y2232964D02*
Y2247964D01*
X1284360Y2425964D02*
Y2440964D01*
X1320360Y2425964D02*
Y2440964D01*
X1284360Y2425964D02*
X1320360D01*
X1284360Y2440964D02*
X1320360D01*
X1605220Y2488410D02*
X1620220Y2488410D01*
X1605220Y2524410D02*
X1620220Y2524410D01*
Y2488410D02*
Y2524410D01*
X1605220Y2488410D02*
Y2524410D01*
X1712389Y2427493D02*
Y2442493D01*
X1748389Y2427493D02*
Y2442493D01*
X1712389Y2427493D02*
X1748389D01*
X1712389Y2442493D02*
X1748389D01*
X1976610Y2461964D02*
X1991610D01*
X1976610Y2497964D02*
X1991610D01*
Y2461964D02*
Y2497964D01*
X1976610Y2461964D02*
Y2497964D01*
X2112360Y2424714D02*
Y2439714D01*
X2148360Y2424714D02*
Y2439714D01*
X2112360Y2424714D02*
X2148360D01*
X2112360Y2439714D02*
X2148360D01*
X2194110Y2447714D02*
X2209110D01*
X2194110Y2483714D02*
X2209110D01*
Y2447714D02*
Y2483714D01*
X2194110Y2447714D02*
Y2483714D01*
X2377110Y2448214D02*
X2392110D01*
X2377110Y2484214D02*
X2392110D01*
Y2448214D02*
Y2484214D01*
X2377110Y2448214D02*
Y2484214D01*
X2685110Y2424714D02*
Y2439714D01*
X2721111Y2424714D02*
Y2439714D01*
X2685110Y2424714D02*
X2721111D01*
X2685110Y2439714D02*
X2721111D01*
X2874610Y2423964D02*
Y2438964D01*
X2910610Y2423964D02*
Y2438964D01*
X2874610Y2423964D02*
X2910610D01*
X2874610Y2438964D02*
X2910610D01*
X3063860Y2424464D02*
Y2439464D01*
X3099861Y2424464D02*
Y2439464D01*
X3063860Y2424464D02*
X3099861D01*
X3063860Y2439464D02*
X3099861D01*
X3255110Y2422214D02*
Y2437214D01*
X3291111Y2422214D02*
Y2437214D01*
X3255110Y2422214D02*
X3291111D01*
X3255110Y2437214D02*
X3291111D01*
X3445110Y2422214D02*
Y2437214D01*
X3481111Y2422214D02*
Y2437214D01*
X3445110Y2422214D02*
X3481111D01*
X3445110Y2437214D02*
X3481111D01*
X3755360Y2423464D02*
Y2438464D01*
X3791360Y2423464D02*
Y2438464D01*
X3755360Y2423464D02*
X3791360D01*
X3755360Y2438464D02*
X3791360D01*
X1315152Y2219610D02*
X1330152D01*
X1315152Y2183610D02*
X1330152D01*
X1315152D02*
Y2219610D01*
X1330152Y2183610D02*
Y2219610D01*
X1643110Y2234714D02*
Y2249714D01*
X1679110Y2234714D02*
Y2249714D01*
X1643110Y2234714D02*
X1679110D01*
X1643110Y2249714D02*
X1679110D01*
X1806067Y2232118D02*
Y2247118D01*
X1842067Y2232118D02*
Y2247118D01*
X1806067Y2232118D02*
X1842067D01*
X1806067Y2247118D02*
X1842067D01*
X1998091Y2232372D02*
Y2247372D01*
X2034091Y2232372D02*
Y2247372D01*
X1998091Y2232372D02*
X2034091D01*
X1998091Y2247372D02*
X2034091D01*
X2198610Y2229464D02*
Y2244464D01*
X2234610Y2229464D02*
Y2244464D01*
X2198610Y2229464D02*
X2234610D01*
X2198610Y2244464D02*
X2234610D01*
X2378329Y2231864D02*
Y2246864D01*
X2414329Y2231864D02*
Y2246864D01*
X2378329Y2231864D02*
X2414329D01*
X2378329Y2246864D02*
X2414329D01*
X2635610Y2285214D02*
Y2321214D01*
X2650610Y2285214D02*
Y2321214D01*
X2635610D02*
X2650610D01*
X2635610Y2285214D02*
X2650610D01*
X2772361Y2238214D02*
Y2253214D01*
X2808360Y2238214D02*
Y2253214D01*
X2772361Y2238214D02*
X2808360D01*
X2772361Y2253214D02*
X2808360D01*
X2968110Y2230214D02*
Y2245214D01*
X3004110Y2230214D02*
Y2245214D01*
X2968110Y2230214D02*
X3004110D01*
X2968110Y2245214D02*
X3004110D01*
X3164110Y2232964D02*
Y2247964D01*
X3200110Y2232964D02*
Y2247964D01*
X3164110Y2232964D02*
X3200110D01*
X3164110Y2247964D02*
X3200110D01*
X3352361Y2232964D02*
Y2247964D01*
X3388360Y2232964D02*
Y2247964D01*
X3352361Y2232964D02*
X3388360D01*
X3352361Y2247964D02*
X3388360D01*
X1278360Y2067714D02*
X1293360D01*
X1278360Y2103714D02*
X1293360D01*
Y2067714D02*
Y2103714D01*
X1278360Y2067714D02*
Y2103714D01*
X1522110Y2067964D02*
X1537110D01*
X1522110Y2103964D02*
X1537110D01*
Y2067964D02*
Y2103964D01*
X1522110Y2067964D02*
Y2103964D01*
X1579860Y2067964D02*
X1594860D01*
X1579860Y2103964D02*
X1594860D01*
Y2067964D02*
Y2103964D01*
X1579860Y2067964D02*
Y2103964D01*
X2466610Y2093464D02*
Y2129464D01*
X2481610Y2093464D02*
Y2129464D01*
X2466610D02*
X2481610D01*
X2466610Y2093464D02*
X2481610D01*
X3195880Y2067334D02*
X3210880D01*
X3195880Y2103334D02*
X3210880D01*
Y2067334D02*
Y2103334D01*
X3195880Y2067334D02*
Y2103334D01*
X3420610Y2067214D02*
X3435610D01*
X3420610Y2103214D02*
X3435610D01*
Y2067214D02*
Y2103214D01*
X3420610Y2067214D02*
Y2103214D01*
X3667361Y2067964D02*
X3682361D01*
X3667361Y2103964D02*
X3682361D01*
Y2067964D02*
Y2103964D01*
X3667361Y2067964D02*
Y2103964D01*
X3876860Y2124714D02*
X3891860D01*
X3876860Y2160714D02*
X3891860D01*
Y2124714D02*
Y2160714D01*
X3876860Y2124714D02*
Y2160714D01*
D19*
X3523896Y2520488D02*
X3533896D01*
X3528896Y2515598D02*
Y2525598D01*
X3524738Y2465008D02*
X3534738D01*
X1431364Y2252664D02*
X1441364Y2252664D01*
X1437207Y2192074D02*
Y2202074D01*
X1432207Y2197184D02*
X1442206D01*
X1268456Y2780476D02*
X1278456D01*
X1272614Y2831066D02*
X1272614Y2841066D01*
X1267614Y2835956D02*
X1277614Y2835956D01*
X1457352Y2856530D02*
X1467352Y2856530D01*
X1462352Y2851640D02*
X1462352Y2861640D01*
X1458194Y2801050D02*
X1468194D01*
X1651234Y2801558D02*
X1661234D01*
X1655392Y2852148D02*
X1655392Y2862148D01*
X1650392Y2857038D02*
X1660392Y2857038D01*
X1836146Y2803336D02*
X1846146D01*
X1840304Y2853926D02*
X1840304Y2863926D01*
X1835304Y2858816D02*
X1845304D01*
X2027408Y2815782D02*
X2037408D01*
X2031566Y2866372D02*
X2031566Y2876372D01*
X2026566Y2871262D02*
X2036566D01*
X2219940Y2810702D02*
X2229940D01*
X2224098Y2861292D02*
X2224098Y2871292D01*
X2219098Y2866182D02*
X2229098D01*
X2342436Y2802380D02*
Y2812380D01*
X2393026Y2808222D02*
X2403026D01*
X2397916Y2803222D02*
Y2813222D01*
X2534436Y2806130D02*
Y2816130D01*
X2585027Y2811972D02*
X2595027D01*
X2589916Y2806972D02*
Y2816972D01*
X2724436Y2806380D02*
Y2816380D01*
X2775027Y2812222D02*
X2785027D01*
X2779916Y2807222D02*
Y2817222D01*
X2913436Y2805630D02*
Y2815630D01*
X2964026Y2811472D02*
X2974026D01*
X2968916Y2806472D02*
Y2816472D01*
X3108936Y2803380D02*
Y2813380D01*
X3159526Y2809222D02*
X3169526D01*
X3164417Y2804222D02*
Y2814222D01*
X3293186Y2802380D02*
Y2812380D01*
X3343777Y2808222D02*
X3353777D01*
X3348666Y2803222D02*
Y2813222D01*
X3482686Y2806130D02*
Y2816130D01*
X3533276Y2811972D02*
X3543276D01*
X3538167Y2806972D02*
Y2816972D01*
X3766936Y2802380D02*
Y2812380D01*
X3817527Y2808222D02*
X3827527D01*
X3822416Y2803222D02*
Y2813222D01*
X1327130Y2612074D02*
X1337130D01*
X1331288Y2662664D02*
X1331288Y2672664D01*
X1326288Y2667554D02*
X1336288Y2667554D01*
X1488936Y2617630D02*
Y2627630D01*
X1539526Y2623472D02*
X1549526D01*
X1544416Y2618472D02*
Y2628472D01*
X1679686Y2617880D02*
Y2627880D01*
X1730276Y2623722D02*
X1740276D01*
X1735166Y2618722D02*
Y2628722D01*
X1929166Y2616722D02*
Y2626722D01*
X1924276Y2621722D02*
X1934276D01*
X1873686Y2615880D02*
Y2625880D01*
X2057436Y2618880D02*
Y2628880D01*
X2108026Y2624722D02*
X2118026D01*
X2112916Y2619722D02*
Y2629722D01*
X2247936Y2616130D02*
Y2626130D01*
X2298526Y2621972D02*
X2308526D01*
X2303416Y2616972D02*
Y2626972D01*
X2438436Y2617130D02*
Y2627130D01*
X2489026Y2622972D02*
X2499026D01*
X2493916Y2617972D02*
Y2627972D01*
X2628186Y2616380D02*
Y2626380D01*
X2678777Y2622222D02*
X2688777D01*
X2683666Y2617222D02*
Y2627222D01*
X2818687Y2617880D02*
Y2627880D01*
X2869276Y2623722D02*
X2879276D01*
X2874166Y2618722D02*
Y2628722D01*
X3008186Y2615380D02*
Y2625380D01*
X3058777Y2621222D02*
X3068777D01*
X3063666Y2616222D02*
Y2626222D01*
X3197437Y2615630D02*
Y2625630D01*
X3248026Y2621472D02*
X3258026D01*
X3252916Y2616472D02*
Y2626472D01*
X3390436Y2615880D02*
Y2625880D01*
X3441026Y2621722D02*
X3451026D01*
X3445916Y2616722D02*
Y2626722D01*
X3631846Y2661458D02*
X3641846D01*
X3636846Y2656568D02*
X3636846Y2666568D01*
X3632688Y2605978D02*
X3642688D01*
X3706348Y2628330D02*
X3716348D01*
X3710506Y2678920D02*
X3710506Y2688920D01*
X3705506Y2683810D02*
X3715506Y2683810D01*
X3757166Y2235972D02*
Y2245972D01*
X3752276Y2240972D02*
X3762276D01*
X3701686Y2235130D02*
Y2245130D01*
X1275436Y2428130D02*
Y2438130D01*
X1326026Y2433972D02*
X1336026D01*
X1330916Y2428972D02*
Y2438972D01*
X1608054Y2479486D02*
X1618054D01*
X1612212Y2530076D02*
X1612212Y2540076D01*
X1607212Y2534966D02*
X1617212Y2534966D01*
X1703465Y2429659D02*
Y2439659D01*
X1754055Y2435501D02*
X1764055D01*
X1758945Y2430501D02*
Y2440501D01*
X1979444Y2453040D02*
X1989444D01*
X1983602Y2503630D02*
Y2513630D01*
X1978602Y2508520D02*
X1988602D01*
X2103436Y2426880D02*
Y2436880D01*
X2154026Y2432722D02*
X2164026D01*
X2158916Y2427722D02*
Y2437722D01*
X2196944Y2438790D02*
X2206944D01*
X2201102Y2489380D02*
Y2499380D01*
X2196102Y2494270D02*
X2206102D01*
X2379944Y2439290D02*
X2389944D01*
X2384102Y2489880D02*
Y2499880D01*
X2379102Y2494770D02*
X2389102D01*
X2676187Y2426880D02*
Y2436880D01*
X2726776Y2432722D02*
X2736776D01*
X2731666Y2427722D02*
Y2437722D01*
X2865686Y2426130D02*
Y2436130D01*
X2916277Y2431972D02*
X2926277D01*
X2921166Y2426972D02*
Y2436972D01*
X3054937Y2426630D02*
Y2436630D01*
X3105526Y2432472D02*
X3115526D01*
X3110416Y2427472D02*
Y2437472D01*
X3246187Y2424380D02*
Y2434380D01*
X3296776Y2430222D02*
X3306776D01*
X3301666Y2425222D02*
Y2435222D01*
X3436187Y2424380D02*
Y2434380D01*
X3486776Y2430222D02*
X3496776D01*
X3491666Y2425222D02*
Y2435222D01*
X3746436Y2425630D02*
Y2435630D01*
X3797026Y2431472D02*
X3807026D01*
X3801917Y2426472D02*
Y2436472D01*
X1317318Y2228534D02*
X1327318D01*
X1323160Y2167944D02*
X1323160Y2177944D01*
X1318160Y2173054D02*
X1328160Y2173054D01*
X1634186Y2236880D02*
Y2246880D01*
X1684776Y2242722D02*
X1694776D01*
X1689666Y2237722D02*
Y2247722D01*
X1797143Y2234284D02*
Y2244284D01*
X1847733Y2240126D02*
X1857733D01*
X1852623Y2235126D02*
Y2245126D01*
X1989167Y2234538D02*
Y2244538D01*
X2039757Y2240380D02*
X2049757D01*
X2044647Y2235380D02*
Y2245380D01*
X2189686Y2231630D02*
Y2241630D01*
X2240276Y2237472D02*
X2250276D01*
X2245166Y2232472D02*
Y2242472D01*
X2369405Y2234030D02*
Y2244030D01*
X2419995Y2239872D02*
X2429995D01*
X2424885Y2234872D02*
Y2244872D01*
X2637603Y2331770D02*
X2647603D01*
X2642603Y2326880D02*
Y2336880D01*
X2638445Y2276290D02*
X2648445D01*
X2763436Y2240380D02*
Y2250380D01*
X2814026Y2246222D02*
X2824026D01*
X2818916Y2241222D02*
Y2251222D01*
X2959186Y2232380D02*
Y2242380D01*
X3009776Y2238222D02*
X3019776D01*
X3014666Y2233222D02*
Y2243222D01*
X3155186Y2235130D02*
Y2245130D01*
X3205776Y2240972D02*
X3215776D01*
X3210667Y2235972D02*
Y2245972D01*
X3343436Y2235130D02*
Y2245130D01*
X3394026Y2240972D02*
X3404026D01*
X3398916Y2235972D02*
Y2245972D01*
X1281194Y2058790D02*
X1291194D01*
X1285352Y2109380D02*
Y2119380D01*
X1280352Y2114270D02*
X1290352D01*
X1524944Y2059040D02*
X1534944D01*
X1529102Y2109630D02*
Y2119630D01*
X1524102Y2114520D02*
X1534102D01*
X1582694Y2059040D02*
X1592694D01*
X1586852Y2109630D02*
Y2119630D01*
X1581852Y2114520D02*
X1591852D01*
X2468602Y2140020D02*
X2478602D01*
X2473602Y2135130D02*
Y2145130D01*
X2469444Y2084540D02*
X2479444D01*
X3198714Y2058410D02*
X3208714D01*
X3202872Y2109000D02*
Y2119000D01*
X3197872Y2113890D02*
X3207872D01*
X3423445Y2058290D02*
X3433445D01*
X3427603Y2108880D02*
Y2118880D01*
X3422603Y2113770D02*
X3432603D01*
X3670194Y2059040D02*
X3680194D01*
X3674352Y2109630D02*
Y2119630D01*
X3669352Y2114520D02*
X3679352D01*
X3879695Y2115790D02*
X3889695D01*
X3883853Y2166380D02*
Y2176380D01*
X3878853Y2171270D02*
X3888853D01*
D50*
X2582484Y2084856D02*
X2590484D01*
X2586484Y2080856D02*
Y2088856D01*
X2562484Y2084856D02*
X2570484D01*
X2566484Y2080856D02*
Y2088856D01*
X2542484Y2084856D02*
X2550484D01*
X2546484Y2080856D02*
Y2088856D01*
X2522484Y2084856D02*
X2530484D01*
X2526485Y2080856D02*
Y2088856D01*
X3847857Y2568814D02*
X3860857D01*
X3854357Y2562314D02*
Y2575314D01*
X3784357Y2543414D02*
X3797357D01*
X3790857Y2536914D02*
Y2549914D01*
X3634158Y2473814D02*
X3647158D01*
X3640658Y2467314D02*
Y2480314D01*
X3570658Y2448414D02*
X3583658D01*
X3577158Y2441914D02*
Y2454914D01*
X1171880Y2257744D02*
X1184880D01*
X1178380Y2251244D02*
Y2264244D01*
X1235380Y2283144D02*
X1248380D01*
X1241880Y2276644D02*
Y2289644D01*
X1449158Y2283814D02*
X1462158D01*
X1455658Y2277314D02*
Y2290314D01*
X1385658Y2258414D02*
X1398658D01*
X1392158Y2251914D02*
Y2264914D01*
X1408367Y2068414D02*
X1423367D01*
X1415867Y2060914D02*
Y2075914D01*
X1471867Y2093814D02*
X1486867D01*
X1479367Y2086314D02*
Y2101314D01*
X2540950Y2853714D02*
X2555950D01*
X2548450Y2846214D02*
Y2861214D01*
X2477450Y2828314D02*
X2492450D01*
X2484950Y2820814D02*
Y2835814D01*
X1527457Y2828314D02*
X1542457D01*
X1534957Y2820814D02*
Y2835814D01*
X1590957Y2853714D02*
X1605957D01*
X1598457Y2846214D02*
Y2861214D01*
X1147250Y2828314D02*
X1162250D01*
X1154750Y2820814D02*
Y2835814D01*
X1210750Y2853714D02*
X1225750D01*
X1218250Y2846214D02*
Y2861214D01*
X1400877Y2853714D02*
X1415877D01*
X1408377Y2846214D02*
Y2861214D01*
X1337377Y2828314D02*
X1352377D01*
X1344877Y2820814D02*
Y2835814D01*
X1781004Y2853714D02*
X1796004D01*
X1788504Y2846214D02*
Y2861214D01*
X1717504Y2828314D02*
X1732504D01*
X1725004Y2820814D02*
Y2835814D01*
X1907260Y2828314D02*
X1922260D01*
X1914760Y2820814D02*
Y2835814D01*
X1970760Y2853714D02*
X1985760D01*
X1978260Y2846214D02*
Y2861214D01*
X2096984Y2828314D02*
X2111984D01*
X2104484Y2820814D02*
Y2835814D01*
X2160484Y2853714D02*
X2175484D01*
X2167984Y2846214D02*
Y2861214D01*
X2350710Y2853814D02*
X2365710D01*
X2358210Y2846314D02*
Y2861314D01*
X2287210Y2828414D02*
X2302210D01*
X2294710Y2820914D02*
Y2835914D01*
X2667417Y2828314D02*
X2682417D01*
X2674917Y2820814D02*
Y2835814D01*
X2730917Y2853714D02*
X2745917D01*
X2738417Y2846214D02*
Y2861214D01*
X2857527Y2828314D02*
X2872527D01*
X2865027Y2820814D02*
Y2835814D01*
X2921027Y2853714D02*
X2936027D01*
X2928527Y2846214D02*
Y2861214D01*
X3047634Y2828314D02*
X3062634D01*
X3055134Y2820814D02*
Y2835814D01*
X3111134Y2853714D02*
X3126134D01*
X3118634Y2846214D02*
Y2861214D01*
X3300730Y2853714D02*
X3315730D01*
X3308230Y2846214D02*
Y2861214D01*
X3237231Y2828314D02*
X3252231D01*
X3244731Y2820814D02*
Y2835814D01*
X3427340Y2828314D02*
X3442340D01*
X3434840Y2820814D02*
Y2835814D01*
X3490840Y2853714D02*
X3505840D01*
X3498340Y2846214D02*
Y2861214D01*
X3775394Y2853714D02*
X3790394D01*
X3782894Y2846214D02*
Y2861214D01*
X3711894Y2828314D02*
X3726894D01*
X3719394Y2820814D02*
Y2835814D01*
X1194567Y2637814D02*
X1209567D01*
X1202067Y2630314D02*
Y2645314D01*
X1258067Y2663214D02*
X1273067D01*
X1265567Y2655714D02*
Y2670714D01*
X1496000Y2663128D02*
X1511000D01*
X1503500Y2655628D02*
Y2670628D01*
X1432500Y2637728D02*
X1447500D01*
X1440000Y2630228D02*
Y2645228D01*
X1622104Y2637814D02*
X1637104D01*
X1629604Y2630314D02*
Y2645314D01*
X1685604Y2663214D02*
X1700604D01*
X1693104Y2655714D02*
Y2670714D01*
X1875714Y2663214D02*
X1890714D01*
X1883214Y2655714D02*
Y2670714D01*
X1812214Y2637814D02*
X1827214D01*
X1819714Y2630314D02*
Y2645314D01*
X2065977Y2663214D02*
X2080977D01*
X2073477Y2655714D02*
Y2670714D01*
X2002477Y2637814D02*
X2017477D01*
X2009977Y2630314D02*
Y2645314D01*
X2256087Y2663214D02*
X2271087D01*
X2263587Y2655714D02*
Y2670714D01*
X2192587Y2637814D02*
X2207587D01*
X2200087Y2630314D02*
Y2645314D01*
X2382180Y2637814D02*
X2397180D01*
X2389680Y2630314D02*
Y2645314D01*
X2445680Y2663214D02*
X2460680D01*
X2453180Y2655714D02*
Y2670714D01*
X2635790Y2663214D02*
X2650790D01*
X2643290Y2655714D02*
Y2670714D01*
X2572290Y2637814D02*
X2587290D01*
X2579790Y2630314D02*
Y2645314D01*
X2762077Y2637814D02*
X2777077D01*
X2769577Y2630314D02*
Y2645314D01*
X2825577Y2663214D02*
X2840577D01*
X2833077Y2655714D02*
Y2670714D01*
X3015894Y2663214D02*
X3030894D01*
X3023394Y2655714D02*
Y2670714D01*
X2952394Y2637814D02*
X2967394D01*
X2959894Y2630314D02*
Y2645314D01*
X3142284Y2637814D02*
X3157284D01*
X3149784Y2630314D02*
Y2645314D01*
X3205784Y2663214D02*
X3220784D01*
X3213284Y2655714D02*
Y2670714D01*
X3395894Y2663214D02*
X3410894D01*
X3403394Y2655714D02*
Y2670714D01*
X3332394Y2637814D02*
X3347394D01*
X3339894Y2630314D02*
Y2645314D01*
X3522504Y2637814D02*
X3537504D01*
X3530004Y2630314D02*
Y2645314D01*
X3586004Y2663214D02*
X3601004D01*
X3593504Y2655714D02*
Y2670714D01*
X3760127Y2637814D02*
X3775127D01*
X3767627Y2630314D02*
Y2645314D01*
X3823627Y2663214D02*
X3838627D01*
X3831127Y2655714D02*
Y2670714D01*
X3641087Y2258414D02*
X3656087D01*
X3648587Y2250914D02*
Y2265914D01*
X3704587Y2283814D02*
X3719587D01*
X3712087Y2276314D02*
Y2291314D01*
X1281567Y2473914D02*
X1296567D01*
X1289067Y2466414D02*
Y2481414D01*
X1218067Y2448514D02*
X1233067D01*
X1225567Y2441014D02*
Y2456014D01*
X1479430Y2448514D02*
X1494430D01*
X1486930Y2441014D02*
Y2456014D01*
X1542930Y2473914D02*
X1557930D01*
X1550430Y2466414D02*
Y2481414D01*
X1733307Y2473914D02*
X1748307D01*
X1740807Y2466414D02*
Y2481414D01*
X1669807Y2448514D02*
X1684807D01*
X1677307Y2441014D02*
Y2456014D01*
X1860184Y2448514D02*
X1875184D01*
X1867684Y2441014D02*
Y2456014D01*
X1923684Y2473914D02*
X1938684D01*
X1931184Y2466414D02*
Y2481414D01*
X2113334Y2473914D02*
X2128334D01*
X2120834Y2466414D02*
Y2481414D01*
X2049834Y2448514D02*
X2064834D01*
X2057334Y2441014D02*
Y2456014D01*
X2303120Y2473914D02*
X2318120D01*
X2310620Y2466414D02*
Y2481414D01*
X2239620Y2448514D02*
X2254620D01*
X2247120Y2441014D02*
Y2456014D01*
X2493497Y2473914D02*
X2508497D01*
X2500997Y2466414D02*
Y2481414D01*
X2429997Y2448514D02*
X2444997D01*
X2437497Y2441014D02*
Y2456014D01*
X2683067Y2473914D02*
X2698067D01*
X2690567Y2466414D02*
Y2481414D01*
X2619567Y2448514D02*
X2634567D01*
X2627067Y2441014D02*
Y2456014D01*
X2873444Y2473914D02*
X2888444D01*
X2880944Y2466414D02*
Y2481414D01*
X2809944Y2448514D02*
X2824944D01*
X2817444Y2441014D02*
Y2456014D01*
X3000227Y2448514D02*
X3015227D01*
X3007727Y2441014D02*
Y2456014D01*
X3063727Y2473914D02*
X3078727D01*
X3071227Y2466414D02*
Y2481414D01*
X3253320Y2473914D02*
X3268320D01*
X3260820Y2466414D02*
Y2481414D01*
X3189820Y2448514D02*
X3204820D01*
X3197320Y2441014D02*
Y2456014D01*
X3379930Y2448514D02*
X3394930D01*
X3387430Y2441014D02*
Y2456014D01*
X3443430Y2473914D02*
X3458430D01*
X3450930Y2466414D02*
Y2481414D01*
X3688570Y2448514D02*
X3703570D01*
X3696070Y2441014D02*
Y2456014D01*
X3752070Y2473914D02*
X3767070D01*
X3759570Y2466414D02*
Y2481414D01*
X1265957Y2258414D02*
X1280957D01*
X1273457Y2250914D02*
Y2265914D01*
X1329457Y2283814D02*
X1344457D01*
X1336957Y2276314D02*
Y2291314D01*
X1638257Y2283814D02*
X1653257D01*
X1645757Y2276314D02*
Y2291314D01*
X1574757Y2258414D02*
X1589757D01*
X1582257Y2250914D02*
Y2265914D01*
X1764867Y2258414D02*
X1779867D01*
X1772367Y2250914D02*
Y2265914D01*
X1828367Y2283814D02*
X1843367D01*
X1835867Y2276314D02*
Y2291314D01*
X2018477Y2283814D02*
X2033477D01*
X2025977Y2276314D02*
Y2291314D01*
X1954977Y2258414D02*
X1969977D01*
X1962477Y2250914D02*
Y2265914D01*
X2144570Y2258414D02*
X2159570D01*
X2152070Y2250914D02*
Y2265914D01*
X2208070Y2283814D02*
X2223070D01*
X2215570Y2276314D02*
Y2291314D01*
X2398180Y2283814D02*
X2413180D01*
X2405680Y2276314D02*
Y2291314D01*
X2334680Y2258414D02*
X2349680D01*
X2342180Y2250914D02*
Y2265914D01*
X2524790Y2258414D02*
X2539790D01*
X2532290Y2250914D02*
Y2265914D01*
X2588290Y2283814D02*
X2603290D01*
X2595790Y2276314D02*
Y2291314D01*
X2778470Y2283814D02*
X2793470D01*
X2785970Y2276314D02*
Y2291314D01*
X2714970Y2258414D02*
X2729970D01*
X2722470Y2250914D02*
Y2265914D01*
X2904564Y2258414D02*
X2919564D01*
X2912064Y2250914D02*
Y2265914D01*
X2968064Y2283814D02*
X2983064D01*
X2975564Y2276314D02*
Y2291314D01*
X3094924Y2258414D02*
X3109924D01*
X3102424Y2250914D02*
Y2265914D01*
X3158424Y2283814D02*
X3173424D01*
X3165924Y2276314D02*
Y2291314D01*
X3347994Y2283814D02*
X3362994D01*
X3355494Y2276314D02*
Y2291314D01*
X3284494Y2258414D02*
X3299494D01*
X3291994Y2250914D02*
Y2265914D01*
X1234710Y2093814D02*
X1249710D01*
X1242210Y2086314D02*
Y2101314D01*
X1171210Y2068414D02*
X1186210D01*
X1178710Y2060914D02*
Y2075914D01*
X1645790Y2068414D02*
X1660790D01*
X1653290Y2060914D02*
Y2075914D01*
X1709290Y2093814D02*
X1724290D01*
X1716790Y2086314D02*
Y2101314D01*
X2422414Y2093814D02*
X2437414D01*
X2429914Y2086314D02*
Y2101314D01*
X2358914Y2068414D02*
X2373914D01*
X2366414Y2060914D02*
Y2075914D01*
X3134447Y2093814D02*
X3149447D01*
X3141947Y2086314D02*
Y2101314D01*
X3070947Y2068414D02*
X3085947D01*
X3078447Y2060914D02*
Y2075914D01*
X3308470Y2068414D02*
X3323470D01*
X3315970Y2060914D02*
Y2075914D01*
X3371971Y2093814D02*
X3386971D01*
X3379471Y2086314D02*
Y2101314D01*
X3608760Y2093814D02*
X3623760D01*
X3616260Y2086314D02*
Y2101314D01*
X3545260Y2068414D02*
X3560260D01*
X3552760Y2060914D02*
Y2075914D01*
X3783777Y2068414D02*
X3798777D01*
X3791277Y2060914D02*
Y2075914D01*
X3847277Y2093814D02*
X3862277D01*
X3854777Y2086314D02*
Y2101314D01*
X2426610Y2253614D02*
X2438610D01*
X2432610Y2247614D02*
Y2259614D01*
X2496610Y2253614D02*
X2508610D01*
X2502610Y2247614D02*
Y2259614D01*
X2577834Y2911230D02*
X2584334D01*
X2581084Y2907980D02*
Y2914480D01*
X2635834Y2911230D02*
X2642334D01*
X2639084Y2907980D02*
Y2914480D01*
X2079610Y2787464D02*
X2087610D01*
X2083610Y2783464D02*
Y2791464D01*
X2079610Y2767464D02*
X2087610D01*
X2083610Y2763464D02*
Y2771464D01*
X1786113Y2155561D02*
X1811113D01*
X1798613Y2143061D02*
Y2168061D01*
X2248054Y2102296D02*
X2258054D01*
X2253054Y2097296D02*
Y2107296D01*
X2284122Y2102550D02*
X2294122D01*
X2289122Y2097550D02*
Y2107550D01*
X2276360Y2927214D02*
X2280360D01*
X2278360Y2925214D02*
Y2929214D01*
X2188610Y2915714D02*
X2192610D01*
X2190610Y2913714D02*
Y2917714D01*
X2810610Y2823464D02*
X2814610D01*
X2812610Y2821464D02*
Y2825464D01*
X2786110Y2834714D02*
X2790110D01*
X2788110Y2832714D02*
Y2836714D01*
X2714860Y2810214D02*
X2718860D01*
X2716860Y2808214D02*
Y2812214D01*
X2220110Y2261214D02*
X2224110D01*
X2222110Y2259214D02*
Y2263214D01*
X2337966Y2234964D02*
X2341966D01*
X2339966Y2232964D02*
Y2236964D01*
X2272860Y2234964D02*
X2276860D01*
X2274860Y2232964D02*
Y2236964D01*
X2178815Y2247874D02*
X2182815D01*
X2180815Y2245874D02*
Y2249874D01*
X2780600Y2115124D02*
X2784601D01*
X2782600Y2113124D02*
Y2117124D01*
X2825600Y2114874D02*
X2829601D01*
X2827600Y2112874D02*
Y2116874D01*
X2862814Y2115124D02*
X2866814D01*
X2864814Y2113124D02*
Y2117124D01*
X2862600Y2160842D02*
X2866600D01*
X2864601Y2158842D02*
Y2162842D01*
X2815100Y2160842D02*
X2819100D01*
X2817101Y2158842D02*
Y2162842D01*
X2780350Y2160842D02*
X2784350D01*
X2782350Y2158842D02*
Y2162842D01*
X2712814Y2134124D02*
X2716814D01*
X2714814Y2132124D02*
Y2136124D01*
X2712814Y2165124D02*
X2716814D01*
X2714814Y2163124D02*
Y2167124D01*
X2690851Y2262841D02*
X2694850D01*
X2692850Y2260842D02*
Y2264841D01*
X2666350Y2262841D02*
X2670350D01*
X2668351Y2260842D02*
Y2264841D01*
X2640815Y2263874D02*
X2644814D01*
X2642814Y2261874D02*
Y2265874D01*
X2489850Y2094842D02*
X2493850D01*
X2491850Y2092842D02*
Y2096842D01*
X2464600Y2079374D02*
X2468600D01*
X2466600Y2077374D02*
Y2081374D01*
X2107100Y2142842D02*
X2111100D01*
X2109100Y2140842D02*
Y2144842D01*
X2084850Y2142842D02*
X2088850D01*
X2086850Y2140842D02*
Y2144842D01*
X2107600Y2106842D02*
X2111600D01*
X2109600Y2104842D02*
Y2108842D01*
X2086100Y2106842D02*
X2090100D01*
X2088100Y2104842D02*
Y2108842D01*
X2067850Y2106842D02*
X2071850D01*
X2069850Y2104842D02*
Y2108842D01*
X3225600Y2846374D02*
X3229601D01*
X3227600Y2844374D02*
Y2848374D01*
X3264508Y2660874D02*
X3268508D01*
X3266508Y2658874D02*
Y2662874D01*
X3312514Y2472124D02*
X3316514D01*
X3314514Y2470124D02*
Y2474124D01*
X3217518Y2313874D02*
X3221518D01*
X3219518Y2311874D02*
Y2315874D01*
X3868736Y2237510D02*
X3872737D01*
X3870736Y2235510D02*
Y2239510D01*
X3853100Y2162714D02*
X3857101D01*
X3855100Y2160714D02*
Y2164714D01*
X2524485Y2105624D02*
X2528484D01*
X2526485Y2103624D02*
Y2107624D01*
X2500984Y2088508D02*
X2504984D01*
X2502984Y2086508D02*
Y2090508D01*
X2784601Y2066124D02*
X2788600D01*
X2786600Y2064124D02*
Y2068124D01*
X2757101Y2058874D02*
X2761100D01*
X2759100Y2056874D02*
Y2060874D01*
X2586815Y2114124D02*
X2590815D01*
X2588814Y2112124D02*
Y2116124D01*
X2586815Y2143374D02*
X2590815D01*
X2588814Y2141374D02*
Y2145374D01*
X2693351Y2161124D02*
X2697350D01*
X2695350Y2159124D02*
Y2163124D01*
X2664100Y2151749D02*
X2668100D01*
X2666100Y2149749D02*
Y2153749D01*
X2664100Y2118624D02*
X2668100D01*
X2666100Y2116624D02*
Y2120624D01*
X2684850Y2091124D02*
X2688850D01*
X2686850Y2089124D02*
Y2093124D01*
X2684850Y2132124D02*
X2688850D01*
X2686850Y2130124D02*
Y2134124D01*
X2693351Y2125124D02*
X2697350D01*
X2695350Y2123124D02*
Y2127124D01*
X2730851Y2154374D02*
X2734850D01*
X2732850Y2152374D02*
Y2156374D01*
X2721600Y2112124D02*
X2725600D01*
X2723600Y2110124D02*
Y2114124D01*
X2730851Y2105124D02*
X2734850D01*
X2732850Y2103124D02*
Y2107124D01*
X2712850Y2098624D02*
X2716850D01*
X2714850Y2096624D02*
Y2100624D01*
X1944850Y2099374D02*
X1948850D01*
X1946850Y2097374D02*
Y2101374D01*
X2150610Y2234267D02*
X2154610D01*
X2152610Y2232267D02*
Y2236267D01*
X2162600Y2233124D02*
X2166600D01*
X2164600Y2231124D02*
Y2235124D01*
X1992850Y2180874D02*
X1996850D01*
X1994850Y2178874D02*
Y2182874D01*
X1999850Y2188124D02*
X2003850D01*
X2001850Y2186124D02*
Y2190124D01*
X2220100Y2105374D02*
X2224100D01*
X2222100Y2103374D02*
Y2107374D01*
X2226100Y2112374D02*
X2230100D01*
X2228100Y2110374D02*
Y2114374D01*
X2190044Y2159180D02*
X2194044D01*
X2192044Y2157180D02*
Y2161180D01*
X2328600Y2206624D02*
X2332600D01*
X2330600Y2204624D02*
Y2208624D01*
X2232600Y2141874D02*
X2236600D01*
X2234600Y2139874D02*
Y2143874D01*
X2280600Y2141874D02*
X2284600D01*
X2282600Y2139874D02*
Y2143874D01*
X2227100Y2148374D02*
X2231100D01*
X2229100Y2146374D02*
Y2150374D01*
X2287100Y2148374D02*
X2291100D01*
X2289100Y2146374D02*
Y2150374D01*
X2260850Y2155124D02*
X2264850D01*
X2262850Y2153124D02*
Y2157124D01*
X2206350Y2155124D02*
X2210350D01*
X2208350Y2153124D02*
Y2157124D01*
X2199850Y2161624D02*
X2203850D01*
X2201850Y2159624D02*
Y2163624D01*
X2267600Y2161624D02*
X2271600D01*
X2269600Y2159624D02*
Y2163624D01*
X1505350Y2832374D02*
X1509350D01*
X1507350Y2830374D02*
Y2834374D01*
X3354276Y2328841D02*
X3358276D01*
X3356276Y2326841D02*
Y2330841D01*
X3362448Y2324133D02*
X3366448D01*
X3364448Y2322133D02*
Y2326133D01*
X3343524Y2329939D02*
X3347524D01*
X3345524Y2327939D02*
Y2331939D01*
X2073262Y2700458D02*
X2077262D01*
X2075262Y2698459D02*
Y2702458D01*
X2071327Y2715297D02*
X2075327D01*
X2073327Y2713297D02*
Y2717296D01*
X2676352Y2694545D02*
X2680352D01*
X2678352Y2692545D02*
Y2696545D01*
X2676245Y2716909D02*
X2680244D01*
X2678244Y2714909D02*
Y2718909D01*
X2443782Y2926362D02*
X2447782D01*
X2445782Y2924362D02*
Y2928362D01*
X2423998Y2934103D02*
X2427998D01*
X2425998Y2932103D02*
Y2936103D01*
X2405612Y2933888D02*
X2409612D01*
X2407612Y2931888D02*
Y2935888D01*
X1862842Y2930233D02*
X1866842D01*
X1864842Y2928232D02*
Y2932232D01*
X1838059Y2929534D02*
X1842059D01*
X1840059Y2927534D02*
Y2931534D01*
X2136246Y2827212D02*
X2140246D01*
X2138246Y2825212D02*
Y2829212D01*
X1877674Y2137348D02*
X1881674D01*
X1879674Y2135348D02*
Y2139348D01*
X1892406Y2171638D02*
X1896406D01*
X1894406Y2169638D02*
Y2173638D01*
X1904090Y2787334D02*
X1908090D01*
X1906090Y2785334D02*
Y2789334D01*
X3837792Y2721548D02*
X3841792D01*
X3839792Y2719548D02*
Y2723548D01*
X3744320Y2766506D02*
X3748320D01*
X3746320Y2764506D02*
Y2768506D01*
X3845664Y2731964D02*
X3849664D01*
X3847664Y2729964D02*
Y2733964D01*
X3843889Y2766506D02*
X3847888D01*
X3845888Y2764506D02*
Y2768506D01*
X3846682Y2783016D02*
X3850682D01*
X3848682Y2781016D02*
Y2785016D01*
X3657706Y2439354D02*
X3661707D01*
X3659706Y2437354D02*
Y2441354D01*
X3613510Y2439354D02*
X3617510D01*
X3615510Y2437354D02*
Y2441354D01*
X3505560Y2509458D02*
X3509561D01*
X3507560Y2507458D02*
Y2511458D01*
X3640180Y2583118D02*
X3644180D01*
X3642180Y2581118D02*
Y2585118D01*
X3546962Y2574228D02*
X3550963D01*
X3548962Y2572228D02*
Y2576228D01*
X3558647Y2594548D02*
X3562646D01*
X3560646Y2592548D02*
Y2596548D01*
X3690726Y2879282D02*
X3694726D01*
X3692726Y2877282D02*
Y2881282D01*
X3690726Y2857438D02*
X3694726D01*
X3692726Y2855438D02*
Y2859438D01*
X3781658Y2832546D02*
X3785658D01*
X3783658Y2830546D02*
Y2834546D01*
X3848434Y2221676D02*
X3852434D01*
X3850434Y2219676D02*
Y2223676D01*
X3848434Y2224964D02*
X3852434D01*
X3850434Y2222964D02*
Y2226964D01*
X3659992Y2430972D02*
X3663992D01*
X3661992Y2428972D02*
Y2432972D01*
X3667104Y2424114D02*
X3671104D01*
X3669104Y2422114D02*
Y2426114D01*
X3674724Y2417510D02*
X3678724D01*
X3676725Y2415510D02*
Y2419510D01*
X3757782Y2582864D02*
X3761783D01*
X3759782Y2580864D02*
Y2584864D01*
X3747622Y2574482D02*
X3751622D01*
X3749622Y2572482D02*
Y2576482D01*
X3725270Y2653984D02*
X3729270D01*
X3727271Y2651984D02*
Y2655984D01*
X3883512Y2451546D02*
X3887513D01*
X3885512Y2449546D02*
Y2453546D01*
X3890878Y2447228D02*
X3894879D01*
X3892878Y2445228D02*
Y2449228D01*
X3897990Y2441386D02*
X3901990D01*
X3899991Y2439386D02*
Y2443386D01*
X1913742Y2337246D02*
X1917742D01*
X1915742Y2335246D02*
Y2339246D01*
X1913996Y2368488D02*
X1917996D01*
X1915996Y2366488D02*
Y2370488D01*
X1913742Y2353248D02*
X1917742D01*
X1915742Y2351248D02*
Y2355248D01*
X1970384Y2170876D02*
X1974384D01*
X1972384Y2168876D02*
Y2172876D01*
X1912726Y2251140D02*
X1916726D01*
X1914726Y2249140D02*
Y2253140D01*
X1912980Y2299654D02*
X1916980D01*
X1914980Y2297654D02*
Y2301654D01*
X1967082Y2392364D02*
X1971082D01*
X1969082Y2390364D02*
Y2394364D01*
X2550266Y2519872D02*
X2554266D01*
X2552266Y2517872D02*
Y2521872D01*
X2560172Y2519364D02*
X2564172D01*
X2562173Y2517364D02*
Y2521364D01*
X2575920Y2519618D02*
X2579920D01*
X2577921Y2517618D02*
Y2521618D01*
X2594208Y2518602D02*
X2598208D01*
X2596208Y2516602D02*
Y2520602D01*
X2594716Y2505648D02*
X2598716D01*
X2596716Y2503648D02*
Y2507648D01*
X2594716Y2488376D02*
X2598716D01*
X2596716Y2486376D02*
Y2490376D01*
X2594970Y2472374D02*
X2598970D01*
X2596971Y2470374D02*
Y2474374D01*
X2594970Y2457642D02*
X2598970D01*
X2596971Y2455642D02*
Y2459642D01*
X2582016Y2458150D02*
X2586017D01*
X2584016Y2456150D02*
Y2460150D01*
X2565252Y2458404D02*
X2569252D01*
X2567253Y2456404D02*
Y2460404D01*
X2545948Y2458912D02*
X2549948D01*
X2547948Y2456912D02*
Y2460912D01*
X2545948Y2475930D02*
X2549948D01*
X2547948Y2473930D02*
Y2477930D01*
X2545694Y2496504D02*
X2549694D01*
X2547694Y2494504D02*
Y2498504D01*
X2545948Y2515046D02*
X2549948D01*
X2547948Y2513046D02*
Y2517046D01*
X1782424Y2446212D02*
X1786424D01*
X1784424Y2444212D02*
Y2448212D01*
X1835764Y2431480D02*
X1839764D01*
X1837764Y2429480D02*
Y2433480D01*
X1846178Y2321498D02*
X1850178D01*
X1848178Y2319498D02*
Y2323498D01*
X1918060Y2321752D02*
X1922060D01*
X1920060Y2319752D02*
Y2323752D01*
X3528420Y2197038D02*
X3532420D01*
X3530421Y2195038D02*
Y2199038D01*
X3290930Y2193736D02*
X3294930D01*
X3292930Y2191736D02*
Y2195736D01*
X3049377Y2193482D02*
X3053376D01*
X3051376Y2191482D02*
Y2195482D01*
X3157072Y2201864D02*
X3161072D01*
X3159072Y2199864D02*
Y2203864D01*
X3387958Y2202118D02*
X3391958D01*
X3389958Y2200118D02*
Y2204118D01*
X3624432Y2204150D02*
X3628432D01*
X3626432Y2202150D02*
Y2206150D01*
X3765148Y2163764D02*
X3769148D01*
X3767148Y2161764D02*
Y2165764D01*
X3789110Y2211176D02*
X3793110D01*
X3791111Y2209176D02*
Y2213176D01*
X3802232Y2252410D02*
X3806232D01*
X3804232Y2250410D02*
Y2254410D01*
X3545692Y2212786D02*
X3549692D01*
X3547692Y2210786D02*
Y2214786D01*
X3461618Y2509712D02*
X3465618D01*
X3463618Y2507712D02*
Y2511712D01*
X3481938Y2523936D02*
X3485938D01*
X3483938Y2521936D02*
Y2525936D01*
X3511656Y2523936D02*
X3515656D01*
X3513656Y2521936D02*
Y2525936D01*
X3401166Y2217612D02*
X3405166D01*
X3403167Y2215612D02*
Y2219612D01*
X3494384Y2257236D02*
X3498384D01*
X3496384Y2255236D02*
Y2259236D01*
X3314110Y2209804D02*
X3318110D01*
X3316111Y2207804D02*
Y2211804D01*
X3075538Y2209738D02*
X3079538D01*
X3077538Y2207738D02*
Y2211738D01*
X2628360Y2241964D02*
X2632361D01*
X2630360Y2239964D02*
Y2243964D01*
X2634610Y2241964D02*
X2638611D01*
X2636610Y2239964D02*
Y2243964D01*
X2640610Y2241964D02*
X2644610D01*
X2642610Y2239964D02*
Y2243964D01*
X2435966Y2146238D02*
X2439966D01*
X2437966Y2144238D02*
Y2148238D01*
X2353416Y2137856D02*
X2357416D01*
X2355416Y2135856D02*
Y2139856D01*
X2367132Y2268412D02*
X2371132D01*
X2369132Y2266412D02*
Y2270412D01*
X2348336Y2204404D02*
X2352336D01*
X2350336Y2202404D02*
Y2206404D01*
X2425044Y2228280D02*
X2429044D01*
X2427044Y2226280D02*
Y2230280D01*
X2355702Y2200340D02*
X2359702D01*
X2357702Y2198340D02*
Y2202340D01*
X1601864Y2162714D02*
X1605864D01*
X1603864Y2160714D02*
Y2164714D01*
X1393775Y2162464D02*
X1397774D01*
X1395774Y2160464D02*
Y2164464D01*
X1409298Y2205166D02*
X1413298D01*
X1411298Y2203166D02*
Y2207166D01*
X1157330Y2203134D02*
X1161330D01*
X1159330Y2201134D02*
Y2205134D01*
X1486798Y2162464D02*
X1490798D01*
X1488798Y2160464D02*
Y2164464D01*
X1723276Y2162714D02*
X1727276D01*
X1725276Y2160714D02*
Y2164714D01*
X1650610Y2210258D02*
X1654610D01*
X1652610Y2208258D02*
Y2212258D01*
X2377935Y2214444D02*
X2381935D01*
X2379935Y2212444D02*
Y2216444D01*
X2469110Y2256517D02*
X2473110D01*
X2471110Y2254517D02*
Y2258517D01*
X2462110Y2256517D02*
X2466110D01*
X2464110Y2254517D02*
Y2258517D01*
X2423012Y2331404D02*
X2427012D01*
X2425012Y2329404D02*
Y2333404D01*
X2512674Y2331404D02*
X2516674D01*
X2514674Y2329404D02*
Y2333404D01*
X1251564Y2196784D02*
X1255564D01*
X1253564Y2194784D02*
Y2198784D01*
X1157330Y2190180D02*
X1161330D01*
X1159330Y2188180D02*
Y2192180D01*
X1358498Y2230312D02*
X1362498D01*
X1360498Y2228312D02*
Y2232312D01*
X1366626Y2239964D02*
X1370626D01*
X1368626Y2237964D02*
Y2241964D01*
X1563984Y2273238D02*
X1567984D01*
X1565984Y2271238D02*
Y2275238D01*
X1543918Y2273238D02*
X1547918D01*
X1545918Y2271238D02*
Y2275238D01*
X1176288Y2393380D02*
X1180288D01*
X1178288Y2391380D02*
Y2395380D01*
X3082116Y2352714D02*
X3086117D01*
X3084117Y2350714D02*
Y2354714D01*
X2890854Y2352714D02*
X2894854D01*
X2892855Y2350714D02*
Y2354714D01*
X2704978Y2352714D02*
X2708978D01*
X2706978Y2350714D02*
Y2354714D01*
X2514478Y2352714D02*
X2518478D01*
X2516478Y2350714D02*
Y2354714D01*
X2323672Y2352714D02*
X2327672D01*
X2325672Y2350714D02*
Y2354714D01*
X2168504Y2393888D02*
X2172504D01*
X2170504Y2391888D02*
Y2395888D01*
X2133681Y2352714D02*
X2137681D01*
X2135681Y2350714D02*
Y2354714D01*
X1947804Y2352714D02*
X1951804D01*
X1949804Y2350714D02*
Y2354714D01*
X1752478Y2352714D02*
X1756478D01*
X1754478Y2350714D02*
Y2354714D01*
X1787504Y2392618D02*
X1791504D01*
X1789504Y2390618D02*
Y2394618D01*
X1732386Y2274762D02*
X1736386D01*
X1734386Y2272762D02*
Y2276762D01*
X1843105Y2352714D02*
X1847104D01*
X1845105Y2350714D02*
Y2354714D01*
X2032894Y2352714D02*
X2036894D01*
X2034894Y2350714D02*
Y2354714D01*
X2222072Y2352714D02*
X2226073D01*
X2224073Y2350714D02*
Y2354714D01*
X2408052Y2352714D02*
X2412052D01*
X2410052Y2350714D02*
Y2354714D01*
X2603632Y2352714D02*
X2607632D01*
X2605632Y2350714D02*
Y2354714D01*
X2785952Y2352714D02*
X2789952D01*
X2787953Y2350714D02*
Y2354714D01*
X2982802Y2352714D02*
X2986802D01*
X2984803Y2350714D02*
Y2354714D01*
X3173100Y2352714D02*
X3177100D01*
X3175100Y2350714D02*
Y2354714D01*
X3361263Y2352714D02*
X3365262D01*
X3363263Y2350714D02*
Y2354714D01*
X3272414Y2352714D02*
X3276414D01*
X3274414Y2350714D02*
Y2354714D01*
X1886310Y2240726D02*
X1890310D01*
X1888310Y2238726D02*
Y2242726D01*
X1566524Y2378902D02*
X1570524D01*
X1568524Y2376902D02*
Y2380902D01*
X3627480Y2378140D02*
X3631480D01*
X3629480Y2376140D02*
Y2380140D01*
X1331574Y2343596D02*
X1335574D01*
X1333574Y2341596D02*
Y2345596D01*
X1457812Y2386776D02*
X1461812D01*
X1459812Y2384776D02*
Y2388776D01*
X1373992Y2379156D02*
X1377992D01*
X1375992Y2377156D02*
Y2381156D01*
X1255628Y2378902D02*
X1259628D01*
X1257628Y2376902D02*
Y2380902D01*
X1155482Y2351794D02*
X1159482D01*
X1157482Y2349794D02*
Y2353794D01*
X1827636Y2061910D02*
X1831636D01*
X1829636Y2059910D02*
Y2063910D01*
X1855830Y2061910D02*
X1859830D01*
X1857830Y2059910D02*
Y2063910D01*
X1246230Y2386522D02*
X1250230D01*
X1248230Y2384522D02*
Y2388522D01*
X3717426Y2352964D02*
X3721426D01*
X3719426Y2350964D02*
Y2354964D01*
X3646360Y2392026D02*
X3650360D01*
X3648360Y2390026D02*
Y2394026D01*
X3744320Y2390078D02*
X3748320D01*
X3746320Y2388078D02*
Y2392078D01*
X3790802Y2390078D02*
X3794803D01*
X3792802Y2388078D02*
Y2392078D01*
X2339860Y2393380D02*
X2343860D01*
X2341860Y2391380D02*
Y2395380D01*
X2306680Y2454464D02*
X2310680D01*
X2308680Y2452464D02*
Y2456464D01*
X2373990Y2405826D02*
X2377990D01*
X2375990Y2403826D02*
Y2407826D01*
X2380086Y2411922D02*
X2384086D01*
X2382086Y2409922D02*
Y2413922D01*
X2386436Y2418018D02*
X2390436D01*
X2388436Y2416018D02*
Y2420018D01*
X2650360Y2786964D02*
X2654360D01*
X2652361Y2784964D02*
Y2788964D01*
X2646860Y2790714D02*
X2650860D01*
X2648860Y2788714D02*
Y2792714D01*
X2638360Y2798714D02*
X2642361D01*
X2640360Y2796714D02*
Y2800714D01*
X2642610Y2794464D02*
X2646610D01*
X2644610Y2792464D02*
Y2796464D01*
X2687426Y2631124D02*
X2691426D01*
X2689426Y2629124D02*
Y2633124D01*
X2536804Y2625790D02*
X2540804D01*
X2538804Y2623790D02*
Y2627790D01*
X2555346Y2640522D02*
X2559346D01*
X2557346Y2638522D02*
Y2642522D01*
X2715874Y2642808D02*
X2719874D01*
X2717874Y2640808D02*
Y2644808D01*
X1579860Y2392492D02*
X1583860D01*
X1581860Y2390492D02*
Y2394492D01*
X1639168Y2535112D02*
X1643168D01*
X1641168Y2533112D02*
Y2537112D01*
X1610720Y2535112D02*
X1614720D01*
X1612720Y2533112D02*
Y2537112D01*
X1465178Y2393888D02*
X1469178D01*
X1467178Y2391888D02*
Y2395888D01*
X1384660Y2393634D02*
X1388660D01*
X1386660Y2391634D02*
Y2395634D01*
X1271376Y2393634D02*
X1275376D01*
X1273376Y2391634D02*
Y2395634D01*
X2023978Y2399984D02*
X2027978D01*
X2025978Y2397984D02*
Y2401984D01*
X2017120Y2405826D02*
X2021120D01*
X2019120Y2403826D02*
Y2407826D01*
X2012040Y2412176D02*
X2016040D01*
X2014040Y2410176D02*
Y2414176D01*
X2010262Y2421066D02*
X2014262D01*
X2012262Y2419066D02*
Y2423066D01*
X2002896Y2424368D02*
X2006896D01*
X2004896Y2422368D02*
Y2426368D01*
X1465085Y2542964D02*
X1469084D01*
X1467085Y2540964D02*
Y2544964D01*
X1655334Y2542964D02*
X1659335D01*
X1657334Y2540964D02*
Y2544964D01*
X1845835Y2542964D02*
X1849834D01*
X1847834Y2540964D02*
Y2544964D01*
X2035334Y2542964D02*
X2039335D01*
X2037334Y2540964D02*
Y2544964D01*
X2224834Y2542964D02*
X2228835D01*
X2226835Y2540964D02*
Y2544964D01*
X2415585Y2542964D02*
X2419585D01*
X2417585Y2540964D02*
Y2544964D01*
X2605085Y2542964D02*
X2609084D01*
X2607084Y2540964D02*
Y2544964D01*
X2795334Y2542964D02*
X2799334D01*
X2797335Y2540964D02*
Y2544964D01*
X2985834Y2542964D02*
X2989835D01*
X2987834Y2540964D02*
Y2544964D01*
X3175334Y2542964D02*
X3179334D01*
X3177335Y2540964D02*
Y2544964D01*
X3365584Y2542964D02*
X3369584D01*
X3367585Y2540964D02*
Y2544964D01*
X3685646Y2574736D02*
X3689646D01*
X3687646Y2572736D02*
Y2576736D01*
X1423610Y2574316D02*
X1427610D01*
X1425610Y2572316D02*
Y2576316D01*
X1398795Y2595908D02*
X1402795D01*
X1400795Y2593908D02*
Y2597908D01*
X1209164Y2542714D02*
X1213164D01*
X1211164Y2540714D02*
Y2544714D01*
X1297792Y2543240D02*
X1301792D01*
X1299792Y2541240D02*
Y2545240D01*
X3385418Y2594548D02*
X3389418D01*
X3387419Y2592548D02*
Y2596548D01*
X3195110Y2593848D02*
X3199110D01*
X3197110Y2591848D02*
Y2595848D01*
X3005688Y2594040D02*
X3009688D01*
X3007688Y2592040D02*
Y2596040D01*
X2815110Y2594626D02*
X2819110D01*
X2817110Y2592626D02*
Y2596626D01*
X2624942Y2583626D02*
X2628942D01*
X2626942Y2581626D02*
Y2585626D01*
X2435360Y2594196D02*
X2439360D01*
X2437360Y2592196D02*
Y2596196D01*
X2244610Y2594642D02*
X2248610D01*
X2246610Y2592642D02*
Y2596642D01*
X1865736Y2590992D02*
X1869736D01*
X1867736Y2588992D02*
Y2592992D01*
X1675110Y2590104D02*
X1679110D01*
X1677110Y2588104D02*
Y2592104D01*
X1484860Y2596450D02*
X1488860D01*
X1486860Y2594450D02*
Y2598450D01*
X3459659Y2543240D02*
X3463658D01*
X3461658Y2541240D02*
Y2545240D01*
X3269408Y2543240D02*
X3273409D01*
X3271408Y2541240D02*
Y2545240D01*
X3079786Y2543008D02*
X3083786D01*
X3081786Y2541008D02*
Y2545008D01*
X2889408Y2543240D02*
X2893409D01*
X2891408Y2541240D02*
Y2545240D01*
X2698786Y2543008D02*
X2702786D01*
X2700786Y2541008D02*
Y2545008D01*
X2500461Y2542964D02*
X2504460D01*
X2502460Y2540964D02*
Y2544964D01*
X2318908Y2543240D02*
X2322908D01*
X2320908Y2541240D02*
Y2545240D01*
X2129408Y2543240D02*
X2133408D01*
X2131408Y2541240D02*
Y2545240D01*
X1939908Y2543240D02*
X1943908D01*
X1941908Y2541240D02*
Y2545240D01*
X1749408Y2543240D02*
X1753408D01*
X1751408Y2541240D02*
Y2545240D01*
X1559158Y2543240D02*
X1563158D01*
X1561158Y2541240D02*
Y2545240D01*
X1342110Y2584012D02*
X1346110D01*
X1344110Y2582012D02*
Y2586012D01*
X3693860Y2593872D02*
X3697860D01*
X3695860Y2591872D02*
Y2595872D01*
X3768450Y2542732D02*
X3772450D01*
X3770450Y2540732D02*
Y2544732D01*
X2055110Y2594912D02*
X2059110D01*
X2057110Y2592912D02*
Y2596912D01*
X3249020Y2621726D02*
X3253020D01*
X3251021Y2619726D02*
Y2623726D01*
X2017120Y2615884D02*
X2021120D01*
X2019120Y2613884D02*
Y2617884D01*
X2516992Y2643316D02*
X2520992D01*
X2518992Y2641316D02*
Y2645316D01*
X2132610Y2661270D02*
X2136610D01*
X2134610Y2659270D02*
Y2663270D01*
X1223360Y2595828D02*
X1227360D01*
X1225360Y2593828D02*
Y2597828D01*
X1631548Y2597596D02*
X1635548D01*
X1633548Y2595596D02*
Y2599596D01*
X1539092Y2597596D02*
X1543092D01*
X1541092Y2595596D02*
Y2599596D01*
X1786996Y2599628D02*
X1790996D01*
X1788996Y2597628D02*
Y2601628D01*
X1772457Y2604417D02*
X1776457D01*
X1774457Y2602417D02*
Y2606417D01*
X2053350Y2122870D02*
X2057350D01*
X2055350Y2120870D02*
Y2124870D01*
X3900784Y2056576D02*
X3904785D01*
X3902784Y2054576D02*
Y2058576D01*
X3882496Y2176972D02*
X3886496D01*
X3884496Y2174972D02*
Y2178972D01*
X2051350Y2131180D02*
X2055350D01*
X2053350Y2129180D02*
Y2133180D01*
X3527860Y2720734D02*
X3531860D01*
X3529861Y2718734D02*
Y2722734D01*
X3318365Y2731964D02*
X3322365D01*
X3320364Y2729964D02*
Y2733964D01*
X3130659Y2731964D02*
X3134659D01*
X3132658Y2729964D02*
Y2733964D01*
X2938884Y2731964D02*
X2942884D01*
X2940884Y2729964D02*
Y2733964D01*
X2747119Y2731964D02*
X2751118D01*
X2749119Y2729964D02*
Y2733964D01*
X2558904Y2732214D02*
X2562904D01*
X2560904Y2730214D02*
Y2734214D01*
X1612750Y2731964D02*
X1616750D01*
X1614750Y2729964D02*
Y2733964D01*
X1803000Y2731964D02*
X1807000D01*
X1805000Y2729964D02*
Y2733964D01*
X2183750Y2732464D02*
X2187750D01*
X2185750Y2730464D02*
Y2734464D01*
X1420728Y2758632D02*
X1424728D01*
X1422728Y2756632D02*
Y2760632D01*
X1989690Y2732214D02*
X1993690D01*
X1991690Y2730214D02*
Y2734214D01*
X2183750Y2732464D02*
X2187750D01*
X2185750Y2730464D02*
Y2734464D01*
X2369420Y2731964D02*
X2373420D01*
X2371420Y2729964D02*
Y2733964D01*
X3762101Y2783111D02*
X3766100D01*
X3764100Y2781111D02*
Y2785111D01*
X3835919Y2783111D02*
X3839919D01*
X3837920Y2781111D02*
Y2785111D01*
X3527361Y2778146D02*
X3531360D01*
X3529360Y2776146D02*
Y2780146D01*
X3337610Y2778388D02*
X3341610D01*
X3339610Y2776388D02*
Y2780388D01*
X3147860Y2778122D02*
X3151860D01*
X3149861Y2776122D02*
Y2780122D01*
X2957860Y2777860D02*
X2961860D01*
X2959861Y2775860D02*
Y2779860D01*
X2767361Y2777352D02*
X2771360D01*
X2769360Y2775352D02*
Y2779352D01*
X2575158Y2779206D02*
X2579158D01*
X2577159Y2777206D02*
Y2781206D01*
X2600304Y2783778D02*
X2604305D01*
X2602304Y2781778D02*
Y2785778D01*
X2161138Y2795716D02*
X2165138D01*
X2163138Y2793716D02*
Y2797716D01*
X2169774Y2802828D02*
X2173774D01*
X2171774Y2800828D02*
Y2804828D01*
X1997816Y2814258D02*
X2001816D01*
X1999816Y2812258D02*
Y2816258D01*
X2081382Y2837880D02*
X2085382D01*
X2083382Y2835880D02*
Y2839880D01*
X1810364Y2783016D02*
X1814364D01*
X1812364Y2781016D02*
Y2785016D01*
X1804522Y2788604D02*
X1808522D01*
X1806522Y2786604D02*
Y2790604D01*
X1181974Y2731714D02*
X1185975D01*
X1183975Y2729714D02*
Y2733714D01*
X3807058Y2819338D02*
X3811058D01*
X3809059Y2817338D02*
Y2821338D01*
X1218288Y2922714D02*
X1222289D01*
X1220288Y2920714D02*
Y2924714D01*
X1460352Y2254696D02*
X1464352D01*
X1462352Y2252696D02*
Y2256696D01*
X1361038Y2644840D02*
X1365038D01*
X1363038Y2642840D02*
Y2646840D01*
X1329796Y2644840D02*
X1333796D01*
X1331796Y2642840D02*
Y2646840D01*
X1196192Y2486852D02*
X1200192D01*
X1198192Y2484852D02*
Y2488852D01*
X1202796Y2452816D02*
X1206796D01*
X1204796Y2450816D02*
Y2454816D01*
X3849357Y2906714D02*
X3853357D01*
X3851357Y2904714D02*
Y2908714D01*
X3850360Y2869257D02*
X3854360D01*
X3852361Y2867257D02*
Y2871257D01*
X3460110Y2823714D02*
X3464110D01*
X3462110Y2821714D02*
Y2825714D01*
X3829384Y2319146D02*
X3833384D01*
X3831384Y2317146D02*
Y2321146D01*
X3813110Y2327714D02*
X3817110D01*
X3815110Y2325714D02*
Y2329714D01*
X3845610Y2310214D02*
X3849610D01*
X3847610Y2308214D02*
Y2312214D01*
X3813110Y2310214D02*
X3817110D01*
X3815110Y2308214D02*
Y2312214D01*
X3845610Y2327964D02*
X3849610D01*
X3847610Y2325964D02*
Y2329964D01*
X2072610Y2055714D02*
X2076610D01*
X2074610Y2053714D02*
Y2057714D01*
X2081610Y2061214D02*
X2085610D01*
X2083610Y2059214D02*
Y2063214D01*
X2955110Y2098214D02*
X2959110D01*
X2957110Y2096214D02*
Y2100214D01*
X2839850Y2098464D02*
X2843850D01*
X2841850Y2096464D02*
Y2100464D01*
X2955600Y2175124D02*
X2959601D01*
X2957600Y2173124D02*
Y2177124D01*
X2833100Y2175124D02*
X2837101D01*
X2835100Y2173124D02*
Y2177124D01*
X2949850Y2182124D02*
X2953850D01*
X2951850Y2180124D02*
Y2184124D01*
X2839100Y2182124D02*
X2843100D01*
X2841100Y2180124D02*
Y2184124D01*
X2554350Y2097124D02*
X2558350D01*
X2556350Y2095124D02*
Y2099124D01*
X2346610Y2108714D02*
X2350610D01*
X2348610Y2106714D02*
Y2110714D01*
X2431860Y2116464D02*
X2435860D01*
X2433860Y2114464D02*
Y2118464D01*
X1925360Y2742714D02*
X1929360D01*
X1927360Y2740714D02*
Y2744714D01*
X1940110Y2743214D02*
X1944110D01*
X1942110Y2741214D02*
Y2745214D01*
X1971110Y2733214D02*
X1975110D01*
X1973110Y2731214D02*
Y2735214D01*
X1958110Y2745214D02*
X1962110D01*
X1960110Y2743214D02*
Y2747214D01*
X1948286Y2727644D02*
X1952286D01*
X1950286Y2725644D02*
Y2729644D01*
X1814936Y2860232D02*
X1818936D01*
X1816936Y2858232D02*
Y2862232D01*
X2001880Y2835340D02*
X2005880D01*
X2003880Y2833340D02*
Y2837340D01*
X2132610Y2754464D02*
X2136610D01*
X2134610Y2752464D02*
Y2756464D01*
X2132610Y2765464D02*
X2136610D01*
X2134610Y2763464D02*
Y2767464D01*
X2126860Y2767214D02*
X2130860D01*
X2128860Y2765214D02*
Y2769214D01*
X2120360Y2767214D02*
X2124360D01*
X2122360Y2765214D02*
Y2769214D01*
X2132610Y2760714D02*
X2136610D01*
X2134610Y2758714D02*
Y2762714D01*
X2040610Y2262464D02*
X2044610D01*
X2042610Y2260464D02*
Y2264464D01*
X2049610Y2243214D02*
X2053610D01*
X2051610Y2241214D02*
Y2245214D01*
X2049600Y2268374D02*
X2053600D01*
X2051600Y2266374D02*
Y2270374D01*
X2148946Y2756092D02*
X2152946D01*
X2150946Y2754092D02*
Y2758092D01*
X2153518Y2719008D02*
X2157518D01*
X2155518Y2717008D02*
Y2721008D01*
X2152860Y2700464D02*
X2156860D01*
X2154860Y2698464D02*
Y2702464D01*
X2152350Y2688624D02*
X2156350D01*
X2154350Y2686624D02*
Y2690624D01*
X2156860Y2560714D02*
X2160860D01*
X2158860Y2558714D02*
Y2562714D01*
X2156610Y2539214D02*
X2160610D01*
X2158610Y2537214D02*
Y2541214D01*
X2155631Y2513964D02*
X2159631D01*
X2157631Y2511964D02*
Y2515964D01*
X2155631Y2485714D02*
X2159631D01*
X2157631Y2483714D02*
Y2487714D01*
X2157360Y2452714D02*
X2161360D01*
X2159360Y2450714D02*
Y2454714D01*
X2157076Y2430841D02*
X2161076D01*
X2159076Y2428841D02*
Y2432841D01*
X2149631Y2410464D02*
X2153631D01*
X2151631Y2408464D02*
Y2412464D01*
X2618360Y2824964D02*
X2622361D01*
X2620360Y2822964D02*
Y2826964D01*
X2177850Y2719374D02*
X2181850D01*
X2179850Y2717374D02*
Y2721374D01*
X2178100Y2706624D02*
X2182100D01*
X2180100Y2704624D02*
Y2708624D01*
X2178100Y2691124D02*
X2182100D01*
X2180100Y2689124D02*
Y2693124D01*
X2179360Y2561464D02*
X2183360D01*
X2181360Y2559464D02*
Y2563464D01*
X2179631Y2542464D02*
X2183631D01*
X2181631Y2540464D02*
Y2544464D01*
X2179631Y2514214D02*
X2183631D01*
X2181631Y2512214D02*
Y2516214D01*
X2179631Y2485464D02*
X2183631D01*
X2181631Y2483464D02*
Y2487464D01*
X2179631Y2455964D02*
X2183631D01*
X2181631Y2453964D02*
Y2457964D01*
X2179631Y2434214D02*
X2183631D01*
X2181631Y2432214D02*
Y2436214D01*
X2181610Y2409232D02*
X2185610D01*
X2183610Y2407232D02*
Y2411232D01*
X2205842Y2413700D02*
X2209842D01*
X2207842Y2411700D02*
Y2415700D01*
X2052350Y2299124D02*
X2056350D01*
X2054350Y2297124D02*
Y2301124D01*
X2065350Y2316374D02*
X2069350D01*
X2067350Y2314374D02*
Y2318374D01*
X2067850Y2336124D02*
X2071850D01*
X2069850Y2334124D02*
Y2338124D01*
X2058268Y2371536D02*
X2062268D01*
X2060268Y2369536D02*
Y2373536D01*
X2120600Y2356374D02*
X2124600D01*
X2122600Y2354374D02*
Y2358374D01*
X2116600Y2340124D02*
X2120600D01*
X2118600Y2338124D02*
Y2342124D01*
X2113600Y2323624D02*
X2117600D01*
X2115600Y2321624D02*
Y2325624D01*
X2121260Y2371282D02*
X2125260D01*
X2123260Y2369282D02*
Y2373282D01*
X2097360Y2292714D02*
X2101360D01*
X2099360Y2290714D02*
Y2294714D01*
X2081860Y2293214D02*
X2085860D01*
X2083860Y2291214D02*
Y2295214D01*
X2113600Y2293374D02*
X2117600D01*
X2115600Y2291374D02*
Y2295374D01*
X2113600Y2307874D02*
X2117600D01*
X2115600Y2305874D02*
Y2309874D01*
X2138968Y2239851D02*
X2142968D01*
X2140968Y2237851D02*
Y2241851D01*
X2122771Y2239419D02*
X2126771D01*
X2124771Y2237419D02*
Y2241419D01*
X2105100Y2247624D02*
X2109100D01*
X2107100Y2245624D02*
Y2249624D01*
X2113600Y2266874D02*
X2117600D01*
X2115600Y2264874D02*
Y2268874D01*
X2075850Y2232374D02*
X2079850D01*
X2077850Y2230374D02*
Y2234374D01*
X2075850Y2252374D02*
X2079850D01*
X2077850Y2250374D02*
Y2254374D01*
X2075850Y2270124D02*
X2079850D01*
X2077850Y2268124D02*
Y2272124D01*
X1208384Y2224978D02*
X1212384D01*
X1210384Y2222978D02*
Y2226978D01*
X1225402Y2220406D02*
X1229402D01*
X1227402Y2218406D02*
Y2222406D01*
X1161902Y2132776D02*
X1165902D01*
X1163902Y2130776D02*
Y2134776D01*
X1191620Y2219644D02*
X1195620D01*
X1193620Y2217644D02*
Y2221644D01*
X1384860Y2459714D02*
X1388860D01*
X1386860Y2457714D02*
Y2461714D01*
X1411838Y2442402D02*
X1415838D01*
X1413838Y2440402D02*
Y2444402D01*
X1414860Y2454714D02*
X1418860D01*
X1416860Y2452714D02*
Y2456714D01*
X1453632Y2455464D02*
X1457632D01*
X1455632Y2453464D02*
Y2457464D01*
X1407110Y2525464D02*
X1411110D01*
X1409110Y2523464D02*
Y2527464D01*
X1327633Y2458214D02*
X1331633D01*
X1329633Y2456214D02*
Y2460214D01*
X1351132Y2447736D02*
X1355132D01*
X1353132Y2445736D02*
Y2449736D01*
X1351132Y2437830D02*
X1355132D01*
X1353132Y2435830D02*
Y2439830D01*
X1351132Y2458404D02*
X1355132D01*
X1353132Y2456404D02*
Y2460404D01*
X1460610Y2507964D02*
X1464610D01*
X1462610Y2505964D02*
Y2509964D01*
X1472610Y2489714D02*
X1476610D01*
X1474610Y2487714D02*
Y2491714D01*
X1443860Y2519464D02*
X1447860D01*
X1445860Y2517464D02*
Y2521464D01*
X1414360Y2516964D02*
X1418360D01*
X1416360Y2514964D02*
Y2518964D01*
X1411610Y2548464D02*
X1415610D01*
X1413610Y2546464D02*
Y2550464D01*
X1370110Y2516464D02*
X1374110D01*
X1372110Y2514464D02*
Y2518464D01*
X1370360Y2530714D02*
X1374360D01*
X1372360Y2528714D02*
Y2532714D01*
X1326110Y2491464D02*
X1330110D01*
X1328110Y2489464D02*
Y2493464D01*
X1326610Y2517232D02*
X1330610D01*
X1328610Y2515232D02*
Y2519232D01*
X1327633Y2539214D02*
X1331633D01*
X1329633Y2537214D02*
Y2541214D01*
X1129633Y2946464D02*
X1133633D01*
X1131633Y2944464D02*
Y2948464D01*
X1109860Y2943231D02*
X1113860D01*
X1111860Y2941231D02*
Y2945231D01*
X1109860Y2917714D02*
X1113860D01*
X1111860Y2915714D02*
Y2919714D01*
X1109860Y2892214D02*
X1113860D01*
X1111860Y2890214D02*
Y2894214D01*
X1109860Y2866714D02*
X1113860D01*
X1111860Y2864714D02*
Y2868714D01*
X1109860Y2841231D02*
X1113860D01*
X1111860Y2839231D02*
Y2843231D01*
X1109860Y2815714D02*
X1113860D01*
X1111860Y2813714D02*
Y2817714D01*
X1109860Y2790214D02*
X1113860D01*
X1111860Y2788214D02*
Y2792214D01*
X1109860Y2764714D02*
X1113860D01*
X1111860Y2762714D02*
Y2766714D01*
X1109860Y2739214D02*
X1113860D01*
X1111860Y2737214D02*
Y2741214D01*
X1109860Y2713714D02*
X1113860D01*
X1111860Y2711714D02*
Y2715714D01*
X1109860Y2688214D02*
X1113860D01*
X1111860Y2686214D02*
Y2690214D01*
X1109860Y2662714D02*
X1113860D01*
X1111860Y2660714D02*
Y2664714D01*
X1109860Y2637232D02*
X1113860D01*
X1111860Y2635232D02*
Y2639232D01*
X1109860Y2611714D02*
X1113860D01*
X1111860Y2609714D02*
Y2613714D01*
X1109860Y2586214D02*
X1113860D01*
X1111860Y2584214D02*
Y2588214D01*
X1109860Y2560714D02*
X1113860D01*
X1111860Y2558714D02*
Y2562714D01*
X1109860Y2535232D02*
X1113860D01*
X1111860Y2533232D02*
Y2537232D01*
X1109860Y2203714D02*
X1113860D01*
X1111860Y2201714D02*
Y2205714D01*
X1109860Y2178214D02*
X1113860D01*
X1111860Y2176214D02*
Y2180214D01*
X1109860Y2152714D02*
X1113860D01*
X1111860Y2150714D02*
Y2154714D01*
X1109860Y2127233D02*
X1113860D01*
X1111860Y2125233D02*
Y2129233D01*
X1109860Y2101714D02*
X1113860D01*
X1111860Y2099714D02*
Y2103714D01*
X1110360Y2072214D02*
X1114360D01*
X1112360Y2070214D02*
Y2074214D01*
X1119610Y2049233D02*
X1123610D01*
X1121610Y2047233D02*
Y2051233D01*
X1143845Y2066618D02*
X1147845D01*
X1145845Y2064618D02*
Y2068618D01*
X1206315Y2053178D02*
X1210315D01*
X1208315Y2051178D02*
Y2055178D01*
X1229860Y2049233D02*
X1233860D01*
X1231860Y2047233D02*
Y2051233D01*
X1266610Y2049233D02*
X1270610D01*
X1268610Y2047233D02*
Y2051233D01*
X1303360Y2049233D02*
X1307360D01*
X1305360Y2047233D02*
Y2051233D01*
X1340110Y2049233D02*
X1344110D01*
X1342110Y2047233D02*
Y2051233D01*
X1376860Y2049233D02*
X1380860D01*
X1378860Y2047233D02*
Y2051233D01*
X1374479Y2075220D02*
X1378479D01*
X1376479Y2073220D02*
Y2077220D01*
X1487860Y2049233D02*
X1491860D01*
X1489860Y2047233D02*
Y2051233D01*
X1450360Y2049233D02*
X1454360D01*
X1452360Y2047233D02*
Y2051233D01*
X1524110Y2049233D02*
X1528110D01*
X1526110Y2047233D02*
Y2051233D01*
X1560860Y2049233D02*
X1564860D01*
X1562860Y2047233D02*
Y2051233D01*
X1597632Y2049214D02*
X1601632D01*
X1599632Y2047214D02*
Y2051214D01*
X1622397Y2052210D02*
X1626397D01*
X1624397Y2050210D02*
Y2054210D01*
X1694490Y2053581D02*
X1698490D01*
X1696490Y2051581D02*
Y2055581D01*
X1708610Y2049233D02*
X1712610D01*
X1710610Y2047233D02*
Y2051233D01*
X1745110Y2051714D02*
X1749110D01*
X1747110Y2049714D02*
Y2053714D01*
X1781610Y2051464D02*
X1785610D01*
X1783610Y2049464D02*
Y2053464D01*
X1800816Y2080124D02*
X1804816D01*
X1802816Y2078124D02*
Y2082124D01*
X1799696Y2109662D02*
X1803696D01*
X1801696Y2107662D02*
Y2111662D01*
X1985850Y2099374D02*
X1989850D01*
X1987850Y2097374D02*
Y2101374D01*
X1918610Y2115233D02*
X1922610D01*
X1920610Y2113233D02*
Y2117233D01*
X1963350Y2099374D02*
X1967350D01*
X1965350Y2097374D02*
Y2101374D01*
X1905360Y2167320D02*
X1909360D01*
X1907360Y2165320D02*
Y2169320D01*
X1908641Y2140291D02*
X1912641D01*
X1910641Y2138291D02*
Y2142291D01*
X2150100Y2076124D02*
X2154100D01*
X2152100Y2074124D02*
Y2078124D01*
X2319110Y2119214D02*
X2323110D01*
X2321110Y2117214D02*
Y2121214D01*
X2303600Y2090624D02*
X2307600D01*
X2305600Y2088624D02*
Y2092624D01*
X2269850Y2088124D02*
X2273850D01*
X2271850Y2086124D02*
Y2090124D01*
X2207860Y2087464D02*
X2211860D01*
X2209860Y2085464D02*
Y2089464D01*
X2234850Y2087624D02*
X2238850D01*
X2236850Y2085624D02*
Y2089624D01*
X2135600Y2076124D02*
X2139600D01*
X2137600Y2074124D02*
Y2078124D01*
X2120600Y2076124D02*
X2124600D01*
X2122600Y2074124D02*
Y2078124D01*
X2539110Y2160964D02*
X2543110D01*
X2541110Y2158964D02*
Y2162964D01*
X2614601Y2142842D02*
X2618600D01*
X2616600Y2140842D02*
Y2144842D01*
X2676600Y2144874D02*
X2680600D01*
X2678600Y2142874D02*
Y2146874D01*
X2494110Y2165464D02*
X2498110D01*
X2496110Y2163464D02*
Y2167464D01*
X2473630Y2167214D02*
X2477630D01*
X2475630Y2165214D02*
Y2169214D01*
X2450444Y2169352D02*
X2454444D01*
X2452444Y2167352D02*
Y2171352D01*
X2520600Y2126374D02*
X2524600D01*
X2522600Y2124374D02*
Y2128374D01*
X2520600Y2148124D02*
X2524600D01*
X2522600Y2146124D02*
Y2150124D01*
X2520600Y2165124D02*
X2524600D01*
X2522600Y2163124D02*
Y2167124D01*
X2667600Y2164624D02*
X2671600D01*
X2669601Y2162624D02*
Y2166624D01*
X2571600Y2167874D02*
X2575600D01*
X2573600Y2165874D02*
Y2169874D01*
X2851630Y2249464D02*
X2855630D01*
X2853629Y2247464D02*
Y2251464D01*
X2863629Y2263964D02*
X2867629D01*
X2865630Y2261964D02*
Y2265964D01*
X2863629Y2249214D02*
X2867629D01*
X2865630Y2247214D02*
Y2251214D01*
X2823110Y2266964D02*
X2827110D01*
X2825110Y2264964D02*
Y2268964D01*
X2821630Y2297214D02*
X2825630D01*
X2823629Y2295214D02*
Y2299214D01*
X2833629Y2316464D02*
X2837630D01*
X2835630Y2314464D02*
Y2318464D01*
X2609861Y2313232D02*
X2613860D01*
X2611860Y2311232D02*
Y2315232D01*
X2671630Y2304464D02*
X2675630D01*
X2673630Y2302464D02*
Y2306464D01*
X2703860Y2307232D02*
X2707860D01*
X2705860Y2305232D02*
Y2309232D01*
X3580490Y2240472D02*
X3584490D01*
X3582491Y2238472D02*
Y2242472D01*
X3580360Y2249964D02*
X3584360D01*
X3582361Y2247964D02*
Y2251964D01*
X3546610Y2253232D02*
X3550610D01*
X3548611Y2251232D02*
Y2255232D01*
X3547628Y2266464D02*
X3551628D01*
X3549628Y2264464D02*
Y2268464D01*
X3511350Y2244841D02*
X3515350D01*
X3513351Y2242841D02*
Y2246841D01*
X3522813Y2238124D02*
X3526813D01*
X3524813Y2236124D02*
Y2240124D01*
X3510813Y2255624D02*
X3514813D01*
X3512813Y2253624D02*
Y2257624D01*
X3510813Y2266624D02*
X3514813D01*
X3512813Y2264624D02*
Y2268624D01*
X3432662Y2267650D02*
X3436662D01*
X3434662Y2265650D02*
Y2269650D01*
X3410056Y2265872D02*
X3414056D01*
X3412056Y2263872D02*
Y2267872D01*
X3413110Y2229232D02*
X3417110D01*
X3415110Y2227232D02*
Y2231232D01*
X3437110Y2295232D02*
X3441111D01*
X3439110Y2293232D02*
Y2297232D01*
X3427628Y2308464D02*
X3431628D01*
X3429628Y2306464D02*
Y2310464D01*
X3411860Y2308964D02*
X3415860D01*
X3413860Y2306964D02*
Y2310964D01*
X3427628Y2319964D02*
X3431628D01*
X3429628Y2317964D02*
Y2321964D01*
X3412361Y2320714D02*
X3416360D01*
X3414360Y2318714D02*
Y2322714D01*
X3492361Y2353464D02*
X3496360D01*
X3494360Y2351464D02*
Y2355464D01*
X3445628Y2353964D02*
X3449628D01*
X3447628Y2351964D02*
Y2355964D01*
X3461111Y2367232D02*
X3465110D01*
X3463110Y2365232D02*
Y2369232D01*
X3476610Y2367232D02*
X3480610D01*
X3478611Y2365232D02*
Y2369232D01*
X3490610Y2367232D02*
X3494610D01*
X3492610Y2365232D02*
Y2369232D01*
X3450110Y2370464D02*
X3454110D01*
X3452110Y2368464D02*
Y2372464D01*
X3488542Y2626806D02*
X3492542D01*
X3490542Y2624806D02*
Y2628806D01*
X3536040Y2834578D02*
X3540040D01*
X3538040Y2832578D02*
Y2836578D01*
X3536802Y2824418D02*
X3540802D01*
X3538802Y2822418D02*
Y2826418D01*
X3570076Y2834324D02*
X3574077D01*
X3572076Y2832324D02*
Y2836324D01*
X3624432Y2832546D02*
X3628432D01*
X3626432Y2830546D02*
Y2834546D01*
X3669390Y2859978D02*
X3673391D01*
X3671390Y2857978D02*
Y2861978D01*
X3652372Y2834070D02*
X3656372D01*
X3654372Y2832070D02*
Y2836070D01*
X3850610Y2859231D02*
X3854610D01*
X3852610Y2857231D02*
Y2861231D01*
X3840110Y2902214D02*
X3844110D01*
X3842110Y2900214D02*
Y2904214D01*
X3847628Y2932214D02*
X3851628D01*
X3849627Y2930214D02*
Y2934214D01*
X3849861Y2895231D02*
X3853860D01*
X3851860Y2893231D02*
Y2897231D01*
X3842110Y2865231D02*
X3846111D01*
X3844110Y2863231D02*
Y2867231D01*
X3865110Y2803214D02*
X3869110D01*
X3867110Y2801214D02*
Y2805214D01*
X3847628Y2802964D02*
X3851628D01*
X3849627Y2800964D02*
Y2804964D01*
X3847860Y2821964D02*
X3851860D01*
X3849861Y2819964D02*
Y2823964D01*
X3865110Y2821964D02*
X3869110D01*
X3867110Y2819964D02*
Y2823964D01*
X3835628Y2245964D02*
X3839628D01*
X3837628Y2243964D02*
Y2247964D01*
X3816812Y2234624D02*
X3820812D01*
X3818812Y2232624D02*
Y2236624D01*
X3808600Y2242624D02*
X3812600D01*
X3810600Y2240624D02*
Y2244624D01*
X3769100Y2274841D02*
X3773100D01*
X3771100Y2272841D02*
Y2276841D01*
X3749601Y2272374D02*
X3753600D01*
X3751600Y2270374D02*
Y2274374D01*
X3833360Y2277232D02*
X3837361D01*
X3835360Y2275232D02*
Y2279232D01*
X3798611Y2353714D02*
X3802610D01*
X3800610Y2351714D02*
Y2355714D01*
X3837610Y2359714D02*
X3841610D01*
X3839610Y2357714D02*
Y2361714D01*
X3832110Y2367232D02*
X3836111D01*
X3834110Y2365232D02*
Y2369232D01*
X3797850Y2286841D02*
X3801850D01*
X3799850Y2284841D02*
Y2288841D01*
X3797600Y2306624D02*
X3801600D01*
X3799601Y2304624D02*
Y2308624D01*
X3797600Y2330124D02*
X3801600D01*
X3799601Y2328124D02*
Y2332124D01*
X3770350Y2292841D02*
X3774350D01*
X3772350Y2290841D02*
Y2294841D01*
X3768100Y2250842D02*
X3772101D01*
X3770100Y2248842D02*
Y2252841D01*
X3760350Y2310841D02*
X3764350D01*
X3762350Y2308841D02*
Y2312841D01*
X3760860Y2339964D02*
X3764861D01*
X3762860Y2337964D02*
Y2341964D01*
X3773860Y2359214D02*
X3777860D01*
X3775860Y2357214D02*
Y2361214D01*
X3907350Y2232841D02*
X3911350D01*
X3909350Y2230842D02*
Y2234841D01*
X3880718Y2270952D02*
X3884718D01*
X3882719Y2268952D02*
Y2272952D01*
X3907350Y2256374D02*
X3911350D01*
X3909350Y2254374D02*
Y2258374D01*
X3907627Y2281464D02*
X3911628D01*
X3909627Y2279464D02*
Y2283464D01*
X3907627Y2306964D02*
X3911628D01*
X3909627Y2304964D02*
Y2308964D01*
X3907627Y2332464D02*
X3911628D01*
X3909627Y2330464D02*
Y2334464D01*
X3907627Y2357964D02*
X3911628D01*
X3909627Y2355964D02*
Y2359964D01*
X3907627Y2383464D02*
X3911628D01*
X3909627Y2381464D02*
Y2385464D01*
X3907627Y2408964D02*
X3911628D01*
X3909627Y2406964D02*
Y2410964D01*
X3907627Y2434464D02*
X3911628D01*
X3909627Y2432464D02*
Y2436464D01*
X3907627Y2459964D02*
X3911628D01*
X3909627Y2457964D02*
Y2461964D01*
X3907627Y2485464D02*
X3911628D01*
X3909627Y2483464D02*
Y2487464D01*
X3907627Y2510964D02*
X3911628D01*
X3909627Y2508964D02*
Y2512964D01*
X3907627Y2536464D02*
X3911628D01*
X3909627Y2534464D02*
Y2538464D01*
X3907627Y2561714D02*
X3911628D01*
X3909627Y2559714D02*
Y2563714D01*
X3907627Y2586964D02*
X3911628D01*
X3909627Y2584964D02*
Y2588964D01*
X3907627Y2612214D02*
X3911628D01*
X3909627Y2610214D02*
Y2614214D01*
X3907627Y2637464D02*
X3911628D01*
X3909627Y2635464D02*
Y2639464D01*
X3907627Y2662714D02*
X3911628D01*
X3909627Y2660714D02*
Y2664714D01*
X3907627Y2687964D02*
X3911628D01*
X3909627Y2685964D02*
Y2689964D01*
X3907627Y2713214D02*
X3911628D01*
X3909627Y2711214D02*
Y2715214D01*
X3907627Y2738464D02*
X3911628D01*
X3909627Y2736464D02*
Y2740464D01*
X3907627Y2763714D02*
X3911628D01*
X3909627Y2761714D02*
Y2765714D01*
X3907627Y2788714D02*
X3911628D01*
X3909627Y2786714D02*
Y2790714D01*
X3907627Y2813714D02*
X3911628D01*
X3909627Y2811714D02*
Y2815714D01*
X3904110Y2899714D02*
X3908110D01*
X3906111Y2897714D02*
Y2901714D01*
X3907627Y2863714D02*
X3911628D01*
X3909627Y2861714D02*
Y2865714D01*
X3860610Y2940464D02*
X3864610D01*
X3862610Y2938464D02*
Y2942464D01*
X3907110Y2827964D02*
X3911111D01*
X3909110Y2825964D02*
Y2829964D01*
X3907627Y2939464D02*
X3911628D01*
X3909627Y2937464D02*
Y2941464D01*
X3896360Y2949231D02*
X3900360D01*
X3898360Y2947231D02*
Y2951231D01*
X3870860Y2949231D02*
X3874861D01*
X3872860Y2947231D02*
Y2951231D01*
X3845110Y2949231D02*
X3849110D01*
X3847110Y2947231D02*
Y2951231D01*
X3820110Y2949231D02*
X3824110D01*
X3822110Y2947231D02*
Y2951231D01*
X3795110Y2949231D02*
X3799110D01*
X3797110Y2947231D02*
Y2951231D01*
X3397610Y2230464D02*
X3401610D01*
X3399610Y2228464D02*
Y2232464D01*
X2220860Y2217964D02*
X2224860D01*
X2222860Y2215964D02*
Y2219964D01*
X2227110Y2217964D02*
X2231110D01*
X2229110Y2215964D02*
Y2219964D01*
X2916860Y2220464D02*
X2920860D01*
X2918860Y2218464D02*
Y2222464D01*
X2923611Y2220464D02*
X2927610D01*
X2925610Y2218464D02*
Y2222464D01*
X2929110Y2220464D02*
X2933110D01*
X2931111Y2218464D02*
Y2222464D01*
X3593110Y2890464D02*
X3597110D01*
X3595110Y2888464D02*
Y2892464D01*
X3543360Y2883964D02*
X3547361D01*
X3545360Y2881964D02*
Y2885964D01*
X2233360Y2217964D02*
X2237360D01*
X2235360Y2215964D02*
Y2219964D01*
X3662361Y2875214D02*
X3666360D01*
X3664360Y2873214D02*
Y2877214D01*
X3556360Y2875214D02*
X3560360D01*
X3558360Y2873214D02*
Y2877214D01*
X3368360Y2874714D02*
X3372361D01*
X3370360Y2872714D02*
Y2876714D01*
X3175610Y2874214D02*
X3179610D01*
X3177610Y2872214D02*
Y2876214D01*
X2984861Y2872964D02*
X2988860D01*
X2986860Y2870964D02*
Y2874964D01*
X2799110Y2875214D02*
X2803110D01*
X2801111Y2873214D02*
Y2877214D01*
X2490110Y2853714D02*
X2494110D01*
X2492110Y2851714D02*
Y2855714D01*
X2415360Y2873964D02*
X2419360D01*
X2417360Y2871964D02*
Y2875964D01*
X2242110Y2874214D02*
X2246110D01*
X2244110Y2872214D02*
Y2876214D01*
X2038360Y2874714D02*
X2042360D01*
X2040360Y2872714D02*
Y2876714D01*
X2027110Y2874714D02*
X2031110D01*
X2029110Y2872714D02*
Y2876714D01*
X1849360Y2874714D02*
X1853360D01*
X1851360Y2872714D02*
Y2876714D01*
X1663110Y2874964D02*
X1667110D01*
X1665110Y2872964D02*
Y2876964D01*
X1470860Y2874464D02*
X1474860D01*
X1472860Y2872464D02*
Y2876464D01*
X1292033Y2867464D02*
X1296033D01*
X1294033Y2865464D02*
Y2869464D01*
X3848110Y2443464D02*
X3852110D01*
X3850110Y2441464D02*
Y2445464D01*
X3848110Y2436964D02*
X3852110D01*
X3850110Y2434964D02*
Y2438964D01*
X3848110Y2430464D02*
X3852110D01*
X3850110Y2428464D02*
Y2432464D01*
X3848110Y2424464D02*
X3852110D01*
X3850110Y2422464D02*
Y2426464D01*
X2239860Y2217964D02*
X2243860D01*
X2241860Y2215964D02*
Y2219964D01*
X2562610Y2267714D02*
X2566610D01*
X2564610Y2265714D02*
Y2269714D01*
X2569110Y2267714D02*
X2573110D01*
X2571111Y2265714D02*
Y2269714D01*
X2605851Y2795828D02*
X2609850D01*
X2607850Y2793828D02*
Y2797828D01*
X2598850Y2802828D02*
X2602850D01*
X2600851Y2800828D02*
Y2804828D01*
X3395070Y2860994D02*
X3399070D01*
X3397070Y2858994D02*
Y2862994D01*
X3848434Y2217964D02*
X3852434D01*
X3850434Y2215964D02*
Y2219964D01*
X2575360Y2267714D02*
X2579360D01*
X2577361Y2265714D02*
Y2269714D01*
X1652122Y2352486D02*
X1656122D01*
X1654122Y2350486D02*
Y2354486D01*
X2456100Y2093374D02*
X2460100D01*
X2458100Y2091374D02*
Y2095374D01*
X1343860Y2177464D02*
X1347860D01*
X1345860Y2175464D02*
Y2179464D01*
X1241110Y2177464D02*
X1245110D01*
X1243110Y2175464D02*
Y2179464D01*
X2331318Y2454848D02*
X2335318D01*
X2333318Y2452848D02*
Y2456848D01*
X1968110Y2462214D02*
X1972110D01*
X1970110Y2460214D02*
Y2464214D01*
X2565760Y2783778D02*
X2569760D01*
X2567760Y2781778D02*
Y2785778D01*
X1343512Y2603946D02*
X1347512D01*
X1345512Y2601946D02*
Y2605946D01*
X2871322Y2620456D02*
X2875322D01*
X2873322Y2618456D02*
Y2622456D01*
X3062838Y2617662D02*
X3066838D01*
X3064838Y2615662D02*
Y2619662D01*
X3442314Y2621726D02*
X3446314D01*
X3444314Y2619726D02*
Y2623726D01*
X2427330Y2789620D02*
X2431330D01*
X2429330Y2787620D02*
Y2791620D01*
X2022962Y2610042D02*
X2026962D01*
X2024962Y2608042D02*
Y2612042D01*
X2030328Y2604962D02*
X2034328D01*
X2032328Y2602962D02*
Y2606962D01*
X2037694Y2600898D02*
X2041694D01*
X2039694Y2598898D02*
Y2602898D01*
X2393548Y2424114D02*
X2397548D01*
X2395548Y2422114D02*
Y2426114D01*
X2367386Y2399730D02*
X2371386D01*
X2369386Y2397730D02*
Y2401730D01*
X2315100Y2217624D02*
X2319100D01*
X2317100Y2215624D02*
Y2219624D01*
X2321600Y2211624D02*
X2325600D01*
X2323600Y2209624D02*
Y2213624D01*
X2257404Y2846262D02*
X2261404D01*
X2259404Y2844262D02*
Y2848262D01*
X2298806Y2661096D02*
X2302806D01*
X2300806Y2659096D02*
Y2663096D01*
X2346360Y2472214D02*
X2350360D01*
X2348360Y2470214D02*
Y2474214D01*
X2529946Y2392110D02*
X2533946D01*
X2531946Y2390110D02*
Y2394110D01*
X2096110Y2169214D02*
X2100110D01*
X2098110Y2167214D02*
Y2171214D01*
X2267056Y2281874D02*
X2271056D01*
X2269056Y2279874D02*
Y2283874D01*
X3581760Y2833054D02*
X3585760D01*
X3583760Y2831054D02*
Y2835054D01*
X2058014Y2359090D02*
X2062014D01*
X2060014Y2357090D02*
Y2361090D01*
X2102350Y2371374D02*
X2106350D01*
X2104350Y2369374D02*
Y2373374D01*
X2577860Y2877214D02*
X2581860D01*
X2579861Y2875214D02*
Y2879214D01*
X1369633Y2683214D02*
X1373633D01*
X1371633Y2681214D02*
Y2685214D01*
X1399632Y2682964D02*
X1403632D01*
X1401632Y2680964D02*
Y2684964D01*
X1441810Y2447482D02*
X1445810D01*
X1443810Y2445482D02*
Y2449482D01*
X3537310Y2815782D02*
X3541310D01*
X3539310Y2813782D02*
Y2817782D01*
X3471860Y2821214D02*
X3475860D01*
X3473860Y2819214D02*
Y2823214D01*
X2865110Y2297964D02*
X2869110D01*
X2867110Y2295964D02*
Y2299964D01*
X3550264Y2526984D02*
X3554265D01*
X3552264Y2524984D02*
Y2528984D01*
X3564489Y2529524D02*
X3568488D01*
X3566488Y2527524D02*
Y2531524D01*
X3508100Y2547304D02*
X3512101D01*
X3510100Y2545304D02*
Y2549304D01*
X2466192Y2149286D02*
X2470192D01*
X2468192Y2147286D02*
Y2151286D01*
X2485242Y2149540D02*
X2489242D01*
X2487242Y2147540D02*
Y2151540D01*
X1744360Y2646964D02*
X1748360D01*
X1746360Y2644964D02*
Y2648964D01*
X1745610Y2631464D02*
X1749610D01*
X1747610Y2629464D02*
Y2633464D01*
X1751110Y2616714D02*
X1755110D01*
X1753110Y2614714D02*
Y2618714D01*
X1852610Y2644214D02*
X1856610D01*
X1854610Y2642214D02*
Y2646214D01*
X1858370Y2602676D02*
X1862370D01*
X1860370Y2600676D02*
Y2604676D01*
X1753468Y2791398D02*
X1757468D01*
X1755468Y2789398D02*
Y2793398D01*
X1643632Y2938464D02*
X1647632D01*
X1645632Y2936464D02*
Y2940464D01*
X1658860Y2933231D02*
X1662860D01*
X1660860Y2931231D02*
Y2935231D01*
X1688860Y2925231D02*
X1692860D01*
X1690860Y2923231D02*
Y2927231D01*
X3063110Y2685964D02*
X3067110D01*
X3065110Y2683964D02*
Y2687964D01*
X3086111Y2684214D02*
X3090110D01*
X3088110Y2682214D02*
Y2686214D01*
X3129110Y2684964D02*
X3133110D01*
X3131111Y2682964D02*
Y2686964D01*
X3097860Y2647464D02*
X3101860D01*
X3099861Y2645464D02*
Y2649464D01*
X3187610Y2640714D02*
X3191610D01*
X3189610Y2638714D02*
Y2642714D01*
X3265600Y2622874D02*
X3269601D01*
X3267600Y2620874D02*
Y2624874D01*
X3290100Y2623124D02*
X3294100D01*
X3292101Y2621124D02*
Y2625124D01*
X3268611Y2683964D02*
X3272610D01*
X3270610Y2681964D02*
Y2685964D01*
X3308860Y2683464D02*
X3312860D01*
X3310860Y2681464D02*
Y2685464D01*
X3277860Y2736964D02*
X3281860D01*
X3279861Y2734964D02*
Y2738964D01*
X3304392Y2741868D02*
X3308392D01*
X3306393Y2739868D02*
Y2743868D01*
X3072610Y2740214D02*
X3076610D01*
X3074610Y2738214D02*
Y2742214D01*
X3121111Y2735964D02*
X3125110D01*
X3123110Y2733964D02*
Y2737964D01*
X2992110Y2826214D02*
X2996111D01*
X2994110Y2824214D02*
Y2828214D01*
X2986610Y2937214D02*
X2990610D01*
X2988611Y2935214D02*
Y2939214D01*
X3006610Y2930714D02*
X3010610D01*
X3008611Y2928714D02*
Y2932714D01*
X3162361Y2938214D02*
X3166360D01*
X3164360Y2936214D02*
Y2940214D01*
X3161860Y2923714D02*
X3165860D01*
X3163860Y2921714D02*
Y2925714D01*
X3188360Y2937714D02*
X3192361D01*
X3190360Y2935714D02*
Y2939714D01*
X3167860Y2832464D02*
X3171860D01*
X3169861Y2830464D02*
Y2834464D01*
X3182610Y2823964D02*
X3186610D01*
X3184610Y2821964D02*
Y2825964D01*
X3087860Y2822464D02*
X3091860D01*
X3089861Y2820464D02*
Y2824464D01*
X3046837Y2871916D02*
X3050836D01*
X3048836Y2869916D02*
Y2873916D01*
X3037110Y2817464D02*
X3041111D01*
X3039110Y2815464D02*
Y2819464D01*
X3096360Y2826464D02*
X3100360D01*
X3098360Y2824464D02*
Y2828464D01*
X3121610Y2496214D02*
X3125610D01*
X3123611Y2494214D02*
Y2498214D01*
X3146860Y2496214D02*
X3150860D01*
X3148860Y2494214D02*
Y2498214D01*
X3174861Y2501464D02*
X3178860D01*
X3176860Y2499464D02*
Y2503464D01*
X3171111Y2510964D02*
X3175110D01*
X3173110Y2508964D02*
Y2512964D01*
X3132860Y2511214D02*
X3136860D01*
X3134861Y2509214D02*
Y2513214D01*
X3301360Y2497714D02*
X3305360D01*
X3303360Y2495714D02*
Y2499714D01*
X3337610Y2502464D02*
X3341610D01*
X3339610Y2500464D02*
Y2504464D01*
X3360110Y2498714D02*
X3364110D01*
X3362110Y2496714D02*
Y2500714D01*
X3342492Y2553146D02*
X3346492D01*
X3344492Y2551146D02*
Y2555146D01*
X3325860Y2548714D02*
X3329861D01*
X3327860Y2546714D02*
Y2550714D01*
X3301360Y2553714D02*
X3305360D01*
X3303360Y2551714D02*
Y2555714D01*
X3145896Y2537652D02*
X3149897D01*
X3147896Y2535652D02*
Y2539652D01*
X3146610Y2550714D02*
X3150610D01*
X3148611Y2548714D02*
Y2552714D01*
X3127361Y2548714D02*
X3131360D01*
X3129360Y2546714D02*
Y2550714D01*
X3113110Y2554214D02*
X3117110D01*
X3115110Y2552214D02*
Y2556214D01*
X3115110Y2450714D02*
X3119110D01*
X3117110Y2448714D02*
Y2452714D01*
X3308860Y2452214D02*
X3312860D01*
X3310860Y2450214D02*
Y2454214D01*
X3342610Y2450214D02*
X3346610D01*
X3344610Y2448214D02*
Y2452214D01*
X3227860Y2451464D02*
X3231860D01*
X3229861Y2449464D02*
Y2453464D01*
X3243110Y2447714D02*
X3247110D01*
X3245110Y2445714D02*
Y2449714D01*
X3020110Y2266464D02*
X3024110D01*
X3022110Y2264464D02*
Y2268464D01*
X3034110Y2255714D02*
X3038110D01*
X3036111Y2253714D02*
Y2257714D01*
X3057361Y2261464D02*
X3061360D01*
X3059360Y2259464D02*
Y2263464D01*
X3014579Y2331912D02*
X3018578D01*
X3016578Y2329912D02*
Y2333912D01*
X3065378Y2321752D02*
X3069378D01*
X3067379Y2319752D02*
Y2323752D01*
X3081635Y2332420D02*
X3085634D01*
X3083634Y2330420D02*
Y2334420D01*
X3161597Y2317305D02*
X3165597D01*
X3163597Y2315305D02*
Y2319305D01*
X3168813Y2326176D02*
X3172813D01*
X3170813Y2324176D02*
Y2328176D01*
X3040740Y2329118D02*
X3044740D01*
X3042740Y2327118D02*
Y2331118D01*
X3043611Y2361964D02*
X3047610D01*
X3045610Y2359964D02*
Y2363964D01*
X3025360Y2364464D02*
X3029360D01*
X3027361Y2362464D02*
Y2366464D01*
X3016610Y2352714D02*
X3020610D01*
X3018611Y2350714D02*
Y2354714D01*
X3065610Y2350964D02*
X3069610D01*
X3067610Y2348964D02*
Y2352964D01*
X3067110Y2364714D02*
X3071111D01*
X3069110Y2362714D02*
Y2366714D01*
X3216860Y2356714D02*
X3220860D01*
X3218860Y2354714D02*
Y2358714D01*
X3239861Y2355714D02*
X3243860D01*
X3241860Y2353714D02*
Y2357714D01*
X3259861Y2368464D02*
X3263860D01*
X3261860Y2366464D02*
Y2370464D01*
X3099861Y2736464D02*
X3103860D01*
X3101860Y2734464D02*
Y2738464D01*
X1745110Y2745964D02*
X1749110D01*
X1747110Y2743964D02*
Y2747964D01*
X1746860Y2731964D02*
X1750860D01*
X1748860Y2729964D02*
Y2733964D01*
X1732110Y2741464D02*
X1736110D01*
X1734110Y2739464D02*
Y2743464D01*
X1759860Y2740714D02*
X1763860D01*
X1761860Y2738714D02*
Y2742714D01*
X1611110Y2547464D02*
X1615110D01*
X1613110Y2545464D02*
Y2549464D01*
X1577954Y2520888D02*
X1581954D01*
X1579954Y2518888D02*
Y2522888D01*
X1574652Y2502854D02*
X1578652D01*
X1576652Y2500854D02*
Y2504854D01*
X1977610Y2547964D02*
X1981610D01*
X1979610Y2545964D02*
Y2549964D01*
X1997110Y2551214D02*
X2001110D01*
X1999110Y2549214D02*
Y2553214D01*
X1983110Y2513464D02*
X1987110D01*
X1985110Y2511464D02*
Y2515464D01*
X2267110Y2690714D02*
X2271110D01*
X2269110Y2688714D02*
Y2692714D01*
X2335360Y2686714D02*
X2339360D01*
X2337360Y2684714D02*
Y2688714D01*
X2356110Y2701714D02*
X2360110D01*
X2358110Y2699714D02*
Y2703714D01*
X2370434Y2694370D02*
X2374434D01*
X2372434Y2692370D02*
Y2696370D01*
X2501360Y2688964D02*
X2505360D01*
X2503360Y2686964D02*
Y2690964D01*
X2495656Y2720024D02*
X2499656D01*
X2497656Y2718024D02*
Y2722024D01*
X2559110Y2682964D02*
X2563110D01*
X2561111Y2680964D02*
Y2684964D01*
X2643360Y2694214D02*
X2647361D01*
X2645360Y2692214D02*
Y2696214D01*
X2633110Y2701714D02*
X2637110D01*
X2635110Y2699714D02*
Y2703714D01*
X2748360Y2704714D02*
X2752361D01*
X2750360Y2702714D02*
Y2706714D01*
X2752860Y2715964D02*
X2756860D01*
X2754861Y2713964D02*
Y2717964D01*
X2745360Y2676214D02*
X2749360D01*
X2747361Y2674214D02*
Y2678214D01*
X2735360Y2691714D02*
X2739360D01*
X2737361Y2689714D02*
Y2693714D01*
X2831860Y2700464D02*
X2835860D01*
X2833860Y2698464D02*
Y2702464D01*
X2825860Y2687964D02*
X2829861D01*
X2827860Y2685964D02*
Y2689964D01*
X2883110Y2687964D02*
X2887110D01*
X2885110Y2685964D02*
Y2689964D01*
X2911610Y2683964D02*
X2915610D01*
X2913611Y2681964D02*
Y2685964D01*
X2936610Y2693964D02*
X2940610D01*
X2938611Y2691964D02*
Y2695964D01*
X2944110Y2678214D02*
X2948110D01*
X2946111Y2676214D02*
Y2680214D01*
X2882361Y2739214D02*
X2886360D01*
X2884360Y2737214D02*
Y2741214D01*
X2924360Y2738214D02*
X2928360D01*
X2926360Y2736214D02*
Y2740214D01*
X2732384Y2743646D02*
X2736384D01*
X2734384Y2741646D02*
Y2745646D01*
X2704698Y2745424D02*
X2708698D01*
X2706698Y2743424D02*
Y2747424D01*
X2690110Y2503964D02*
X2694110D01*
X2692110Y2501964D02*
Y2505964D01*
X2734360Y2498464D02*
X2738360D01*
X2736360Y2496464D02*
Y2500464D01*
X2791860Y2498214D02*
X2795860D01*
X2793860Y2496214D02*
Y2500214D01*
X2931610Y2496714D02*
X2935610D01*
X2933611Y2494714D02*
Y2498714D01*
X2881860Y2501714D02*
X2885860D01*
X2883860Y2499714D02*
Y2503714D01*
X2983360Y2492714D02*
X2987361D01*
X2985360Y2490714D02*
Y2494714D01*
X2930110Y2549214D02*
X2934110D01*
X2932110Y2547214D02*
Y2551214D01*
X2973110Y2546714D02*
X2977110D01*
X2975110Y2544714D02*
Y2548714D01*
X2741111Y2548214D02*
X2745110D01*
X2743110Y2546214D02*
Y2550214D01*
X2760360Y2545714D02*
X2764360D01*
X2762361Y2543714D02*
Y2547714D01*
X2773786Y2556194D02*
X2777786D01*
X2775786Y2554194D02*
Y2558194D01*
X2310110Y2506464D02*
X2314110D01*
X2312110Y2504464D02*
Y2508464D01*
X2425860Y2501714D02*
X2429860D01*
X2427860Y2499714D02*
Y2503714D01*
X2419456Y2522412D02*
X2423456D01*
X2421456Y2520412D02*
Y2524412D01*
X2210360Y2314214D02*
X2214360D01*
X2212360Y2312214D02*
Y2316214D01*
X2245860Y2312714D02*
X2249860D01*
X2247860Y2310714D02*
Y2314714D01*
X2397110Y2322214D02*
X2401110D01*
X2399110Y2320214D02*
Y2324214D01*
X2325222Y2325562D02*
X2329222D01*
X2327222Y2323562D02*
Y2327562D01*
X2521860Y2334964D02*
X2525860D01*
X2523860Y2332964D02*
Y2336964D01*
X2523596Y2323784D02*
X2527596D01*
X2525596Y2321784D02*
Y2325784D01*
X2454610Y2370964D02*
X2458610D01*
X2456610Y2368964D02*
Y2372964D01*
X2659861Y2360714D02*
X2663860D01*
X2661860Y2358714D02*
Y2362714D01*
X2674360Y2360214D02*
X2678360D01*
X2676360Y2358214D02*
Y2362214D01*
X2691111Y2359464D02*
X2695110D01*
X2693110Y2357464D02*
Y2361464D01*
X2626466Y2361376D02*
X2630466D01*
X2628466Y2359376D02*
Y2363376D01*
X2813611Y2359464D02*
X2817610D01*
X2815610Y2357464D02*
Y2361464D01*
X2845110Y2357964D02*
X2849110D01*
X2847110Y2355964D02*
Y2359964D01*
X2869861Y2356714D02*
X2873860D01*
X2871860Y2354714D02*
Y2358714D01*
X3508100Y2564068D02*
X3512101D01*
X3510100Y2562068D02*
Y2566068D01*
X3524356Y2545526D02*
X3528356D01*
X3526357Y2543526D02*
Y2547526D01*
X3527404Y2563306D02*
X3531404D01*
X3529404Y2561306D02*
Y2565306D01*
X3761846Y2525714D02*
X3765846D01*
X3763846Y2523714D02*
Y2527714D01*
X3689964Y2519872D02*
X3693965D01*
X3691964Y2517872D02*
Y2521872D01*
X3479906Y2644332D02*
X3483906D01*
X3481906Y2642332D02*
Y2646332D01*
X3743812Y2703006D02*
X3747812D01*
X3745812Y2701006D02*
Y2705006D01*
X3597860Y2696214D02*
X3601860D01*
X3599861Y2694214D02*
Y2698214D01*
X3499861Y2689464D02*
X3503860D01*
X3501860Y2687464D02*
Y2691464D01*
X3470110Y2689464D02*
X3474110D01*
X3472110Y2687464D02*
Y2691464D01*
X3405110Y2695714D02*
X3409110D01*
X3407110Y2693714D02*
Y2697714D01*
X3439110Y2693964D02*
X3443110D01*
X3441111Y2691964D02*
Y2695964D01*
X3441360Y2735714D02*
X3445360D01*
X3443360Y2733714D02*
Y2737714D01*
X3484861Y2751464D02*
X3488860D01*
X3486860Y2749464D02*
Y2753464D01*
X3497110Y2739464D02*
X3501111D01*
X3499110Y2737464D02*
Y2741464D01*
X3402437Y2706562D02*
X3406436D01*
X3404436Y2704562D02*
Y2708562D01*
X3234110Y2877214D02*
X3238110D01*
X3236111Y2875214D02*
Y2879214D01*
X3301360Y2886964D02*
X3305360D01*
X3303360Y2884964D02*
Y2888964D01*
X3054964Y2900110D02*
X3058965D01*
X3056964Y2898110D02*
Y2902110D01*
X3117361Y2887964D02*
X3121360D01*
X3119360Y2885964D02*
Y2889964D01*
X2831953Y2926018D02*
X2835952D01*
X2833952Y2924018D02*
Y2928018D01*
X2931610Y2889464D02*
X2935610D01*
X2933611Y2887464D02*
Y2891464D01*
X2284860Y2878714D02*
X2288860D01*
X2286860Y2876714D02*
Y2880714D01*
X2356860Y2887464D02*
X2360860D01*
X2358860Y2885464D02*
Y2889464D01*
X2414110Y2860214D02*
X2418110D01*
X2416110Y2858214D02*
Y2862214D01*
X2093828Y2891728D02*
X2097828D01*
X2095828Y2889728D02*
Y2893728D01*
X2165860Y2888214D02*
X2169860D01*
X2167860Y2886214D02*
Y2890214D01*
X1905860Y2876464D02*
X1909860D01*
X1907860Y2874464D02*
Y2878464D01*
X1976360Y2890714D02*
X1980360D01*
X1978360Y2888714D02*
Y2892714D01*
X1829610Y2858214D02*
X1833610D01*
X1831610Y2856214D02*
Y2860214D01*
X1848210Y2857946D02*
X1852210D01*
X1850210Y2855946D02*
Y2859946D01*
X1880722Y2835340D02*
X1884722D01*
X1882722Y2833340D02*
Y2837340D01*
X1719178Y2887156D02*
X1723178D01*
X1721178Y2885156D02*
Y2889156D01*
X1786360Y2887964D02*
X1790360D01*
X1788360Y2885964D02*
Y2889964D01*
X1598110Y2891714D02*
X1602110D01*
X1600110Y2889714D02*
Y2893714D01*
X1525630Y2875726D02*
X1529630D01*
X1527630Y2873726D02*
Y2877726D01*
X1416850Y2819624D02*
X1420850D01*
X1418850Y2817624D02*
Y2821624D01*
X1406360Y2889964D02*
X1410360D01*
X1408360Y2887964D02*
Y2891964D01*
X1924360Y2689214D02*
X1928360D01*
X1926360Y2687214D02*
Y2691214D01*
X1990860Y2687214D02*
X1994860D01*
X1992860Y2685214D02*
Y2689214D01*
X1879860Y2696464D02*
X1883860D01*
X1881860Y2694464D02*
Y2698464D01*
X1809360Y2687964D02*
X1813360D01*
X1811360Y2685964D02*
Y2689964D01*
X1747110Y2683714D02*
X1751110D01*
X1749110Y2681714D02*
Y2685714D01*
X1760360Y2696214D02*
X1764360D01*
X1762360Y2694214D02*
Y2698214D01*
X1729610Y2689214D02*
X1733610D01*
X1731610Y2687214D02*
Y2691214D01*
X1696360Y2694714D02*
X1700360D01*
X1698360Y2692714D02*
Y2696714D01*
X1681110Y2698464D02*
X1685110D01*
X1683110Y2696464D02*
Y2700464D01*
X1617610Y2686714D02*
X1621610D01*
X1619610Y2684714D02*
Y2688714D01*
X1623860Y2675964D02*
X1627860D01*
X1625860Y2673964D02*
Y2677964D01*
X1497110Y2696464D02*
X1501110D01*
X1499110Y2694464D02*
Y2698464D01*
X1534610Y2693464D02*
X1538610D01*
X1536610Y2691464D02*
Y2695464D01*
X1382374Y2791144D02*
X1386374D01*
X1384374Y2789144D02*
Y2793144D01*
X1320398Y2793684D02*
X1324398D01*
X1322398Y2791684D02*
Y2795684D01*
X2399360Y2500964D02*
X2403360D01*
X2401360Y2498964D02*
Y2502964D01*
X1833360Y2313214D02*
X1837360D01*
X1835360Y2311214D02*
Y2315214D01*
X1874860Y2312964D02*
X1878860D01*
X1876860Y2310964D02*
Y2314964D01*
X1761860Y2313714D02*
X1765860D01*
X1763860Y2311714D02*
Y2315714D01*
X1684380Y2309052D02*
X1688380D01*
X1686380Y2307052D02*
Y2311052D01*
X1645610Y2313714D02*
X1649610D01*
X1647610Y2311714D02*
Y2315714D01*
X1685396Y2348676D02*
X1689396D01*
X1687396Y2346676D02*
Y2350676D01*
X1685396Y2333436D02*
X1689396D01*
X1687396Y2331436D02*
Y2335436D01*
X1878610Y2355214D02*
X1882610D01*
X1880610Y2353214D02*
Y2357214D01*
X1952610Y2322464D02*
X1956610D01*
X1954610Y2320464D02*
Y2324464D01*
X1952860Y2298964D02*
X1956860D01*
X1954860Y2296964D02*
Y2300964D01*
X1408886Y2218116D02*
X1412886D01*
X1410886Y2216116D02*
Y2220116D01*
X1632818Y2217612D02*
X1636818D01*
X1634818Y2215612D02*
Y2219612D01*
X1594972Y2217612D02*
X1598972D01*
X1596972Y2215612D02*
Y2219612D01*
X1554860Y2110714D02*
X1558860D01*
X1556860Y2108714D02*
Y2112714D01*
X1635866Y2112710D02*
X1639866D01*
X1637866Y2110710D02*
Y2114710D01*
X1472431Y2128766D02*
X1476431D01*
X1474431Y2126765D02*
Y2130766D01*
X1381612Y2138110D02*
X1385612D01*
X1383612Y2136110D02*
Y2140110D01*
X1263360Y2162214D02*
X1267360D01*
X1265360Y2160214D02*
Y2164214D01*
X1286360Y2163214D02*
X1290360D01*
X1288360Y2161214D02*
Y2165214D01*
X1293474Y2155128D02*
X1297474D01*
X1295474Y2153128D02*
Y2157128D01*
X2516360Y2305964D02*
X2520360D01*
X2518360Y2303964D02*
Y2307964D01*
X2440610Y2321714D02*
X2444610D01*
X2442610Y2319714D02*
Y2323714D01*
X2521345Y2300980D02*
X2525345D01*
X2523345Y2298980D02*
Y2302980D01*
X2526360Y2296214D02*
X2530360D01*
X2528360Y2294214D02*
Y2298214D01*
X2447610Y2321714D02*
X2451610D01*
X2449610Y2319714D02*
Y2323714D01*
X2433610Y2321714D02*
X2437610D01*
X2435610Y2319714D02*
Y2323714D01*
X3468357Y2268214D02*
X3472357D01*
X3470357Y2266214D02*
Y2270214D01*
X2398882Y2430972D02*
X2402882D01*
X2400882Y2428972D02*
Y2432972D01*
X2545186Y2914334D02*
X2549186D01*
X2547186Y2912334D02*
Y2916334D01*
X1414630Y2922464D02*
X1418631D01*
X1416631Y2920464D02*
Y2924464D01*
X1606400Y2922464D02*
X1610400D01*
X1608400Y2920464D02*
Y2924464D01*
X1794615Y2922714D02*
X1798615D01*
X1796615Y2920714D02*
Y2924714D01*
X1985119Y2922464D02*
X1989118D01*
X1987119Y2920464D02*
Y2924464D01*
X2172316Y2922464D02*
X2176316D01*
X2174316Y2920464D02*
Y2924464D01*
X2362566Y2922464D02*
X2366566D01*
X2364566Y2920464D02*
Y2924464D01*
X3784453Y2921954D02*
X3788452D01*
X3786452Y2919954D02*
Y2923954D01*
X3599610Y2936756D02*
X3603611D01*
X3601610Y2934756D02*
Y2938756D01*
X2742566Y2922464D02*
X2746566D01*
X2744566Y2920464D02*
Y2924464D01*
X2932816Y2922464D02*
X2936816D01*
X2934816Y2920464D02*
Y2924464D01*
X3123066Y2922464D02*
X3127066D01*
X3125066Y2920464D02*
Y2924464D01*
X3312566Y2922464D02*
X3316566D01*
X3314566Y2920464D02*
Y2924464D01*
X3502566Y2922464D02*
X3506566D01*
X3504566Y2920464D02*
Y2924464D01*
X1130660Y2850834D02*
X1134660D01*
X1132660Y2848834D02*
Y2852834D01*
X1322938Y2811210D02*
X1326938D01*
X1324938Y2809210D02*
Y2813210D01*
X1512938Y2811210D02*
X1516938D01*
X1514938Y2809210D02*
Y2813210D01*
X1703188Y2811460D02*
X1707188D01*
X1705188Y2809460D02*
Y2813460D01*
X1892938Y2812734D02*
X1896938D01*
X1894938Y2810734D02*
Y2814734D01*
X2279248Y2809432D02*
X2283248D01*
X2281248Y2807432D02*
Y2811432D01*
X2442316Y2809432D02*
X2446316D01*
X2444316Y2807432D02*
Y2811432D01*
X2840334Y2799964D02*
X2844334D01*
X2842334Y2797964D02*
Y2801964D01*
X3029818Y2799964D02*
X3033818D01*
X3031819Y2797964D02*
Y2801964D01*
X3218033Y2799964D02*
X3222032D01*
X3220032Y2797964D02*
Y2801964D01*
X3412343Y2799964D02*
X3416342D01*
X3414342Y2797964D02*
Y2801964D01*
X3401674Y2854390D02*
X3405674D01*
X3403674Y2852390D02*
Y2856390D01*
X3398384Y2857680D02*
X3402384D01*
X3400384Y2855680D02*
Y2859680D01*
X3614780Y2826958D02*
X3618781D01*
X3616780Y2824958D02*
Y2828958D01*
X3615542Y2816290D02*
X3619543D01*
X3617542Y2814290D02*
Y2818290D01*
X1437360Y2773994D02*
X1441360D01*
X1439360Y2771994D02*
Y2775994D01*
X1200002Y2775904D02*
X1204002D01*
X1202002Y2773904D02*
Y2777904D01*
X1627360Y2773748D02*
X1631360D01*
X1629360Y2771748D02*
Y2775748D01*
X1817610Y2774754D02*
X1821610D01*
X1819610Y2772754D02*
Y2776754D01*
X2007860Y2774750D02*
X2011860D01*
X2009860Y2772750D02*
Y2776750D01*
X1279257Y2731714D02*
X1283257D01*
X1281257Y2729714D02*
Y2733714D01*
X1509881Y2731964D02*
X1513880D01*
X1511880Y2729964D02*
Y2733964D01*
X1694792Y2731964D02*
X1698792D01*
X1696792Y2729964D02*
Y2733964D01*
X1887328Y2731964D02*
X1891328D01*
X1889328Y2729964D02*
Y2733964D01*
X2223622Y2237424D02*
X2227622D01*
X2225622Y2235424D02*
Y2239424D01*
X2198222Y2777174D02*
X2202222D01*
X2200222Y2775174D02*
Y2779174D01*
X2387452Y2777174D02*
X2391452D01*
X2389452Y2775174D02*
Y2779174D01*
X2091542Y2738058D02*
X2095542D01*
X2093542Y2736058D02*
Y2740058D01*
X2272142Y2732464D02*
X2276142D01*
X2274142Y2730464D02*
Y2734464D01*
X2458570Y2731964D02*
X2462570D01*
X2460570Y2729964D02*
Y2733964D01*
X2649579Y2732214D02*
X2653578D01*
X2651578Y2730214D02*
Y2734214D01*
X2839062Y2731964D02*
X2843062D01*
X2841062Y2729964D02*
Y2733964D01*
X3028800Y2731964D02*
X3032800D01*
X3030800Y2729964D02*
Y2733964D01*
X3218796Y2731964D02*
X3222796D01*
X3220797Y2729964D02*
Y2733964D01*
X3409546Y2731964D02*
X3413546D01*
X3411546Y2729964D02*
Y2733964D01*
X3593188Y2731964D02*
X3597188D01*
X3595188Y2729964D02*
Y2733964D01*
X2492110Y2733964D02*
X2496110D01*
X2494110Y2731964D02*
Y2735964D01*
X3638402Y2512760D02*
X3642402D01*
X3640403Y2510760D02*
Y2514760D01*
X3642720Y2500314D02*
X3646720D01*
X3644720Y2498314D02*
Y2502314D01*
X3630274Y2519110D02*
X3634274D01*
X3632274Y2517110D02*
Y2521110D01*
X3560170Y2520126D02*
X3564171D01*
X3562170Y2518126D02*
Y2522126D01*
X3100283Y2391996D02*
X3104283D01*
X3102283Y2389996D02*
Y2393996D01*
X2717398Y2393380D02*
X2721398D01*
X2719398Y2391380D02*
Y2395380D01*
X2905612Y2398968D02*
X2909612D01*
X2907612Y2396968D02*
Y2400968D01*
X3285596Y2392110D02*
X3289596D01*
X3287596Y2390110D02*
Y2394110D01*
X1213769Y2419238D02*
X1217769D01*
X1215769Y2417238D02*
Y2421238D01*
X1591924Y2452816D02*
X1595924D01*
X1593924Y2450816D02*
Y2454816D01*
X1570334Y2444942D02*
X1574334D01*
X1572334Y2442942D02*
Y2446942D01*
X1558396Y2443672D02*
X1562396D01*
X1560396Y2441672D02*
Y2445672D01*
X1440811Y2420287D02*
X1444811D01*
X1442811Y2418287D02*
Y2422287D01*
X1571113Y2420287D02*
X1575113D01*
X1573113Y2418287D02*
Y2422287D01*
X1775312Y2440370D02*
X1779312D01*
X1777312Y2438370D02*
Y2442370D01*
X1778614Y2443418D02*
X1782614D01*
X1780614Y2441418D02*
Y2445418D01*
X2555346Y2630108D02*
X2559346D01*
X2557346Y2628108D02*
Y2632108D01*
X2555346Y2635442D02*
X2559346D01*
X2557346Y2633442D02*
Y2637442D01*
X2705206Y2642808D02*
X2709207D01*
X2707206Y2640808D02*
Y2644808D01*
X2710794Y2642808D02*
X2714794D01*
X2712794Y2640808D02*
Y2644808D01*
X1150472Y2444942D02*
X1154472D01*
X1152472Y2442942D02*
Y2446942D01*
X1144376Y2444942D02*
X1148376D01*
X1146376Y2442942D02*
Y2446942D01*
X1155044Y2482788D02*
X1159044D01*
X1157044Y2480788D02*
Y2484788D01*
X1146916Y2482788D02*
X1150916D01*
X1148916Y2480788D02*
Y2484788D01*
X2472542Y2854390D02*
X2476542D01*
X2474542Y2852390D02*
Y2856390D01*
X2477876Y2854136D02*
X2481876D01*
X2479876Y2852136D02*
Y2856136D01*
X2483464Y2853714D02*
X2487464D01*
X2485464Y2851714D02*
Y2855714D01*
X2683128Y2626572D02*
X2687128D01*
X2685128Y2624572D02*
Y2628572D01*
X2684886Y2628838D02*
X2688886D01*
X2686886Y2626838D02*
Y2630838D01*
X2532027Y2621014D02*
X2536027D01*
X2534027Y2619014D02*
Y2623015D01*
X2534010Y2623250D02*
X2538010D01*
X2536010Y2621250D02*
Y2625250D01*
X2132610Y2671938D02*
X2136610D01*
X2134610Y2669938D02*
Y2673938D01*
X2132610Y2666684D02*
X2136610D01*
X2134610Y2664684D02*
Y2668684D01*
X2517246Y2638236D02*
X2521246D01*
X2519246Y2636236D02*
Y2640236D01*
X2517246Y2630870D02*
X2521246D01*
X2519246Y2628870D02*
Y2632870D01*
X2248110Y2874214D02*
X2252110D01*
X2250110Y2872214D02*
Y2876214D01*
X1633499Y2178226D02*
X1637499D01*
X1635499Y2176226D02*
Y2180226D01*
X1628660Y2172842D02*
X1632660D01*
X1630660Y2170842D02*
Y2174842D01*
X1526138Y2191881D02*
X1530138D01*
X1528138Y2189881D02*
Y2193881D01*
X1275021Y2215966D02*
X1279021D01*
X1277021Y2213966D02*
Y2217966D01*
X1331416Y2249889D02*
X1335416D01*
X1333416Y2247889D02*
Y2251889D01*
X1879401Y2810991D02*
X1883401D01*
X1881401Y2808991D02*
Y2812991D01*
X1806232Y2831259D02*
X1810232D01*
X1808232Y2829259D02*
Y2833259D01*
X2448298Y2700244D02*
X2452298D01*
X2450298Y2698243D02*
Y2702243D01*
X2459910Y2703469D02*
X2463911D01*
X2461911Y2701469D02*
Y2705469D01*
X3565449Y2370582D02*
X3569449D01*
X3567449Y2368582D02*
Y2372582D01*
X3578997Y2364507D02*
X3582997D01*
X3580997Y2362507D02*
Y2366507D01*
X2052360Y2234017D02*
X2056360D01*
X2054360Y2232017D02*
Y2236017D01*
X2440610Y2241017D02*
X2444610D01*
X2442610Y2239017D02*
Y2243017D01*
X2746360Y2799964D02*
X2750360D01*
X2748360Y2797964D02*
Y2801964D01*
X2642110Y2876214D02*
X2646111D01*
X2644110Y2874214D02*
Y2878214D01*
X2642110Y2865464D02*
X2646111D01*
X2644110Y2863464D02*
Y2867464D01*
X2578110Y2870214D02*
X2582110D01*
X2580110Y2868214D02*
Y2872214D01*
X2589610Y2818214D02*
X2593611D01*
X2591610Y2816214D02*
Y2820214D01*
X2618110Y2817464D02*
X2622110D01*
X2620110Y2815464D02*
Y2819464D01*
X2588611Y2825714D02*
X2592610D01*
X2590610Y2823714D02*
Y2827714D01*
X2640815Y2836964D02*
X2644814D01*
X2642814Y2834964D02*
Y2838964D01*
X2641610Y2826840D02*
X2645610D01*
X2643611Y2824840D02*
Y2828840D01*
X2642860Y2818714D02*
X2646860D01*
X2644861Y2816714D02*
Y2820714D01*
M02*
