G04 Layer_Color=25308*
%FSLAX44Y44*%
%MOMM*%
G71*
G01*
G75*
%ADD10C,0.1000*%
%ADD11C,1.0000*%
%ADD19C,0.2032*%
%ADD20C,1.5000*%
%ADD21C,1.5000*%
%ADD22C,2.4000*%
%ADD23C,2.3000*%
%ADD24C,1.2000*%
%ADD25O,1.1000X2.5000*%
%ADD26O,1.2000X2.5000*%
%ADD27O,1.3000X2.5000*%
%ADD28O,2.2000X1.4000*%
%ADD29C,5.5000*%
%ADD30C,2.0000*%
%ADD31R,6.0000X7.0000*%
%ADD33R,1.5000X0.8000*%
%ADD34R,0.8000X1.5000*%
%ADD35O,3.0000X6.0000*%
%ADD36R,0.9000X0.9000*%
%ADD37R,0.9000X0.9000*%
%ADD38R,0.9000X0.9000*%
%ADD39R,0.9000X0.9000*%
%ADD40R,1.5240X2.5400*%
%ADD41R,1.2000X1.8000*%
%ADD42R,4.0000X2.5000*%
%ADD43R,2.5400X1.5240*%
%ADD44R,1.5000X1.5000*%
%ADD45R,1.6500X1.8500*%
D10*
X1498316Y2473932D02*
Y2509932D01*
X1483316Y2473932D02*
Y2509932D01*
X1498316D02*
X1483316D01*
X1498316Y2473932D02*
X1483316D01*
X3591022Y2243740D02*
X3576022Y2243740D01*
X3591022Y2207740D02*
X3576022Y2207740D01*
X3591022Y2207740D02*
Y2243740D01*
X3576022Y2207740D02*
Y2243740D01*
X3754598Y2789400D02*
X3739598Y2789400D01*
X3754598Y2825400D02*
X3739598Y2825400D01*
Y2789400D02*
Y2825400D01*
X3754598Y2789400D02*
Y2825400D01*
X3564861Y2809974D02*
Y2845974D01*
X3549861Y2809974D02*
Y2845974D01*
X3564861Y2845974D02*
X3549861Y2845974D01*
X3564861Y2809974D02*
X3549861Y2809974D01*
X3371820Y2810482D02*
X3356820Y2810482D01*
X3371820Y2846482D02*
X3356820Y2846482D01*
Y2810482D02*
Y2846482D01*
X3371820Y2810482D02*
Y2846482D01*
X3186908Y2812260D02*
X3171908D01*
X3186908Y2848260D02*
X3171908D01*
Y2812260D02*
Y2848260D01*
X3186908Y2812260D02*
Y2848260D01*
X2995646Y2824706D02*
X2980646D01*
X2995646Y2860706D02*
X2980646D01*
Y2824706D02*
Y2860706D01*
X2995646Y2824706D02*
Y2860706D01*
X2803114Y2819626D02*
X2788114D01*
X2803114Y2855626D02*
X2788114D01*
Y2819626D02*
Y2855626D01*
X2803114Y2819626D02*
Y2855626D01*
X2668860Y2800214D02*
Y2815214D01*
X2632860Y2800214D02*
Y2815214D01*
X2668860Y2800214D02*
X2632860D01*
X2668860Y2815214D02*
X2632860D01*
X2476860Y2803964D02*
Y2818964D01*
X2440860Y2803964D02*
Y2818964D01*
X2476860Y2803964D02*
X2440860D01*
X2476860Y2818964D02*
X2440860D01*
X2286860Y2804214D02*
Y2819214D01*
X2250860Y2804214D02*
Y2819214D01*
X2286860Y2804214D02*
X2250860D01*
X2286860Y2819214D02*
X2250860D01*
X2097860Y2803464D02*
Y2818464D01*
X2061860Y2803464D02*
Y2818464D01*
X2097860Y2803464D02*
X2061860D01*
X2097860Y2818464D02*
X2061860D01*
X1902360Y2801214D02*
Y2816214D01*
X1866360Y2801214D02*
Y2816214D01*
X1902360Y2801214D02*
X1866360D01*
X1902360Y2816214D02*
X1866360D01*
X1718110Y2800214D02*
Y2815214D01*
X1682110Y2800214D02*
Y2815214D01*
X1718110Y2800214D02*
X1682110D01*
X1718110Y2815214D02*
X1682110D01*
X1528610Y2803964D02*
Y2818964D01*
X1492610Y2803964D02*
Y2818964D01*
X1528610Y2803964D02*
X1492610D01*
X1528610Y2818964D02*
X1492610D01*
X1244360Y2800214D02*
Y2815214D01*
X1208360Y2800214D02*
Y2815214D01*
X1244360Y2800214D02*
X1208360D01*
X1244360Y2815214D02*
X1208360D01*
X3695924Y2620998D02*
X3680924Y2620998D01*
X3695924Y2656998D02*
X3680924Y2656998D01*
Y2620998D02*
Y2656998D01*
X3695924Y2620998D02*
Y2656998D01*
X3522360Y2615464D02*
Y2630464D01*
X3486360Y2615464D02*
Y2630464D01*
X3522360Y2615464D02*
X3486360D01*
X3522360Y2630464D02*
X3486360D01*
X3331610Y2615714D02*
Y2630714D01*
X3295610Y2615714D02*
Y2630714D01*
X3331610Y2615714D02*
X3295610D01*
X3331610Y2630714D02*
X3295610D01*
X3137610Y2628714D02*
X3101610D01*
X3137610Y2613714D02*
X3101610D01*
Y2628714D01*
X3137610Y2613714D02*
Y2628714D01*
X2953860Y2616714D02*
Y2631714D01*
X2917860Y2616714D02*
Y2631714D01*
X2953860Y2616714D02*
X2917860D01*
X2953860Y2631714D02*
X2917860D01*
X2763360Y2613964D02*
Y2628964D01*
X2727361Y2613964D02*
Y2628964D01*
X2763360Y2613964D02*
X2727361D01*
X2763360Y2628964D02*
X2727361D01*
X2572860Y2614964D02*
Y2629964D01*
X2536860Y2614964D02*
Y2629964D01*
X2572860Y2614964D02*
X2536860D01*
X2572860Y2629964D02*
X2536860D01*
X2383110Y2614214D02*
Y2629214D01*
X2347110Y2614214D02*
Y2629214D01*
X2383110Y2614214D02*
X2347110D01*
X2383110Y2629214D02*
X2347110D01*
X2192610Y2615714D02*
Y2630714D01*
X2156610Y2615714D02*
Y2630714D01*
X2192610Y2615714D02*
X2156610D01*
X2192610Y2630714D02*
X2156610D01*
X2003110Y2613214D02*
Y2628214D01*
X1967110Y2613214D02*
Y2628214D01*
X2003110Y2613214D02*
X1967110D01*
X2003110Y2628214D02*
X1967110D01*
X1813860Y2613464D02*
Y2628464D01*
X1777860Y2613464D02*
Y2628464D01*
X1813860Y2613464D02*
X1777860D01*
X1813860Y2628464D02*
X1777860D01*
X1620860Y2613714D02*
Y2628714D01*
X1584860Y2613714D02*
Y2628714D01*
X1620860Y2613714D02*
X1584860D01*
X1620860Y2628714D02*
X1584860D01*
X1390366Y2614902D02*
Y2650902D01*
X1375366Y2614902D02*
Y2650902D01*
X1390366D02*
X1375366D01*
X1390366Y2614902D02*
X1375366D01*
X1316706Y2637254D02*
X1301706Y2637254D01*
X1316706Y2673254D02*
X1301706Y2673254D01*
Y2637254D02*
Y2673254D01*
X1316706Y2637254D02*
Y2673254D01*
X1309610Y2247964D02*
X1273610D01*
X1309610Y2232964D02*
X1273610D01*
Y2247964D01*
X1309610Y2232964D02*
Y2247964D01*
X3735860Y2425964D02*
Y2440964D01*
X3699861Y2425964D02*
Y2440964D01*
X3735860Y2425964D02*
X3699861D01*
X3735860Y2440964D02*
X3699861D01*
X3415000Y2488410D02*
X3400000Y2488410D01*
X3415000Y2524410D02*
X3400000Y2524410D01*
Y2488410D02*
Y2524410D01*
X3415000Y2488410D02*
Y2524410D01*
X3307832Y2427493D02*
Y2442493D01*
X3271832Y2427493D02*
Y2442493D01*
X3307832Y2427493D02*
X3271832D01*
X3307832Y2442493D02*
X3271832D01*
X3043611Y2461964D02*
X3028611D01*
X3043611Y2497964D02*
X3028611D01*
Y2461964D02*
Y2497964D01*
X3043611Y2461964D02*
Y2497964D01*
X2907860Y2424714D02*
Y2439714D01*
X2871860Y2424714D02*
Y2439714D01*
X2907860Y2424714D02*
X2871860D01*
X2907860Y2439714D02*
X2871860D01*
X2826111Y2447714D02*
X2811111D01*
X2826111Y2483714D02*
X2811111D01*
Y2447714D02*
Y2483714D01*
X2826111Y2447714D02*
Y2483714D01*
X2643110Y2448214D02*
X2628110D01*
X2643110Y2484214D02*
X2628110D01*
Y2448214D02*
Y2484214D01*
X2643110Y2448214D02*
Y2484214D01*
X2335110Y2424714D02*
Y2439714D01*
X2299110Y2424714D02*
Y2439714D01*
X2335110Y2424714D02*
X2299110D01*
X2335110Y2439714D02*
X2299110D01*
X2145610Y2423964D02*
Y2438964D01*
X2109610Y2423964D02*
Y2438964D01*
X2145610Y2423964D02*
X2109610D01*
X2145610Y2438964D02*
X2109610D01*
X1956360Y2424464D02*
Y2439464D01*
X1920360Y2424464D02*
Y2439464D01*
X1956360Y2424464D02*
X1920360D01*
X1956360Y2439464D02*
X1920360D01*
X1765110Y2422214D02*
Y2437214D01*
X1729110Y2422214D02*
Y2437214D01*
X1765110Y2422214D02*
X1729110D01*
X1765110Y2437214D02*
X1729110D01*
X1575110Y2422214D02*
Y2437214D01*
X1539110Y2422214D02*
Y2437214D01*
X1575110Y2422214D02*
X1539110D01*
X1575110Y2437214D02*
X1539110D01*
X1264860Y2423464D02*
Y2438464D01*
X1228860Y2423464D02*
Y2438464D01*
X1264860Y2423464D02*
X1228860D01*
X1264860Y2438464D02*
X1228860D01*
X3705068Y2219610D02*
X3690068D01*
X3705068Y2183610D02*
X3690068D01*
X3705068D02*
Y2219610D01*
X3690068Y2183610D02*
Y2219610D01*
X3377110Y2234714D02*
Y2249714D01*
X3341111Y2234714D02*
Y2249714D01*
X3377110Y2234714D02*
X3341111D01*
X3377110Y2249714D02*
X3341111D01*
X3214154Y2232118D02*
Y2247118D01*
X3178154Y2232118D02*
Y2247118D01*
X3214154Y2232118D02*
X3178154D01*
X3214154Y2247118D02*
X3178154D01*
X3022130Y2232372D02*
Y2247372D01*
X2986130Y2232372D02*
Y2247372D01*
X3022130Y2232372D02*
X2986130D01*
X3022130Y2247372D02*
X2986130D01*
X2821610Y2229464D02*
Y2244464D01*
X2785610Y2229464D02*
Y2244464D01*
X2821610Y2229464D02*
X2785610D01*
X2821610Y2244464D02*
X2785610D01*
X2641892Y2231864D02*
Y2246864D01*
X2605892Y2231864D02*
Y2246864D01*
X2641892Y2231864D02*
X2605892D01*
X2641892Y2246864D02*
X2605892D01*
X2384610Y2285214D02*
Y2321214D01*
X2369610Y2285214D02*
Y2321214D01*
X2384610D02*
X2369610D01*
X2384610Y2285214D02*
X2369610D01*
X2247860Y2238214D02*
Y2253214D01*
X2211860Y2238214D02*
Y2253214D01*
X2247860Y2238214D02*
X2211860D01*
X2247860Y2253214D02*
X2211860D01*
X2052110Y2230214D02*
Y2245214D01*
X2016110Y2230214D02*
Y2245214D01*
X2052110Y2230214D02*
X2016110D01*
X2052110Y2245214D02*
X2016110D01*
X1856110Y2232964D02*
Y2247964D01*
X1820110Y2232964D02*
Y2247964D01*
X1856110Y2232964D02*
X1820110D01*
X1856110Y2247964D02*
X1820110D01*
X1667860Y2232964D02*
Y2247964D01*
X1631860Y2232964D02*
Y2247964D01*
X1667860Y2232964D02*
X1631860D01*
X1667860Y2247964D02*
X1631860D01*
X3741860Y2067714D02*
X3726860D01*
X3741860Y2103714D02*
X3726860D01*
Y2067714D02*
Y2103714D01*
X3741860Y2067714D02*
Y2103714D01*
X3498110Y2067964D02*
X3483110D01*
X3498110Y2103964D02*
X3483110D01*
Y2067964D02*
Y2103964D01*
X3498110Y2067964D02*
Y2103964D01*
X3440360Y2067964D02*
X3425360D01*
X3440360Y2103964D02*
X3425360D01*
Y2067964D02*
Y2103964D01*
X3440360Y2067964D02*
Y2103964D01*
X2553610Y2093464D02*
Y2129464D01*
X2538610Y2093464D02*
Y2129464D01*
X2553610D02*
X2538610D01*
X2553610Y2093464D02*
X2538610D01*
X1824341Y2067334D02*
X1809341D01*
X1824341Y2103334D02*
X1809341D01*
Y2067334D02*
Y2103334D01*
X1824341Y2067334D02*
Y2103334D01*
X1599610Y2067214D02*
X1584610D01*
X1599610Y2103214D02*
X1584610D01*
Y2067214D02*
Y2103214D01*
X1599610Y2067214D02*
Y2103214D01*
X1352860Y2067964D02*
X1337860D01*
X1352860Y2103964D02*
X1337860D01*
Y2067964D02*
Y2103964D01*
X1352860Y2067964D02*
Y2103964D01*
X1143360Y2124714D02*
X1128360D01*
X1143360Y2160714D02*
X1128360D01*
Y2124714D02*
Y2160714D01*
X1143360Y2124714D02*
Y2160714D01*
D11*
X3867860Y2108714D02*
D03*
X1303860Y2119464D02*
D03*
X3880110Y2779964D02*
D03*
D19*
X1496324Y2520488D02*
X1486324D01*
X1491324Y2515598D02*
Y2525598D01*
X1495482Y2465008D02*
X1485482D01*
X3588857Y2252664D02*
X3578856Y2252664D01*
X3583014Y2192074D02*
Y2202074D01*
X3588014Y2197184D02*
X3578015D01*
X3751764Y2780476D02*
X3741764D01*
X3747607Y2831066D02*
X3747606Y2841066D01*
X3752606Y2835956D02*
X3742607Y2835956D01*
X3562868Y2856530D02*
X3552868Y2856530D01*
X3557868Y2851640D02*
X3557868Y2861640D01*
X3562026Y2801050D02*
X3552026D01*
X3368986Y2801558D02*
X3358986D01*
X3364828Y2852148D02*
X3364828Y2862148D01*
X3369828Y2857038D02*
X3359828Y2857038D01*
X3184074Y2803336D02*
X3174074D01*
X3179916Y2853926D02*
X3179916Y2863926D01*
X3184916Y2858816D02*
X3174916D01*
X2992812Y2815782D02*
X2982812D01*
X2988654Y2866372D02*
X2988654Y2876372D01*
X2993654Y2871262D02*
X2983654D01*
X2800280Y2810702D02*
X2790280D01*
X2796122Y2861292D02*
X2796122Y2871292D01*
X2801122Y2866182D02*
X2791122D01*
X2677784Y2802380D02*
Y2812380D01*
X2627195Y2808222D02*
X2617195D01*
X2622304Y2803222D02*
Y2813222D01*
X2485784Y2806130D02*
Y2816130D01*
X2435194Y2811972D02*
X2425194D01*
X2430304Y2806972D02*
Y2816972D01*
X2295784Y2806380D02*
Y2816380D01*
X2245194Y2812222D02*
X2235194D01*
X2240304Y2807222D02*
Y2817222D01*
X2106784Y2805630D02*
Y2815630D01*
X2056194Y2811472D02*
X2046194D01*
X2051304Y2806472D02*
Y2816472D01*
X1911284Y2803380D02*
Y2813380D01*
X1860694Y2809222D02*
X1850694D01*
X1855804Y2804222D02*
Y2814222D01*
X1727034Y2802380D02*
Y2812380D01*
X1676444Y2808222D02*
X1666444D01*
X1671554Y2803222D02*
Y2813222D01*
X1537534Y2806130D02*
Y2816130D01*
X1486944Y2811972D02*
X1476944D01*
X1482054Y2806972D02*
Y2816972D01*
X1253284Y2802380D02*
Y2812380D01*
X1202694Y2808222D02*
X1192694D01*
X1197804Y2803222D02*
Y2813222D01*
X3693090Y2612074D02*
X3683090D01*
X3688932Y2662664D02*
X3688932Y2672664D01*
X3693932Y2667554D02*
X3683932Y2667554D01*
X3531284Y2617630D02*
Y2627630D01*
X3480694Y2623472D02*
X3470694D01*
X3475804Y2618472D02*
Y2628472D01*
X3340534Y2617880D02*
Y2627880D01*
X3289944Y2623722D02*
X3279944D01*
X3285054Y2618722D02*
Y2628722D01*
X3091054Y2616722D02*
Y2626722D01*
X3095945Y2621722D02*
X3085944D01*
X3146534Y2615880D02*
Y2625880D01*
X2962784Y2618880D02*
Y2628880D01*
X2912195Y2624722D02*
X2902194D01*
X2907304Y2619722D02*
Y2629722D01*
X2772284Y2616130D02*
Y2626130D01*
X2721694Y2621972D02*
X2711694D01*
X2716804Y2616972D02*
Y2626972D01*
X2581784Y2617130D02*
Y2627130D01*
X2531194Y2622972D02*
X2521194D01*
X2526304Y2617972D02*
Y2627972D01*
X2392034Y2616380D02*
Y2626380D01*
X2341444Y2622222D02*
X2331444D01*
X2336554Y2617222D02*
Y2627222D01*
X2201534Y2617880D02*
Y2627880D01*
X2150944Y2623722D02*
X2140944D01*
X2146054Y2618722D02*
Y2628722D01*
X2012034Y2615380D02*
Y2625380D01*
X1961444Y2621222D02*
X1951444D01*
X1956554Y2616222D02*
Y2626222D01*
X1822784Y2615630D02*
Y2625630D01*
X1772194Y2621472D02*
X1762194D01*
X1767304Y2616472D02*
Y2626472D01*
X1629784Y2615880D02*
Y2625880D01*
X1579194Y2621722D02*
X1569194D01*
X1574304Y2616722D02*
Y2626722D01*
X1388374Y2661458D02*
X1378374D01*
X1383374Y2656568D02*
X1383374Y2666568D01*
X1387532Y2605978D02*
X1377532D01*
X1313872Y2628330D02*
X1303872D01*
X1309714Y2678920D02*
X1309714Y2688920D01*
X1314714Y2683810D02*
X1304714Y2683810D01*
X1263054Y2235972D02*
Y2245972D01*
X1267944Y2240972D02*
X1257944D01*
X1318534Y2235130D02*
Y2245130D01*
X3744785Y2428130D02*
Y2438130D01*
X3694194Y2433972D02*
X3684194D01*
X3689305Y2428972D02*
Y2438972D01*
X3412166Y2479486D02*
X3402166D01*
X3408008Y2530076D02*
X3408008Y2540076D01*
X3413008Y2534966D02*
X3403008Y2534966D01*
X3316756Y2429659D02*
Y2439659D01*
X3266166Y2435501D02*
X3256166D01*
X3261276Y2430501D02*
Y2440501D01*
X3040776Y2453040D02*
X3030776D01*
X3036618Y2503630D02*
Y2513630D01*
X3041618Y2508520D02*
X3031618D01*
X2916784Y2426880D02*
Y2436880D01*
X2866194Y2432722D02*
X2856194D01*
X2861304Y2427722D02*
Y2437722D01*
X2823276Y2438790D02*
X2813276D01*
X2819118Y2489380D02*
Y2499380D01*
X2824118Y2494270D02*
X2814118D01*
X2640276Y2439290D02*
X2630276D01*
X2636118Y2489880D02*
Y2499880D01*
X2641118Y2494770D02*
X2631118D01*
X2344034Y2426880D02*
Y2436880D01*
X2293444Y2432722D02*
X2283444D01*
X2288554Y2427722D02*
Y2437722D01*
X2154534Y2426130D02*
Y2436130D01*
X2103944Y2431972D02*
X2093944D01*
X2099054Y2426972D02*
Y2436972D01*
X1965284Y2426630D02*
Y2436630D01*
X1914694Y2432472D02*
X1904694D01*
X1909804Y2427472D02*
Y2437472D01*
X1774034Y2424380D02*
Y2434380D01*
X1723444Y2430222D02*
X1713444D01*
X1718554Y2425222D02*
Y2435222D01*
X1584034Y2424380D02*
Y2434380D01*
X1533444Y2430222D02*
X1523444D01*
X1528554Y2425222D02*
Y2435222D01*
X1273784Y2425630D02*
Y2435630D01*
X1223194Y2431472D02*
X1213194D01*
X1218304Y2426472D02*
Y2436472D01*
X3702903Y2228534D02*
X3692903D01*
X3697060Y2167944D02*
X3697060Y2177944D01*
X3702060Y2173054D02*
X3692061Y2173054D01*
X3386035Y2236880D02*
Y2246880D01*
X3335444Y2242722D02*
X3325444D01*
X3330554Y2237722D02*
Y2247722D01*
X3223078Y2234284D02*
Y2244284D01*
X3172488Y2240126D02*
X3162488D01*
X3167598Y2235126D02*
Y2245126D01*
X3031054Y2234538D02*
Y2244538D01*
X2980464Y2240380D02*
X2970464D01*
X2975574Y2235380D02*
Y2245380D01*
X2830534Y2231630D02*
Y2241630D01*
X2779944Y2237472D02*
X2769944D01*
X2775054Y2232472D02*
Y2242472D01*
X2650816Y2234030D02*
Y2244030D01*
X2600226Y2239872D02*
X2590226D01*
X2595336Y2234872D02*
Y2244872D01*
X2382618Y2331770D02*
X2372618D01*
X2377618Y2326880D02*
Y2336880D01*
X2381776Y2276290D02*
X2371776D01*
X2256784Y2240380D02*
Y2250380D01*
X2206194Y2246222D02*
X2196194D01*
X2201304Y2241222D02*
Y2251222D01*
X2061034Y2232380D02*
Y2242380D01*
X2010444Y2238222D02*
X2000444D01*
X2005554Y2233222D02*
Y2243222D01*
X1865034Y2235130D02*
Y2245130D01*
X1814444Y2240972D02*
X1804444D01*
X1809554Y2235972D02*
Y2245972D01*
X1676784Y2235130D02*
Y2245130D01*
X1626194Y2240972D02*
X1616194D01*
X1621304Y2235972D02*
Y2245972D01*
X3739026Y2058790D02*
X3729026D01*
X3734868Y2109380D02*
Y2119380D01*
X3739868Y2114270D02*
X3729868D01*
X3495276Y2059040D02*
X3485276D01*
X3491118Y2109630D02*
Y2119630D01*
X3496118Y2114520D02*
X3486118D01*
X3437526Y2059040D02*
X3427526D01*
X3433368Y2109630D02*
Y2119630D01*
X3438368Y2114520D02*
X3428369D01*
X2551618Y2140020D02*
X2541618D01*
X2546618Y2135130D02*
Y2145130D01*
X2550776Y2084540D02*
X2540776D01*
X1821506Y2058410D02*
X1811506D01*
X1817348Y2109000D02*
Y2119000D01*
X1822348Y2113890D02*
X1812348D01*
X1596776Y2058290D02*
X1586776D01*
X1592618Y2108880D02*
Y2118880D01*
X1597618Y2113770D02*
X1587618D01*
X1350026Y2059040D02*
X1340026D01*
X1345868Y2109630D02*
Y2119630D01*
X1350868Y2114520D02*
X1340868D01*
X1140526Y2115790D02*
X1130526D01*
X1136368Y2166380D02*
Y2176380D01*
X1141368Y2171270D02*
X1131368D01*
D20*
X2886272Y2223653D02*
D03*
X2848585Y2220198D02*
D03*
X2433736Y2084856D02*
D03*
X2493736D02*
D03*
D21*
X2453736D02*
D03*
X2473736D02*
D03*
D22*
X1165864Y2568814D02*
D03*
X1229364Y2543414D02*
D03*
X1379563Y2473814D02*
D03*
X1443063Y2448414D02*
D03*
X3841840Y2257744D02*
D03*
X3778340Y2283144D02*
D03*
X3564563Y2283814D02*
D03*
X3628063Y2258414D02*
D03*
X3604354Y2068414D02*
D03*
X3540854Y2093814D02*
D03*
X2471770Y2853714D02*
D03*
X2535270Y2828314D02*
D03*
X3485264D02*
D03*
X3421764Y2853714D02*
D03*
X3865470Y2828314D02*
D03*
X3801971Y2853714D02*
D03*
X3611844D02*
D03*
X3675344Y2828314D02*
D03*
X3231717Y2853714D02*
D03*
X3295217Y2828314D02*
D03*
X3105461D02*
D03*
X3041960Y2853714D02*
D03*
X2852237D02*
D03*
X2662010Y2853814D02*
D03*
X2725510Y2828414D02*
D03*
X2345304Y2828314D02*
D03*
X2281804Y2853714D02*
D03*
X2155194Y2828314D02*
D03*
X2091694Y2853714D02*
D03*
X1965087Y2828314D02*
D03*
X1901587Y2853714D02*
D03*
X1711990D02*
D03*
X1775490Y2828314D02*
D03*
X1585380D02*
D03*
X1521880Y2853714D02*
D03*
X1237327D02*
D03*
X1300827Y2828314D02*
D03*
X3818154Y2637814D02*
D03*
X3754654Y2663214D02*
D03*
X3516720Y2663128D02*
D03*
X3580220Y2637728D02*
D03*
X3390617Y2637814D02*
D03*
X3327117Y2663214D02*
D03*
X3137007D02*
D03*
X3200507Y2637814D02*
D03*
X2946744Y2663214D02*
D03*
X3010244Y2637814D02*
D03*
X2756634Y2663214D02*
D03*
X2820134Y2637814D02*
D03*
X2630540D02*
D03*
X2567040Y2663214D02*
D03*
X2376930D02*
D03*
X2440430Y2637814D02*
D03*
X2250644D02*
D03*
X2187144Y2663214D02*
D03*
X1996827D02*
D03*
X2060327Y2637814D02*
D03*
X1870437D02*
D03*
X1806937Y2663214D02*
D03*
X1616827D02*
D03*
X1680327Y2637814D02*
D03*
X1490217D02*
D03*
X1426717Y2663214D02*
D03*
X1252594Y2637814D02*
D03*
X1189094Y2663214D02*
D03*
X1371634Y2258414D02*
D03*
X1308134Y2283814D02*
D03*
X3731154Y2473914D02*
D03*
X3794654Y2448514D02*
D03*
X3533290D02*
D03*
X3469790Y2473914D02*
D03*
X3279414D02*
D03*
X3342914Y2448514D02*
D03*
X3152537D02*
D03*
X3089037Y2473914D02*
D03*
X2899387D02*
D03*
X2962887Y2448514D02*
D03*
X2709601Y2473914D02*
D03*
X2773100Y2448514D02*
D03*
X2519224Y2473914D02*
D03*
X2582724Y2448514D02*
D03*
X2329654Y2473914D02*
D03*
X2393154Y2448514D02*
D03*
X2139277Y2473914D02*
D03*
X2202777Y2448514D02*
D03*
X2012494D02*
D03*
X1948994Y2473914D02*
D03*
X1759400D02*
D03*
X1822900Y2448514D02*
D03*
X1632790D02*
D03*
X1569290Y2473914D02*
D03*
X1324150Y2448514D02*
D03*
X1260650Y2473914D02*
D03*
X3746764Y2258414D02*
D03*
X3683264Y2283814D02*
D03*
X3374464D02*
D03*
X3437964Y2258414D02*
D03*
X3247854D02*
D03*
X3184354Y2283814D02*
D03*
X2994244D02*
D03*
X3057744Y2258414D02*
D03*
X2868150D02*
D03*
X2804650Y2283814D02*
D03*
X2614540D02*
D03*
X2678040Y2258414D02*
D03*
X2487930D02*
D03*
X2424430Y2283814D02*
D03*
X2234250D02*
D03*
X2297750Y2258414D02*
D03*
X2108157D02*
D03*
X2044657Y2283814D02*
D03*
X1917797Y2258414D02*
D03*
X1854297Y2283814D02*
D03*
X1664727D02*
D03*
X1728227Y2258414D02*
D03*
X3778010Y2093814D02*
D03*
X3841510Y2068414D02*
D03*
X3366931D02*
D03*
X3303430Y2093814D02*
D03*
X2590307D02*
D03*
X2653807Y2068414D02*
D03*
X1878274Y2093814D02*
D03*
X1941774Y2068414D02*
D03*
X1704250D02*
D03*
X1640750Y2093814D02*
D03*
X1403960D02*
D03*
X1467460Y2068414D02*
D03*
X1228944D02*
D03*
X1165444Y2093814D02*
D03*
D23*
X2915737Y2828314D02*
D03*
D24*
X2587610Y2253614D02*
D03*
X2517610D02*
D03*
D25*
X2452986Y2906207D02*
D03*
D26*
X2366579Y2906204D02*
D03*
D27*
X2366561Y2947993D02*
D03*
X2452985Y2948017D02*
D03*
D28*
X2936610Y2787464D02*
D03*
Y2767464D02*
D03*
D29*
X3221607Y2155561D02*
D03*
D30*
X2767166Y2102296D02*
D03*
X2731098Y2102550D02*
D03*
D31*
X3445110Y2698714D02*
D03*
X2448610Y2488464D02*
D03*
D33*
X1443273Y2558114D02*
D03*
Y2543114D02*
D03*
X1392273Y2558114D02*
D03*
Y2543114D02*
D03*
X1229574Y2653114D02*
D03*
Y2638114D02*
D03*
X1178573Y2653114D02*
D03*
Y2638114D02*
D03*
X3628410Y2367464D02*
D03*
Y2352464D02*
D03*
X3577410Y2367464D02*
D03*
Y2352464D02*
D03*
X3842187Y2366794D02*
D03*
Y2351794D02*
D03*
X3791187Y2366794D02*
D03*
Y2351794D02*
D03*
X1416610Y2162714D02*
D03*
Y2177714D02*
D03*
X1467610Y2162714D02*
D03*
Y2177714D02*
D03*
X3865610Y2937714D02*
D03*
Y2922714D02*
D03*
X3814610Y2937714D02*
D03*
Y2922714D02*
D03*
X3624610Y2922464D02*
D03*
Y2937464D02*
D03*
X3675610Y2922464D02*
D03*
Y2937464D02*
D03*
X3485610D02*
D03*
Y2922464D02*
D03*
X3434610Y2937464D02*
D03*
Y2922464D02*
D03*
X3244360Y2922714D02*
D03*
Y2937714D02*
D03*
X3295360Y2922714D02*
D03*
Y2937714D02*
D03*
X3105610Y2937464D02*
D03*
Y2922464D02*
D03*
X3054610Y2937464D02*
D03*
Y2922464D02*
D03*
X2864860D02*
D03*
Y2937464D02*
D03*
X2915860Y2922464D02*
D03*
Y2937464D02*
D03*
X2725610D02*
D03*
Y2922464D02*
D03*
X2674610Y2937464D02*
D03*
Y2922464D02*
D03*
X2484360D02*
D03*
Y2937464D02*
D03*
X2535360Y2922464D02*
D03*
Y2937464D02*
D03*
X2345610D02*
D03*
Y2922464D02*
D03*
X2294610Y2937464D02*
D03*
Y2922464D02*
D03*
X2104360D02*
D03*
Y2937464D02*
D03*
X2155360Y2922464D02*
D03*
Y2937464D02*
D03*
X1965110D02*
D03*
Y2922464D02*
D03*
X1914110Y2937464D02*
D03*
Y2922464D02*
D03*
X1724610D02*
D03*
Y2937464D02*
D03*
X1775610Y2922464D02*
D03*
Y2937464D02*
D03*
X1585610D02*
D03*
Y2922464D02*
D03*
X1534610Y2937464D02*
D03*
Y2922464D02*
D03*
X1250110Y2922714D02*
D03*
Y2937714D02*
D03*
X1301110Y2922714D02*
D03*
Y2937714D02*
D03*
X3818360Y2746714D02*
D03*
Y2731714D02*
D03*
X3767360Y2746714D02*
D03*
Y2731714D02*
D03*
X3529610Y2731964D02*
D03*
Y2746964D02*
D03*
X3580610Y2731964D02*
D03*
Y2746964D02*
D03*
X3390860D02*
D03*
Y2731964D02*
D03*
X3339860Y2746964D02*
D03*
Y2731964D02*
D03*
X3149610D02*
D03*
Y2746964D02*
D03*
X3200610Y2731964D02*
D03*
Y2746964D02*
D03*
X3010360Y2747214D02*
D03*
Y2732214D02*
D03*
X2959360Y2747214D02*
D03*
Y2732214D02*
D03*
X2769110Y2732464D02*
D03*
Y2747464D02*
D03*
X2820110Y2732464D02*
D03*
Y2747464D02*
D03*
X2630610Y2746964D02*
D03*
Y2731964D02*
D03*
X2579610Y2746964D02*
D03*
Y2731964D02*
D03*
X2389610Y2732214D02*
D03*
Y2747214D02*
D03*
X2440610Y2732214D02*
D03*
Y2747214D02*
D03*
X2250860Y2746964D02*
D03*
Y2731964D02*
D03*
X2199860Y2746964D02*
D03*
Y2731964D02*
D03*
X2009360D02*
D03*
Y2746964D02*
D03*
X2060360Y2731964D02*
D03*
Y2746964D02*
D03*
X1870360D02*
D03*
Y2731964D02*
D03*
X1819360Y2746964D02*
D03*
Y2731964D02*
D03*
X1629610D02*
D03*
Y2746964D02*
D03*
X1680610Y2731964D02*
D03*
Y2746964D02*
D03*
X1490360D02*
D03*
Y2731964D02*
D03*
X1439360Y2746964D02*
D03*
Y2731964D02*
D03*
X1201610D02*
D03*
Y2746964D02*
D03*
X1252610Y2731964D02*
D03*
Y2746964D02*
D03*
X1371860Y2367964D02*
D03*
Y2352964D02*
D03*
X1320860Y2367964D02*
D03*
Y2352964D02*
D03*
X3743860Y2542714D02*
D03*
Y2557714D02*
D03*
X3794861Y2542714D02*
D03*
Y2557714D02*
D03*
X3533360Y2557964D02*
D03*
Y2542964D02*
D03*
X3482360Y2557964D02*
D03*
Y2542964D02*
D03*
X3292110D02*
D03*
Y2557964D02*
D03*
X3343110Y2542964D02*
D03*
Y2557964D02*
D03*
X3152610D02*
D03*
Y2542964D02*
D03*
X3101610Y2557964D02*
D03*
Y2542964D02*
D03*
X2912110D02*
D03*
Y2557964D02*
D03*
X2963110Y2542964D02*
D03*
Y2557964D02*
D03*
X2773611D02*
D03*
Y2542964D02*
D03*
X2722610Y2557964D02*
D03*
Y2542964D02*
D03*
X2531860D02*
D03*
Y2557964D02*
D03*
X2582860Y2542964D02*
D03*
Y2557964D02*
D03*
X2393360D02*
D03*
Y2542964D02*
D03*
X2342360Y2557964D02*
D03*
Y2542964D02*
D03*
X2152110D02*
D03*
Y2557964D02*
D03*
X2203110Y2542964D02*
D03*
Y2557964D02*
D03*
X2012610D02*
D03*
Y2542964D02*
D03*
X1961610Y2557964D02*
D03*
Y2542964D02*
D03*
X1772110D02*
D03*
Y2557964D02*
D03*
X1823110Y2542964D02*
D03*
Y2557964D02*
D03*
X1632860D02*
D03*
Y2542964D02*
D03*
X1581860Y2557964D02*
D03*
Y2542964D02*
D03*
X1273360Y2543214D02*
D03*
Y2558214D02*
D03*
X1324360Y2543214D02*
D03*
Y2558214D02*
D03*
X3747110Y2367464D02*
D03*
Y2352464D02*
D03*
X3696110Y2367464D02*
D03*
Y2352464D02*
D03*
X3387360Y2352714D02*
D03*
Y2367714D02*
D03*
X3438360Y2352714D02*
D03*
Y2367714D02*
D03*
X3248110D02*
D03*
Y2352714D02*
D03*
X3197110Y2367714D02*
D03*
Y2352714D02*
D03*
X3006860D02*
D03*
Y2367714D02*
D03*
X3057860Y2352714D02*
D03*
Y2367714D02*
D03*
X2868360D02*
D03*
Y2352714D02*
D03*
X2817360Y2367714D02*
D03*
Y2352714D02*
D03*
X2627360D02*
D03*
Y2367714D02*
D03*
X2678360Y2352714D02*
D03*
Y2367714D02*
D03*
X2488110D02*
D03*
Y2352714D02*
D03*
X2437110Y2367714D02*
D03*
Y2352714D02*
D03*
X2246860D02*
D03*
Y2367714D02*
D03*
X2297860Y2352714D02*
D03*
Y2367714D02*
D03*
X2108360D02*
D03*
Y2352714D02*
D03*
X2057360Y2367714D02*
D03*
Y2352714D02*
D03*
X1866860D02*
D03*
Y2367714D02*
D03*
X1917860Y2352714D02*
D03*
Y2367714D02*
D03*
X1728360D02*
D03*
Y2352714D02*
D03*
X1677360Y2367714D02*
D03*
Y2352714D02*
D03*
X3790610Y2162464D02*
D03*
Y2177464D02*
D03*
X3841610Y2162464D02*
D03*
Y2177464D02*
D03*
X3605610D02*
D03*
Y2162464D02*
D03*
X3554610Y2177464D02*
D03*
Y2162464D02*
D03*
X3316610Y2162714D02*
D03*
Y2177714D02*
D03*
X3367610Y2162714D02*
D03*
Y2177714D02*
D03*
X1891110Y2162964D02*
D03*
Y2177964D02*
D03*
X1942110Y2162964D02*
D03*
Y2177964D02*
D03*
X1704110D02*
D03*
Y2162964D02*
D03*
X1653110Y2177964D02*
D03*
Y2162964D02*
D03*
X1178110Y2162714D02*
D03*
Y2177714D02*
D03*
X1229110Y2162714D02*
D03*
Y2177714D02*
D03*
D34*
X2597361Y2199932D02*
D03*
X2597361Y2148932D02*
D03*
X2612361D02*
D03*
X2612361Y2199932D02*
D03*
X2640286Y2200186D02*
D03*
X2655286D02*
D03*
X2640286Y2149186D02*
D03*
X2655286Y2149186D02*
D03*
D35*
X1384610Y2698714D02*
D03*
D36*
X1764888Y2751098D02*
D03*
X1749648D02*
D03*
X1753712Y2646196D02*
D03*
X1738472D02*
D03*
X1705706Y2484144D02*
D03*
X1690466D02*
D03*
X1800702Y2273070D02*
D03*
X1785462D02*
D03*
X2532476Y2079776D02*
D03*
X2517236D02*
D03*
X2483980Y2198964D02*
D03*
X2468741D02*
D03*
X2165740Y2276964D02*
D03*
X2180480Y2296714D02*
D03*
X2165240D02*
D03*
D37*
X1135984Y2237510D02*
D03*
Y2252750D02*
D03*
X1163918Y2713674D02*
D03*
X1178904Y2713928D02*
D03*
X1552360Y2397834D02*
D03*
D38*
X1163918Y2698434D02*
D03*
X1178904Y2698688D02*
D03*
X1552360Y2382594D02*
D03*
X2922621Y2256814D02*
D03*
Y2272054D02*
D03*
X2866360Y2100834D02*
D03*
Y2085594D02*
D03*
X1559672Y2311228D02*
D03*
Y2326468D02*
D03*
X2946472Y2379064D02*
D03*
Y2363824D02*
D03*
X2931994Y2379064D02*
D03*
Y2363824D02*
D03*
X1574658Y2326214D02*
D03*
Y2310974D02*
D03*
X1190775Y2855520D02*
D03*
Y2840280D02*
D03*
X3541444Y2336290D02*
D03*
Y2321050D02*
D03*
X3888794Y2433288D02*
D03*
Y2418048D02*
D03*
X1190775Y2889730D02*
D03*
Y2874490D02*
D03*
X3541452Y2371300D02*
D03*
Y2356060D02*
D03*
X3888794Y2466998D02*
D03*
X3888794Y2451758D02*
D03*
X1190775Y2909622D02*
D03*
Y2924862D02*
D03*
X3542280Y2390708D02*
D03*
Y2405948D02*
D03*
X3888794Y2501208D02*
D03*
Y2485968D02*
D03*
X1136110Y2855834D02*
D03*
Y2840594D02*
D03*
X3488104Y2336290D02*
D03*
Y2321050D02*
D03*
X3835454Y2434478D02*
D03*
Y2419238D02*
D03*
X1136110Y2891584D02*
D03*
Y2876344D02*
D03*
X3486240Y2372552D02*
D03*
Y2357312D02*
D03*
X3835454Y2468188D02*
D03*
Y2452948D02*
D03*
X1136860Y2911594D02*
D03*
Y2926834D02*
D03*
X3486146Y2389358D02*
D03*
Y2404598D02*
D03*
X3835454Y2487158D02*
D03*
Y2502398D02*
D03*
X3709678Y2890136D02*
D03*
Y2905376D02*
D03*
X3521610Y2889594D02*
D03*
Y2904834D02*
D03*
X3328610Y2889844D02*
D03*
Y2905084D02*
D03*
X3136111Y2889844D02*
D03*
Y2905084D02*
D03*
X2949110Y2890344D02*
D03*
Y2905584D02*
D03*
X2572360Y2889844D02*
D03*
Y2905084D02*
D03*
X2467700Y2773872D02*
D03*
Y2789112D02*
D03*
X2194110Y2890344D02*
D03*
Y2905584D02*
D03*
X2002860Y2890344D02*
D03*
Y2905584D02*
D03*
X1813360Y2890344D02*
D03*
Y2905584D02*
D03*
X1622610Y2889844D02*
D03*
Y2905084D02*
D03*
X1433610Y2890094D02*
D03*
Y2905334D02*
D03*
X1327360Y2890594D02*
D03*
Y2905834D02*
D03*
X3769610Y2901584D02*
D03*
Y2886344D02*
D03*
X3580110Y2902834D02*
D03*
Y2887594D02*
D03*
X3390110Y2888344D02*
D03*
Y2903584D02*
D03*
X3199610Y2902084D02*
D03*
Y2886844D02*
D03*
X3009641Y2888992D02*
D03*
Y2904232D02*
D03*
X2821770Y2887594D02*
D03*
Y2902834D02*
D03*
X2629937Y2887905D02*
D03*
Y2903145D02*
D03*
X2523453Y2773461D02*
D03*
Y2788701D02*
D03*
X2249867Y2902836D02*
D03*
Y2887596D02*
D03*
X2059590Y2886964D02*
D03*
Y2902204D02*
D03*
X1869761Y2887558D02*
D03*
Y2902798D02*
D03*
X1680117Y2887974D02*
D03*
Y2903214D02*
D03*
X1490053Y2886638D02*
D03*
Y2901878D02*
D03*
X1384860Y2903084D02*
D03*
Y2887844D02*
D03*
X1231254Y2255900D02*
D03*
Y2271140D02*
D03*
D39*
X1562730Y2748464D02*
D03*
X1547491D02*
D03*
X1169730Y2381214D02*
D03*
X1154491D02*
D03*
X1467730Y2232214D02*
D03*
X1452491D02*
D03*
X2461490Y2120714D02*
D03*
X2476730D02*
D03*
X1169741Y2234464D02*
D03*
X1184980D02*
D03*
X2946472Y2348838D02*
D03*
X2961712D02*
D03*
X2931994D02*
D03*
X2916754D02*
D03*
X2891721Y2283834D02*
D03*
X2906960D02*
D03*
X3060542Y2117622D02*
D03*
X3045302D02*
D03*
X1563990Y2257714D02*
D03*
X1579230D02*
D03*
X1541990Y2353464D02*
D03*
X1557230D02*
D03*
X2180980Y2276964D02*
D03*
X2180730Y2259464D02*
D03*
X2165490D02*
D03*
X1469652Y2857212D02*
D03*
X1454412D02*
D03*
X3676206Y2538538D02*
D03*
X3660966D02*
D03*
X1415622Y2857462D02*
D03*
X1430862D02*
D03*
X3619426Y2538538D02*
D03*
X3634666D02*
D03*
X1373832Y2856962D02*
D03*
X1389072D02*
D03*
X3594566Y2538288D02*
D03*
X3579326D02*
D03*
X1451240Y2802464D02*
D03*
X1466480D02*
D03*
X3659740Y2485214D02*
D03*
X3674980D02*
D03*
X1414352Y2802852D02*
D03*
X1429592D02*
D03*
X3632730Y2484964D02*
D03*
X3617491D02*
D03*
X1357480Y2819214D02*
D03*
X1342240D02*
D03*
X3592614Y2484948D02*
D03*
X3577374D02*
D03*
X1538980Y2275964D02*
D03*
X1523740D02*
D03*
X2804244Y2885816D02*
D03*
X2789005D02*
D03*
X2316596Y2705996D02*
D03*
X2301356D02*
D03*
Y2722760D02*
D03*
X2316596D02*
D03*
D40*
X1563860Y2719964D02*
D03*
X1528067Y2719916D02*
D03*
X1135817Y2408166D02*
D03*
X1171610Y2408214D02*
D03*
X1562860Y2285214D02*
D03*
X1598654Y2285262D02*
D03*
X1487734Y2264012D02*
D03*
X1451940Y2263964D02*
D03*
X2165360Y2323714D02*
D03*
X2201154Y2323762D02*
D03*
X2886841Y2314834D02*
D03*
X2922634Y2314882D02*
D03*
D41*
X2521860Y2348714D02*
D03*
X2550860D02*
D03*
X1507861Y2402964D02*
D03*
X1478860D02*
D03*
D42*
X1188836Y2319146D02*
D03*
D43*
X1595360Y2395964D02*
D03*
X1595408Y2360170D02*
D03*
D44*
X1196110Y2258714D02*
D03*
X1170110D02*
D03*
D45*
X2462860Y2597144D02*
D03*
X2462860Y2555644D02*
D03*
M02*
