G04 Layer_Color=7318015*
%FSLAX44Y44*%
%MOMM*%
G71*
G01*
G75*
%ADD10C,0.1000*%
%ADD11C,1.0000*%
%ADD19C,0.2032*%
D10*
X1498316Y2473932D02*
Y2509932D01*
X1483316Y2473932D02*
Y2509932D01*
X1498316D02*
X1483316D01*
X1498316Y2473932D02*
X1483316D01*
X3591022Y2243740D02*
X3576022Y2243740D01*
X3591022Y2207740D02*
X3576022Y2207740D01*
X3591022Y2207740D02*
Y2243740D01*
X3576022Y2207740D02*
Y2243740D01*
X3754598Y2789400D02*
X3739598Y2789400D01*
X3754598Y2825400D02*
X3739598Y2825400D01*
Y2789400D02*
Y2825400D01*
X3754598Y2789400D02*
Y2825400D01*
X3564861Y2809974D02*
Y2845974D01*
X3549861Y2809974D02*
Y2845974D01*
X3564861Y2845974D02*
X3549861Y2845974D01*
X3564861Y2809974D02*
X3549861Y2809974D01*
X3371820Y2810482D02*
X3356820Y2810482D01*
X3371820Y2846482D02*
X3356820Y2846482D01*
Y2810482D02*
Y2846482D01*
X3371820Y2810482D02*
Y2846482D01*
X3186908Y2812260D02*
X3171908D01*
X3186908Y2848260D02*
X3171908D01*
Y2812260D02*
Y2848260D01*
X3186908Y2812260D02*
Y2848260D01*
X2995646Y2824706D02*
X2980646D01*
X2995646Y2860706D02*
X2980646D01*
Y2824706D02*
Y2860706D01*
X2995646Y2824706D02*
Y2860706D01*
X2803114Y2819626D02*
X2788114D01*
X2803114Y2855626D02*
X2788114D01*
Y2819626D02*
Y2855626D01*
X2803114Y2819626D02*
Y2855626D01*
X2668860Y2800214D02*
Y2815214D01*
X2632860Y2800214D02*
Y2815214D01*
X2668860Y2800214D02*
X2632860D01*
X2668860Y2815214D02*
X2632860D01*
X2476860Y2803964D02*
Y2818964D01*
X2440860Y2803964D02*
Y2818964D01*
X2476860Y2803964D02*
X2440860D01*
X2476860Y2818964D02*
X2440860D01*
X2286860Y2804214D02*
Y2819214D01*
X2250860Y2804214D02*
Y2819214D01*
X2286860Y2804214D02*
X2250860D01*
X2286860Y2819214D02*
X2250860D01*
X2097860Y2803464D02*
Y2818464D01*
X2061860Y2803464D02*
Y2818464D01*
X2097860Y2803464D02*
X2061860D01*
X2097860Y2818464D02*
X2061860D01*
X1902360Y2801214D02*
Y2816214D01*
X1866360Y2801214D02*
Y2816214D01*
X1902360Y2801214D02*
X1866360D01*
X1902360Y2816214D02*
X1866360D01*
X1718110Y2800214D02*
Y2815214D01*
X1682110Y2800214D02*
Y2815214D01*
X1718110Y2800214D02*
X1682110D01*
X1718110Y2815214D02*
X1682110D01*
X1528610Y2803964D02*
Y2818964D01*
X1492610Y2803964D02*
Y2818964D01*
X1528610Y2803964D02*
X1492610D01*
X1528610Y2818964D02*
X1492610D01*
X1244360Y2800214D02*
Y2815214D01*
X1208360Y2800214D02*
Y2815214D01*
X1244360Y2800214D02*
X1208360D01*
X1244360Y2815214D02*
X1208360D01*
X3695924Y2620998D02*
X3680924Y2620998D01*
X3695924Y2656998D02*
X3680924Y2656998D01*
Y2620998D02*
Y2656998D01*
X3695924Y2620998D02*
Y2656998D01*
X3522360Y2615464D02*
Y2630464D01*
X3486360Y2615464D02*
Y2630464D01*
X3522360Y2615464D02*
X3486360D01*
X3522360Y2630464D02*
X3486360D01*
X3331610Y2615714D02*
Y2630714D01*
X3295610Y2615714D02*
Y2630714D01*
X3331610Y2615714D02*
X3295610D01*
X3331610Y2630714D02*
X3295610D01*
X3137610Y2628714D02*
X3101610D01*
X3137610Y2613714D02*
X3101610D01*
Y2628714D01*
X3137610Y2613714D02*
Y2628714D01*
X2953860Y2616714D02*
Y2631714D01*
X2917860Y2616714D02*
Y2631714D01*
X2953860Y2616714D02*
X2917860D01*
X2953860Y2631714D02*
X2917860D01*
X2763360Y2613964D02*
Y2628964D01*
X2727361Y2613964D02*
Y2628964D01*
X2763360Y2613964D02*
X2727361D01*
X2763360Y2628964D02*
X2727361D01*
X2572860Y2614964D02*
Y2629964D01*
X2536860Y2614964D02*
Y2629964D01*
X2572860Y2614964D02*
X2536860D01*
X2572860Y2629964D02*
X2536860D01*
X2383110Y2614214D02*
Y2629214D01*
X2347110Y2614214D02*
Y2629214D01*
X2383110Y2614214D02*
X2347110D01*
X2383110Y2629214D02*
X2347110D01*
X2192610Y2615714D02*
Y2630714D01*
X2156610Y2615714D02*
Y2630714D01*
X2192610Y2615714D02*
X2156610D01*
X2192610Y2630714D02*
X2156610D01*
X2003110Y2613214D02*
Y2628214D01*
X1967110Y2613214D02*
Y2628214D01*
X2003110Y2613214D02*
X1967110D01*
X2003110Y2628214D02*
X1967110D01*
X1813860Y2613464D02*
Y2628464D01*
X1777860Y2613464D02*
Y2628464D01*
X1813860Y2613464D02*
X1777860D01*
X1813860Y2628464D02*
X1777860D01*
X1620860Y2613714D02*
Y2628714D01*
X1584860Y2613714D02*
Y2628714D01*
X1620860Y2613714D02*
X1584860D01*
X1620860Y2628714D02*
X1584860D01*
X1390366Y2614902D02*
Y2650902D01*
X1375366Y2614902D02*
Y2650902D01*
X1390366D02*
X1375366D01*
X1390366Y2614902D02*
X1375366D01*
X1316706Y2637254D02*
X1301706Y2637254D01*
X1316706Y2673254D02*
X1301706Y2673254D01*
Y2637254D02*
Y2673254D01*
X1316706Y2637254D02*
Y2673254D01*
X1309610Y2247964D02*
X1273610D01*
X1309610Y2232964D02*
X1273610D01*
Y2247964D01*
X1309610Y2232964D02*
Y2247964D01*
X3735860Y2425964D02*
Y2440964D01*
X3699861Y2425964D02*
Y2440964D01*
X3735860Y2425964D02*
X3699861D01*
X3735860Y2440964D02*
X3699861D01*
X3415000Y2488410D02*
X3400000Y2488410D01*
X3415000Y2524410D02*
X3400000Y2524410D01*
Y2488410D02*
Y2524410D01*
X3415000Y2488410D02*
Y2524410D01*
X3307832Y2427493D02*
Y2442493D01*
X3271832Y2427493D02*
Y2442493D01*
X3307832Y2427493D02*
X3271832D01*
X3307832Y2442493D02*
X3271832D01*
X3043611Y2461964D02*
X3028611D01*
X3043611Y2497964D02*
X3028611D01*
Y2461964D02*
Y2497964D01*
X3043611Y2461964D02*
Y2497964D01*
X2907860Y2424714D02*
Y2439714D01*
X2871860Y2424714D02*
Y2439714D01*
X2907860Y2424714D02*
X2871860D01*
X2907860Y2439714D02*
X2871860D01*
X2826111Y2447714D02*
X2811111D01*
X2826111Y2483714D02*
X2811111D01*
Y2447714D02*
Y2483714D01*
X2826111Y2447714D02*
Y2483714D01*
X2643110Y2448214D02*
X2628110D01*
X2643110Y2484214D02*
X2628110D01*
Y2448214D02*
Y2484214D01*
X2643110Y2448214D02*
Y2484214D01*
X2335110Y2424714D02*
Y2439714D01*
X2299110Y2424714D02*
Y2439714D01*
X2335110Y2424714D02*
X2299110D01*
X2335110Y2439714D02*
X2299110D01*
X2145610Y2423964D02*
Y2438964D01*
X2109610Y2423964D02*
Y2438964D01*
X2145610Y2423964D02*
X2109610D01*
X2145610Y2438964D02*
X2109610D01*
X1956360Y2424464D02*
Y2439464D01*
X1920360Y2424464D02*
Y2439464D01*
X1956360Y2424464D02*
X1920360D01*
X1956360Y2439464D02*
X1920360D01*
X1765110Y2422214D02*
Y2437214D01*
X1729110Y2422214D02*
Y2437214D01*
X1765110Y2422214D02*
X1729110D01*
X1765110Y2437214D02*
X1729110D01*
X1575110Y2422214D02*
Y2437214D01*
X1539110Y2422214D02*
Y2437214D01*
X1575110Y2422214D02*
X1539110D01*
X1575110Y2437214D02*
X1539110D01*
X1264860Y2423464D02*
Y2438464D01*
X1228860Y2423464D02*
Y2438464D01*
X1264860Y2423464D02*
X1228860D01*
X1264860Y2438464D02*
X1228860D01*
X3705068Y2219610D02*
X3690068D01*
X3705068Y2183610D02*
X3690068D01*
X3705068D02*
Y2219610D01*
X3690068Y2183610D02*
Y2219610D01*
X3377110Y2234714D02*
Y2249714D01*
X3341111Y2234714D02*
Y2249714D01*
X3377110Y2234714D02*
X3341111D01*
X3377110Y2249714D02*
X3341111D01*
X3214154Y2232118D02*
Y2247118D01*
X3178154Y2232118D02*
Y2247118D01*
X3214154Y2232118D02*
X3178154D01*
X3214154Y2247118D02*
X3178154D01*
X3022130Y2232372D02*
Y2247372D01*
X2986130Y2232372D02*
Y2247372D01*
X3022130Y2232372D02*
X2986130D01*
X3022130Y2247372D02*
X2986130D01*
X2821610Y2229464D02*
Y2244464D01*
X2785610Y2229464D02*
Y2244464D01*
X2821610Y2229464D02*
X2785610D01*
X2821610Y2244464D02*
X2785610D01*
X2641892Y2231864D02*
Y2246864D01*
X2605892Y2231864D02*
Y2246864D01*
X2641892Y2231864D02*
X2605892D01*
X2641892Y2246864D02*
X2605892D01*
X2384610Y2285214D02*
Y2321214D01*
X2369610Y2285214D02*
Y2321214D01*
X2384610D02*
X2369610D01*
X2384610Y2285214D02*
X2369610D01*
X2247860Y2238214D02*
Y2253214D01*
X2211860Y2238214D02*
Y2253214D01*
X2247860Y2238214D02*
X2211860D01*
X2247860Y2253214D02*
X2211860D01*
X2052110Y2230214D02*
Y2245214D01*
X2016110Y2230214D02*
Y2245214D01*
X2052110Y2230214D02*
X2016110D01*
X2052110Y2245214D02*
X2016110D01*
X1856110Y2232964D02*
Y2247964D01*
X1820110Y2232964D02*
Y2247964D01*
X1856110Y2232964D02*
X1820110D01*
X1856110Y2247964D02*
X1820110D01*
X1667860Y2232964D02*
Y2247964D01*
X1631860Y2232964D02*
Y2247964D01*
X1667860Y2232964D02*
X1631860D01*
X1667860Y2247964D02*
X1631860D01*
X3741860Y2067714D02*
X3726860D01*
X3741860Y2103714D02*
X3726860D01*
Y2067714D02*
Y2103714D01*
X3741860Y2067714D02*
Y2103714D01*
X3498110Y2067964D02*
X3483110D01*
X3498110Y2103964D02*
X3483110D01*
Y2067964D02*
Y2103964D01*
X3498110Y2067964D02*
Y2103964D01*
X3440360Y2067964D02*
X3425360D01*
X3440360Y2103964D02*
X3425360D01*
Y2067964D02*
Y2103964D01*
X3440360Y2067964D02*
Y2103964D01*
X2553610Y2093464D02*
Y2129464D01*
X2538610Y2093464D02*
Y2129464D01*
X2553610D02*
X2538610D01*
X2553610Y2093464D02*
X2538610D01*
X1824341Y2067334D02*
X1809341D01*
X1824341Y2103334D02*
X1809341D01*
Y2067334D02*
Y2103334D01*
X1824341Y2067334D02*
Y2103334D01*
X1599610Y2067214D02*
X1584610D01*
X1599610Y2103214D02*
X1584610D01*
Y2067214D02*
Y2103214D01*
X1599610Y2067214D02*
Y2103214D01*
X1352860Y2067964D02*
X1337860D01*
X1352860Y2103964D02*
X1337860D01*
Y2067964D02*
Y2103964D01*
X1352860Y2067964D02*
Y2103964D01*
X1143360Y2124714D02*
X1128360D01*
X1143360Y2160714D02*
X1128360D01*
Y2124714D02*
Y2160714D01*
X1143360Y2124714D02*
Y2160714D01*
D11*
X3867860Y2108714D02*
D03*
X1303860Y2119464D02*
D03*
X3880110Y2779964D02*
D03*
D19*
X1496324Y2520488D02*
X1486324D01*
X1491324Y2515598D02*
Y2525598D01*
X1495482Y2465008D02*
X1485482D01*
X3588857Y2252664D02*
X3578856Y2252664D01*
X3583014Y2192074D02*
Y2202074D01*
X3588014Y2197184D02*
X3578015D01*
X3751764Y2780476D02*
X3741764D01*
X3747607Y2831066D02*
X3747606Y2841066D01*
X3752606Y2835956D02*
X3742607Y2835956D01*
X3562868Y2856530D02*
X3552868Y2856530D01*
X3557868Y2851640D02*
X3557868Y2861640D01*
X3562026Y2801050D02*
X3552026D01*
X3368986Y2801558D02*
X3358986D01*
X3364828Y2852148D02*
X3364828Y2862148D01*
X3369828Y2857038D02*
X3359828Y2857038D01*
X3184074Y2803336D02*
X3174074D01*
X3179916Y2853926D02*
X3179916Y2863926D01*
X3184916Y2858816D02*
X3174916D01*
X2992812Y2815782D02*
X2982812D01*
X2988654Y2866372D02*
X2988654Y2876372D01*
X2993654Y2871262D02*
X2983654D01*
X2800280Y2810702D02*
X2790280D01*
X2796122Y2861292D02*
X2796122Y2871292D01*
X2801122Y2866182D02*
X2791122D01*
X2677784Y2802380D02*
Y2812380D01*
X2627195Y2808222D02*
X2617195D01*
X2622304Y2803222D02*
Y2813222D01*
X2485784Y2806130D02*
Y2816130D01*
X2435194Y2811972D02*
X2425194D01*
X2430304Y2806972D02*
Y2816972D01*
X2295784Y2806380D02*
Y2816380D01*
X2245194Y2812222D02*
X2235194D01*
X2240304Y2807222D02*
Y2817222D01*
X2106784Y2805630D02*
Y2815630D01*
X2056194Y2811472D02*
X2046194D01*
X2051304Y2806472D02*
Y2816472D01*
X1911284Y2803380D02*
Y2813380D01*
X1860694Y2809222D02*
X1850694D01*
X1855804Y2804222D02*
Y2814222D01*
X1727034Y2802380D02*
Y2812380D01*
X1676444Y2808222D02*
X1666444D01*
X1671554Y2803222D02*
Y2813222D01*
X1537534Y2806130D02*
Y2816130D01*
X1486944Y2811972D02*
X1476944D01*
X1482054Y2806972D02*
Y2816972D01*
X1253284Y2802380D02*
Y2812380D01*
X1202694Y2808222D02*
X1192694D01*
X1197804Y2803222D02*
Y2813222D01*
X3693090Y2612074D02*
X3683090D01*
X3688932Y2662664D02*
X3688932Y2672664D01*
X3693932Y2667554D02*
X3683932Y2667554D01*
X3531284Y2617630D02*
Y2627630D01*
X3480694Y2623472D02*
X3470694D01*
X3475804Y2618472D02*
Y2628472D01*
X3340534Y2617880D02*
Y2627880D01*
X3289944Y2623722D02*
X3279944D01*
X3285054Y2618722D02*
Y2628722D01*
X3091054Y2616722D02*
Y2626722D01*
X3095945Y2621722D02*
X3085944D01*
X3146534Y2615880D02*
Y2625880D01*
X2962784Y2618880D02*
Y2628880D01*
X2912195Y2624722D02*
X2902194D01*
X2907304Y2619722D02*
Y2629722D01*
X2772284Y2616130D02*
Y2626130D01*
X2721694Y2621972D02*
X2711694D01*
X2716804Y2616972D02*
Y2626972D01*
X2581784Y2617130D02*
Y2627130D01*
X2531194Y2622972D02*
X2521194D01*
X2526304Y2617972D02*
Y2627972D01*
X2392034Y2616380D02*
Y2626380D01*
X2341444Y2622222D02*
X2331444D01*
X2336554Y2617222D02*
Y2627222D01*
X2201534Y2617880D02*
Y2627880D01*
X2150944Y2623722D02*
X2140944D01*
X2146054Y2618722D02*
Y2628722D01*
X2012034Y2615380D02*
Y2625380D01*
X1961444Y2621222D02*
X1951444D01*
X1956554Y2616222D02*
Y2626222D01*
X1822784Y2615630D02*
Y2625630D01*
X1772194Y2621472D02*
X1762194D01*
X1767304Y2616472D02*
Y2626472D01*
X1629784Y2615880D02*
Y2625880D01*
X1579194Y2621722D02*
X1569194D01*
X1574304Y2616722D02*
Y2626722D01*
X1388374Y2661458D02*
X1378374D01*
X1383374Y2656568D02*
X1383374Y2666568D01*
X1387532Y2605978D02*
X1377532D01*
X1313872Y2628330D02*
X1303872D01*
X1309714Y2678920D02*
X1309714Y2688920D01*
X1314714Y2683810D02*
X1304714Y2683810D01*
X1263054Y2235972D02*
Y2245972D01*
X1267944Y2240972D02*
X1257944D01*
X1318534Y2235130D02*
Y2245130D01*
X3744785Y2428130D02*
Y2438130D01*
X3694194Y2433972D02*
X3684194D01*
X3689305Y2428972D02*
Y2438972D01*
X3412166Y2479486D02*
X3402166D01*
X3408008Y2530076D02*
X3408008Y2540076D01*
X3413008Y2534966D02*
X3403008Y2534966D01*
X3316756Y2429659D02*
Y2439659D01*
X3266166Y2435501D02*
X3256166D01*
X3261276Y2430501D02*
Y2440501D01*
X3040776Y2453040D02*
X3030776D01*
X3036618Y2503630D02*
Y2513630D01*
X3041618Y2508520D02*
X3031618D01*
X2916784Y2426880D02*
Y2436880D01*
X2866194Y2432722D02*
X2856194D01*
X2861304Y2427722D02*
Y2437722D01*
X2823276Y2438790D02*
X2813276D01*
X2819118Y2489380D02*
Y2499380D01*
X2824118Y2494270D02*
X2814118D01*
X2640276Y2439290D02*
X2630276D01*
X2636118Y2489880D02*
Y2499880D01*
X2641118Y2494770D02*
X2631118D01*
X2344034Y2426880D02*
Y2436880D01*
X2293444Y2432722D02*
X2283444D01*
X2288554Y2427722D02*
Y2437722D01*
X2154534Y2426130D02*
Y2436130D01*
X2103944Y2431972D02*
X2093944D01*
X2099054Y2426972D02*
Y2436972D01*
X1965284Y2426630D02*
Y2436630D01*
X1914694Y2432472D02*
X1904694D01*
X1909804Y2427472D02*
Y2437472D01*
X1774034Y2424380D02*
Y2434380D01*
X1723444Y2430222D02*
X1713444D01*
X1718554Y2425222D02*
Y2435222D01*
X1584034Y2424380D02*
Y2434380D01*
X1533444Y2430222D02*
X1523444D01*
X1528554Y2425222D02*
Y2435222D01*
X1273784Y2425630D02*
Y2435630D01*
X1223194Y2431472D02*
X1213194D01*
X1218304Y2426472D02*
Y2436472D01*
X3702903Y2228534D02*
X3692903D01*
X3697060Y2167944D02*
X3697060Y2177944D01*
X3702060Y2173054D02*
X3692061Y2173054D01*
X3386035Y2236880D02*
Y2246880D01*
X3335444Y2242722D02*
X3325444D01*
X3330554Y2237722D02*
Y2247722D01*
X3223078Y2234284D02*
Y2244284D01*
X3172488Y2240126D02*
X3162488D01*
X3167598Y2235126D02*
Y2245126D01*
X3031054Y2234538D02*
Y2244538D01*
X2980464Y2240380D02*
X2970464D01*
X2975574Y2235380D02*
Y2245380D01*
X2830534Y2231630D02*
Y2241630D01*
X2779944Y2237472D02*
X2769944D01*
X2775054Y2232472D02*
Y2242472D01*
X2650816Y2234030D02*
Y2244030D01*
X2600226Y2239872D02*
X2590226D01*
X2595336Y2234872D02*
Y2244872D01*
X2382618Y2331770D02*
X2372618D01*
X2377618Y2326880D02*
Y2336880D01*
X2381776Y2276290D02*
X2371776D01*
X2256784Y2240380D02*
Y2250380D01*
X2206194Y2246222D02*
X2196194D01*
X2201304Y2241222D02*
Y2251222D01*
X2061034Y2232380D02*
Y2242380D01*
X2010444Y2238222D02*
X2000444D01*
X2005554Y2233222D02*
Y2243222D01*
X1865034Y2235130D02*
Y2245130D01*
X1814444Y2240972D02*
X1804444D01*
X1809554Y2235972D02*
Y2245972D01*
X1676784Y2235130D02*
Y2245130D01*
X1626194Y2240972D02*
X1616194D01*
X1621304Y2235972D02*
Y2245972D01*
X3739026Y2058790D02*
X3729026D01*
X3734868Y2109380D02*
Y2119380D01*
X3739868Y2114270D02*
X3729868D01*
X3495276Y2059040D02*
X3485276D01*
X3491118Y2109630D02*
Y2119630D01*
X3496118Y2114520D02*
X3486118D01*
X3437526Y2059040D02*
X3427526D01*
X3433368Y2109630D02*
Y2119630D01*
X3438368Y2114520D02*
X3428369D01*
X2551618Y2140020D02*
X2541618D01*
X2546618Y2135130D02*
Y2145130D01*
X2550776Y2084540D02*
X2540776D01*
X1821506Y2058410D02*
X1811506D01*
X1817348Y2109000D02*
Y2119000D01*
X1822348Y2113890D02*
X1812348D01*
X1596776Y2058290D02*
X1586776D01*
X1592618Y2108880D02*
Y2118880D01*
X1597618Y2113770D02*
X1587618D01*
X1350026Y2059040D02*
X1340026D01*
X1345868Y2109630D02*
Y2119630D01*
X1350868Y2114520D02*
X1340868D01*
X1140526Y2115790D02*
X1130526D01*
X1136368Y2166380D02*
Y2176380D01*
X1141368Y2171270D02*
X1131368D01*
M02*
